<svg width="18" height="13" viewBox="0 0 18 13" fill="none" xmlns="http://www.w3.org/2000/svg">
<path d="M17.3513 2.01349L7.00982 12.3549C6.91823 12.4473 6.79355 12.4992 6.66348 12.4992C6.53341 12.4992 6.40873 12.4473 6.31714 12.3549L1.0586 7.09638C0.966248 7.00487 0.914307 6.88019 0.914307 6.75004C0.914307 6.61999 0.966248 6.49531 1.0586 6.4037L1.74153 5.72077C1.83312 5.62848 1.9578 5.57648 2.08787 5.57648C2.21794 5.57648 2.34262 5.62848 2.43421 5.72077L6.6586 9.94516L15.9757 0.628127C16.1686 0.441015 16.4754 0.441015 16.6684 0.628127L17.3513 1.32081C17.4437 1.4124 17.4956 1.53708 17.4956 1.66715C17.4956 1.79722 17.4437 1.92189 17.3513 2.01349Z" fill="#3D3A41"/>
</svg>
