<svg width="400" height="343" viewBox="0 0 400 343" fill="none" xmlns="http://www.w3.org/2000/svg">
<rect x="81.4111" width="268.127" height="217.632" rx="3.01266" fill="#F3F1FF"/>
<rect x="93.4629" y="36.2727" width="244.025" height="169.27" rx="3.01266" fill="white"/>
<rect x="105.513" y="48.3633" width="219.924" height="145.088" rx="3.01266" fill="#F3F1FF"/>
<rect x="117.562" y="60.4543" width="61.0063" height="6.04535" rx="3.02267" fill="white"/>
<rect x="117.562" y="72.5439" width="61.0063" height="6.04535" rx="3.02267" fill="white"/>
<rect x="117.562" y="84.635" width="39.1646" height="6.04535" rx="3.02267" fill="white"/>
<rect x="179.323" y="151.134" width="61.0063" height="6.02532" rx="3.01266" fill="white"/>
<rect x="179.323" y="163.185" width="61.0063" height="6.02532" rx="3.01266" fill="white"/>
<rect x="179.323" y="175.235" width="39.1646" height="6.02532" rx="3.01266" fill="white"/>
<rect x="252.38" y="151.134" width="61.0063" height="6.02532" rx="3.01266" fill="white"/>
<rect x="252.38" y="163.185" width="61.0063" height="6.02532" rx="3.01266" fill="white"/>
<rect x="252.38" y="175.235" width="39.1646" height="6.02532" rx="3.01266" fill="white"/>
<circle cx="99.4882" cy="18.1359" r="6.02532" fill="#C4C4C4"/>
<circle cx="118.318" cy="18.1359" r="6.02532" fill="#C4C4C4"/>
<circle cx="137.146" cy="18.1359" r="6.02532" fill="#C4C4C4"/>
<rect x="305.855" y="12.8638" width="31.6329" height="10.5443" rx="5.27215" fill="#D9D9D9"/>
<rect x="213.215" y="62.7207" width="186.785" height="36.2721" rx="2.84529" fill="#FF007A"/>
<rect x="220.746" y="74.7712" width="12.0506" height="12.0506" fill="#F3F1FF"/>
<rect x="274.221" y="77.7839" width="25.6076" height="6.02532" rx="3.01266" fill="white"/>
<rect x="305.854" y="77.7839" width="25.6076" height="6.02532" rx="3.01266" fill="white"/>
<rect x="337.487" y="77.7837" width="25.6076" height="6.02532" rx="3.01266" fill="white"/>
<rect x="381.17" y="77.7839" width="11.2975" height="6.02532" rx="3.01266" fill="white"/>
<g filter="url(#filter0_d_50_954)">
<rect x="43" y="145.844" width="124.272" height="154.156" rx="3.01266" fill="white" shape-rendering="crispEdges"/>
<path d="M57.3637 168.978C57.187 168.978 57.0504 168.93 56.954 168.834C56.8576 168.729 56.8094 168.585 56.8094 168.4V160.965C56.8094 160.78 56.8576 160.639 56.954 160.543C57.0585 160.447 57.1991 160.398 57.3758 160.398H60.2438C61.1597 160.398 61.8626 160.623 62.3527 161.073C62.8508 161.523 63.0998 162.154 63.0998 162.965C63.0998 163.785 62.8508 164.419 62.3527 164.869C61.8626 165.319 61.1597 165.544 60.2438 165.544H57.9301V168.4C57.9301 168.585 57.8819 168.729 57.7855 168.834C57.6971 168.93 57.5566 168.978 57.3637 168.978ZM57.9301 164.64H60.0992C60.7259 164.64 61.1958 164.5 61.5092 164.218C61.8305 163.929 61.9912 163.511 61.9912 162.965C61.9912 162.419 61.8305 162.009 61.5092 161.736C61.1958 161.455 60.7259 161.314 60.0992 161.314H57.9301V164.64ZM65.7908 169.002C65.3891 169.002 65.0236 168.922 64.6942 168.761C64.3729 168.601 64.1198 168.384 63.935 168.111C63.7583 167.838 63.6699 167.532 63.6699 167.195C63.6699 166.761 63.7784 166.42 63.9953 166.171C64.2122 165.922 64.5777 165.745 65.0919 165.64C65.606 165.528 66.2969 165.472 67.1646 165.472H67.731V166.171H67.1887C66.5701 166.171 66.08 166.199 65.7185 166.255C65.365 166.311 65.116 166.412 64.9714 166.556C64.8268 166.693 64.7545 166.886 64.7545 167.135C64.7545 167.448 64.8629 167.705 65.0798 167.906C65.3048 168.107 65.61 168.207 65.9957 168.207C66.301 168.207 66.5701 168.135 66.8031 167.99C67.036 167.838 67.2208 167.637 67.3574 167.388C67.494 167.131 67.5623 166.837 67.5623 166.508V165.122C67.5623 164.648 67.4658 164.307 67.273 164.098C67.0802 163.881 66.7549 163.773 66.2969 163.773C66.0318 163.773 65.7587 163.809 65.4775 163.881C65.1963 163.953 64.9031 164.066 64.5978 164.218C64.4773 164.275 64.3729 164.295 64.2845 164.279C64.1961 164.255 64.1238 164.206 64.0676 164.134C64.0194 164.054 63.9912 163.969 63.9832 163.881C63.9832 163.785 64.0033 163.692 64.0435 163.604C64.0917 163.515 64.172 163.451 64.2845 163.411C64.638 163.234 64.9874 163.11 65.3329 163.037C65.6864 162.957 66.0158 162.917 66.321 162.917C66.8432 162.917 67.273 163.001 67.6105 163.17C67.9479 163.331 68.2009 163.584 68.3696 163.929C68.5384 164.267 68.6227 164.7 68.6227 165.231V168.412C68.6227 168.597 68.5785 168.737 68.4902 168.834C68.4018 168.93 68.2732 168.978 68.1045 168.978C67.9439 168.978 67.8153 168.93 67.7189 168.834C67.6305 168.737 67.5864 168.597 67.5864 168.412V167.556H67.6948C67.6305 167.854 67.51 168.111 67.3333 168.328C67.1565 168.545 66.9356 168.713 66.6705 168.834C66.4134 168.946 66.1202 169.002 65.7908 169.002ZM72.2524 169.002C71.8909 169.002 71.5253 168.962 71.1558 168.882C70.7943 168.794 70.4528 168.645 70.1315 168.436C70.0431 168.38 69.9788 168.312 69.9387 168.231C69.9065 168.143 69.8945 168.059 69.9025 167.978C69.9186 167.89 69.9547 167.814 70.011 167.749C70.0672 167.685 70.1355 167.649 70.2158 167.641C70.3042 167.625 70.3966 167.645 70.493 167.701C70.8063 167.878 71.1076 168.002 71.3968 168.075C71.694 168.147 71.9873 168.183 72.2765 168.183C72.7184 168.183 73.0518 168.103 73.2767 167.942C73.5016 167.781 73.6141 167.568 73.6141 167.303C73.6141 167.078 73.5378 166.906 73.3852 166.785C73.2405 166.657 73.0116 166.56 72.6983 166.496L71.5776 166.267C71.0795 166.155 70.7019 165.97 70.4448 165.713C70.1958 165.448 70.0712 165.11 70.0712 164.7C70.0712 164.339 70.1676 164.026 70.3604 163.76C70.5613 163.487 70.8385 163.278 71.1919 163.134C71.5454 162.989 71.9511 162.917 72.4091 162.917C72.7625 162.917 73.0959 162.965 73.4093 163.062C73.7306 163.15 74.0198 163.286 74.2769 163.471C74.3733 163.527 74.4336 163.6 74.4577 163.688C74.4898 163.769 74.4938 163.853 74.4697 163.941C74.4536 164.022 74.4175 164.09 74.3613 164.146C74.305 164.202 74.2327 164.238 74.1443 164.255C74.056 164.263 73.9596 164.238 73.8551 164.182C73.6222 164.022 73.3811 163.909 73.1321 163.845C72.8911 163.773 72.6501 163.736 72.4091 163.736C71.9752 163.736 71.6458 163.821 71.4209 163.989C71.204 164.158 71.0955 164.379 71.0955 164.652C71.0955 164.861 71.1598 165.034 71.2883 165.17C71.4249 165.307 71.6378 165.407 71.927 165.472L73.0477 165.701C73.5699 165.813 73.9636 165.994 74.2287 166.243C74.4938 166.484 74.6264 166.813 74.6264 167.231C74.6264 167.777 74.4095 168.211 73.9756 168.533C73.5498 168.846 72.9754 169.002 72.2524 169.002ZM77.9571 169.002C77.5956 169.002 77.2301 168.962 76.8605 168.882C76.499 168.794 76.1576 168.645 75.8362 168.436C75.7479 168.38 75.6836 168.312 75.6434 168.231C75.6113 168.143 75.5992 168.059 75.6073 167.978C75.6233 167.89 75.6595 167.814 75.7157 167.749C75.772 167.685 75.8403 167.649 75.9206 167.641C76.009 167.625 76.1013 167.645 76.1978 167.701C76.5111 167.878 76.8123 168.002 77.1016 168.075C77.3988 168.147 77.692 168.183 77.9812 168.183C78.4231 168.183 78.7565 168.103 78.9815 167.942C79.2064 167.781 79.3189 167.568 79.3189 167.303C79.3189 167.078 79.2425 166.906 79.0899 166.785C78.9453 166.657 78.7163 166.56 78.403 166.496L77.2823 166.267C76.7842 166.155 76.4066 165.97 76.1496 165.713C75.9005 165.448 75.776 165.11 75.776 164.7C75.776 164.339 75.8724 164.026 76.0652 163.76C76.266 163.487 76.5432 163.278 76.8967 163.134C77.2502 162.989 77.6559 162.917 78.1138 162.917C78.4673 162.917 78.8007 162.965 79.114 163.062C79.4354 163.15 79.7246 163.286 79.9817 163.471C80.0781 163.527 80.1383 163.6 80.1624 163.688C80.1945 163.769 80.1986 163.853 80.1745 163.941C80.1584 164.022 80.1222 164.09 80.066 164.146C80.0098 164.202 79.9375 164.238 79.8491 164.255C79.7607 164.263 79.6643 164.238 79.5599 164.182C79.3269 164.022 79.0859 163.909 78.8368 163.845C78.5958 163.773 78.3548 163.736 78.1138 163.736C77.68 163.736 77.3506 163.821 77.1257 163.989C76.9087 164.158 76.8003 164.379 76.8003 164.652C76.8003 164.861 76.8646 165.034 76.9931 165.17C77.1297 165.307 77.3426 165.407 77.6318 165.472L78.7525 165.701C79.2747 165.813 79.6683 165.994 79.9335 166.243C80.1986 166.484 80.3311 166.813 80.3311 167.231C80.3311 167.777 80.1142 168.211 79.6804 168.533C79.2546 168.846 78.6802 169.002 77.9571 169.002ZM83.6045 168.978C83.4518 168.978 83.3193 168.942 83.2068 168.87C83.0943 168.79 83.006 168.661 82.9417 168.484L81.1461 163.7C81.0899 163.548 81.0738 163.415 81.0979 163.303C81.122 163.19 81.1783 163.102 81.2666 163.037C81.355 162.973 81.4715 162.941 81.6161 162.941C81.7527 162.941 81.8611 162.973 81.9415 163.037C82.0218 163.102 82.0901 163.218 82.1463 163.387L83.7852 168.014H83.496L85.1831 163.363C85.2393 163.218 85.3116 163.114 85.4 163.049C85.4964 162.977 85.6129 162.941 85.7495 162.941C85.8941 162.941 86.0146 162.977 86.111 163.049C86.2074 163.114 86.2757 163.218 86.3159 163.363L87.9788 168.014H87.7017L89.3647 163.363C89.4209 163.202 89.4932 163.094 89.5816 163.037C89.67 162.973 89.7784 162.941 89.9069 162.941C90.0516 162.941 90.16 162.977 90.2323 163.049C90.3046 163.122 90.3448 163.218 90.3528 163.339C90.3689 163.451 90.3528 163.572 90.3046 163.7L88.5091 168.484C88.4528 168.653 88.3645 168.778 88.244 168.858C88.1315 168.938 87.9989 168.978 87.8463 168.978C87.6937 168.978 87.5571 168.938 87.4366 168.858C87.3241 168.778 87.2357 168.653 87.1715 168.484L85.4482 163.76H86.0025L84.2793 168.484C84.215 168.653 84.1267 168.778 84.0142 168.858C83.9017 168.938 83.7651 168.978 83.6045 168.978ZM93.9673 169.002C93.3888 169.002 92.8867 168.878 92.4609 168.629C92.0351 168.38 91.7058 168.026 91.4728 167.568C91.2398 167.111 91.1233 166.572 91.1233 165.954C91.1233 165.488 91.1876 165.07 91.3161 164.7C91.4527 164.323 91.6455 164.001 91.8945 163.736C92.1436 163.471 92.4408 163.27 92.7863 163.134C93.1398 162.989 93.5334 162.917 93.9673 162.917C94.5457 162.917 95.0478 163.041 95.4736 163.29C95.8994 163.54 96.2288 163.893 96.4617 164.351C96.6947 164.801 96.8112 165.335 96.8112 165.954C96.8112 166.42 96.7429 166.841 96.6063 167.219C96.4778 167.597 96.289 167.918 96.04 168.183C95.7909 168.448 95.4897 168.653 95.1362 168.798C94.7907 168.934 94.4011 169.002 93.9673 169.002ZM93.9673 168.135C94.3207 168.135 94.626 168.05 94.8831 167.882C95.1482 167.713 95.3491 167.468 95.4856 167.147C95.6302 166.825 95.7025 166.428 95.7025 165.954C95.7025 165.247 95.5459 164.708 95.2326 164.339C94.9193 163.969 94.4975 163.785 93.9673 163.785C93.6218 163.785 93.3165 163.869 93.0514 164.038C92.7943 164.198 92.5935 164.439 92.4489 164.761C92.3043 165.082 92.232 165.48 92.232 165.954C92.232 166.661 92.3886 167.203 92.7019 167.581C93.0233 167.95 93.4451 168.135 93.9673 168.135ZM98.6618 168.978C98.4771 168.978 98.3365 168.93 98.2401 168.834C98.1437 168.737 98.0954 168.597 98.0954 168.412V163.495C98.0954 163.311 98.1437 163.174 98.2401 163.086C98.3365 162.989 98.469 162.941 98.6377 162.941C98.8064 162.941 98.935 162.989 99.0233 163.086C99.1198 163.174 99.168 163.311 99.168 163.495V164.423H99.0474C99.176 163.941 99.417 163.576 99.7705 163.327C100.124 163.078 100.57 162.937 101.108 162.905C101.237 162.897 101.341 162.929 101.421 163.001C101.502 163.066 101.546 163.178 101.554 163.339C101.562 163.491 101.526 163.616 101.446 163.712C101.365 163.801 101.241 163.853 101.072 163.869L100.855 163.881C100.325 163.937 99.9151 164.11 99.6259 164.399C99.3447 164.688 99.2041 165.086 99.2041 165.592V168.412C99.2041 168.597 99.1559 168.737 99.0595 168.834C98.9711 168.93 98.8386 168.978 98.6618 168.978ZM104.535 169.002C104.021 169.002 103.567 168.882 103.174 168.641C102.788 168.392 102.487 168.038 102.27 167.581C102.053 167.115 101.944 166.572 101.944 165.954C101.944 165.327 102.049 164.789 102.258 164.339C102.475 163.881 102.776 163.532 103.162 163.29C103.555 163.041 104.013 162.917 104.535 162.917C105.057 162.917 105.507 163.049 105.885 163.315C106.263 163.572 106.516 163.917 106.644 164.351H106.512V160.868C106.512 160.684 106.556 160.547 106.644 160.459C106.741 160.362 106.877 160.314 107.054 160.314C107.231 160.314 107.367 160.362 107.464 160.459C107.56 160.547 107.608 160.684 107.608 160.868V168.412C107.608 168.597 107.56 168.737 107.464 168.834C107.367 168.93 107.231 168.978 107.054 168.978C106.885 168.978 106.753 168.93 106.656 168.834C106.56 168.737 106.512 168.597 106.512 168.412V167.315L106.644 167.532C106.524 167.982 106.271 168.34 105.885 168.605C105.507 168.87 105.057 169.002 104.535 169.002ZM104.788 168.135C105.142 168.135 105.447 168.05 105.704 167.882C105.969 167.713 106.17 167.468 106.307 167.147C106.451 166.825 106.524 166.428 106.524 165.954C106.524 165.247 106.367 164.708 106.054 164.339C105.74 163.969 105.319 163.785 104.788 163.785C104.443 163.785 104.138 163.869 103.873 164.038C103.615 164.198 103.415 164.439 103.27 164.761C103.125 165.082 103.053 165.48 103.053 165.954C103.053 166.661 103.21 167.203 103.523 167.581C103.844 167.95 104.266 168.135 104.788 168.135Z" fill="#393333"/>
<rect x="55.636" y="183.945" width="94.5869" height="16.5696" rx="8.28481" fill="#F3F1FF"/>
<path d="M63.3736 193.789L63.9915 192.665L64.6211 193.789C64.6485 193.84 64.6799 193.883 64.7152 193.918C64.7545 193.95 64.7937 193.973 64.8329 193.989C64.8721 194.005 64.9114 194.012 64.9506 194.012C65.0526 194.012 65.1428 193.973 65.2213 193.895C65.2997 193.816 65.3389 193.722 65.3389 193.612C65.3389 193.573 65.3331 193.534 65.3213 193.495C65.3095 193.451 65.2919 193.41 65.2683 193.371L64.6211 192.329L65.9568 192.371C66.0823 192.371 66.1784 192.333 66.2451 192.259C66.3157 192.184 66.351 192.096 66.351 191.994C66.351 191.892 66.3157 191.804 66.2451 191.729C66.1784 191.655 66.0823 191.618 65.9568 191.618L64.6328 191.665L65.2977 190.582C65.3174 190.547 65.3311 190.511 65.3389 190.476C65.3507 190.441 65.3566 190.405 65.3566 190.37C65.3566 190.299 65.3389 190.233 65.3036 190.17C65.2683 190.107 65.2213 190.058 65.1624 190.023C65.1075 189.988 65.0467 189.97 64.98 189.97C64.9172 189.97 64.8545 189.99 64.7917 190.029C64.729 190.068 64.674 190.127 64.627 190.205L63.9915 191.353L63.356 190.188C63.3482 190.172 63.3383 190.156 63.3266 190.141C63.3148 190.125 63.303 190.111 63.2913 190.099C63.2834 190.088 63.2736 190.078 63.2619 190.07C63.2501 190.058 63.2383 190.048 63.2265 190.041C63.2148 190.029 63.201 190.021 63.1854 190.017C63.1736 190.009 63.1599 190.003 63.1442 189.999C63.1324 189.992 63.1206 189.988 63.1089 189.988C63.0971 189.984 63.0834 189.982 63.0677 189.982C63.0559 189.978 63.0422 189.976 63.0265 189.976C62.9245 189.976 62.8323 190.015 62.7499 190.094C62.6715 190.168 62.6323 190.26 62.6323 190.37C62.6323 190.449 62.6558 190.525 62.7029 190.6L63.356 191.665L62.0497 191.618C61.9674 191.618 61.8948 191.637 61.832 191.676C61.7732 191.712 61.73 191.757 61.7026 191.812C61.6751 191.867 61.6614 191.927 61.6614 191.994C61.6614 192.096 61.6947 192.184 61.7614 192.259C61.832 192.333 61.9281 192.371 62.0497 192.371L63.3736 192.329L62.7029 193.406C62.6872 193.43 62.6734 193.455 62.6617 193.483C62.6538 193.506 62.6479 193.53 62.644 193.553C62.6401 193.573 62.6381 193.595 62.6381 193.618C62.6381 193.728 62.6774 193.822 62.7558 193.901C62.8382 193.975 62.9304 194.012 63.0324 194.012C63.0991 194.012 63.1618 193.995 63.2207 193.959C63.2795 193.924 63.3305 193.867 63.3736 193.789Z" fill="#FF007A"/>
<path d="M76.3483 193.789L76.9661 192.665L77.5957 193.789C77.6231 193.84 77.6545 193.883 77.6898 193.918C77.7291 193.95 77.7683 193.973 77.8075 193.989C77.8467 194.005 77.886 194.012 77.9252 194.012C78.0272 194.012 78.1174 193.973 78.1959 193.895C78.2743 193.816 78.3135 193.722 78.3135 193.612C78.3135 193.573 78.3077 193.534 78.2959 193.495C78.2841 193.451 78.2665 193.41 78.2429 193.371L77.5957 192.329L78.9314 192.371C79.0569 192.371 79.153 192.333 79.2197 192.259C79.2903 192.184 79.3256 192.096 79.3256 191.994C79.3256 191.892 79.2903 191.804 79.2197 191.729C79.153 191.655 79.0569 191.618 78.9314 191.618L77.6075 191.665L78.2724 190.582C78.292 190.547 78.3057 190.511 78.3135 190.476C78.3253 190.441 78.3312 190.405 78.3312 190.37C78.3312 190.299 78.3135 190.233 78.2782 190.17C78.2429 190.107 78.1959 190.058 78.137 190.023C78.0821 189.988 78.0213 189.97 77.9546 189.97C77.8919 189.97 77.8291 189.99 77.7663 190.029C77.7036 190.068 77.6486 190.127 77.6016 190.205L76.9661 191.353L76.3306 190.188C76.3228 190.172 76.313 190.156 76.3012 190.141C76.2894 190.125 76.2776 190.111 76.2659 190.099C76.258 190.088 76.2482 190.078 76.2365 190.07C76.2247 190.058 76.2129 190.048 76.2012 190.041C76.1894 190.029 76.1757 190.021 76.16 190.017C76.1482 190.009 76.1345 190.003 76.1188 189.999C76.107 189.992 76.0952 189.988 76.0835 189.988C76.0717 189.984 76.058 189.982 76.0423 189.982C76.0305 189.978 76.0168 189.976 76.0011 189.976C75.8991 189.976 75.8069 190.015 75.7245 190.094C75.6461 190.168 75.6069 190.26 75.6069 190.37C75.6069 190.449 75.6304 190.525 75.6775 190.6L76.3306 191.665L75.0243 191.618C74.942 191.618 74.8694 191.637 74.8066 191.676C74.7478 191.712 74.7046 191.757 74.6772 191.812C74.6497 191.867 74.636 191.927 74.636 191.994C74.636 192.096 74.6693 192.184 74.736 192.259C74.8066 192.333 74.9027 192.371 75.0243 192.371L76.3483 192.329L75.6775 193.406C75.6618 193.43 75.6481 193.455 75.6363 193.483C75.6284 193.506 75.6226 193.53 75.6186 193.553C75.6147 193.573 75.6127 193.595 75.6127 193.618C75.6127 193.728 75.652 193.822 75.7304 193.901C75.8128 193.975 75.905 194.012 76.007 194.012C76.0737 194.012 76.1364 193.995 76.1953 193.959C76.2541 193.924 76.3051 193.867 76.3483 193.789Z" fill="#FF007A"/>
<path d="M89.3226 193.789L89.9405 192.665L90.5701 193.789C90.5975 193.84 90.6289 193.883 90.6642 193.918C90.7034 193.95 90.7427 193.973 90.7819 193.989C90.8211 194.005 90.8603 194.012 90.8996 194.012C91.0016 194.012 91.0918 193.973 91.1702 193.895C91.2487 193.816 91.2879 193.722 91.2879 193.612C91.2879 193.573 91.282 193.534 91.2703 193.495C91.2585 193.451 91.2408 193.41 91.2173 193.371L90.5701 192.329L91.9057 192.371C92.0313 192.371 92.1274 192.333 92.1941 192.259C92.2647 192.184 92.3 192.096 92.3 191.994C92.3 191.892 92.2647 191.804 92.1941 191.729C92.1274 191.655 92.0313 191.618 91.9057 191.618L90.5818 191.665L91.2467 190.582C91.2663 190.547 91.2801 190.511 91.2879 190.476C91.2997 190.441 91.3056 190.405 91.3056 190.37C91.3056 190.299 91.2879 190.233 91.2526 190.17C91.2173 190.107 91.1702 190.058 91.1114 190.023C91.0565 189.988 90.9957 189.97 90.929 189.97C90.8662 189.97 90.8035 189.99 90.7407 190.029C90.6779 190.068 90.623 190.127 90.5759 190.205L89.9405 191.353L89.305 190.188C89.2971 190.172 89.2873 190.156 89.2756 190.141C89.2638 190.125 89.252 190.111 89.2402 190.099C89.2324 190.088 89.2226 190.078 89.2108 190.07C89.1991 190.058 89.1873 190.048 89.1755 190.041C89.1638 190.029 89.15 190.021 89.1343 190.017C89.1226 190.009 89.1088 190.003 89.0931 189.999C89.0814 189.992 89.0696 189.988 89.0578 189.988C89.0461 189.984 89.0323 189.982 89.0167 189.982C89.0049 189.978 88.9912 189.976 88.9755 189.976C88.8735 189.976 88.7813 190.015 88.6989 190.094C88.6205 190.168 88.5812 190.26 88.5812 190.37C88.5812 190.449 88.6048 190.525 88.6518 190.6L89.305 191.665L87.9987 191.618C87.9163 191.618 87.8438 191.637 87.781 191.676C87.7221 191.712 87.679 191.757 87.6515 191.812C87.6241 191.867 87.6104 191.927 87.6104 191.994C87.6104 192.096 87.6437 192.184 87.7104 192.259C87.781 192.333 87.8771 192.371 87.9987 192.371L89.3226 192.329L88.6518 193.406C88.6361 193.43 88.6224 193.455 88.6106 193.483C88.6028 193.506 88.5969 193.53 88.593 193.553C88.5891 193.573 88.5871 193.595 88.5871 193.618C88.5871 193.728 88.6263 193.822 88.7048 193.901C88.7872 193.975 88.8794 194.012 88.9813 194.012C89.048 194.012 89.1108 193.995 89.1696 193.959C89.2285 193.924 89.2795 193.867 89.3226 193.789Z" fill="#FF007A"/>
<path d="M102.297 193.789L102.915 192.665L103.544 193.789C103.572 193.84 103.603 193.883 103.639 193.918C103.678 193.95 103.717 193.973 103.756 193.989C103.795 194.005 103.835 194.012 103.874 194.012C103.976 194.012 104.066 193.973 104.145 193.895C104.223 193.816 104.262 193.722 104.262 193.612C104.262 193.573 104.256 193.534 104.245 193.495C104.233 193.451 104.215 193.41 104.192 193.371L103.544 192.329L104.88 192.371C105.006 192.371 105.102 192.333 105.168 192.259C105.239 192.184 105.274 192.096 105.274 191.994C105.274 191.892 105.239 191.804 105.168 191.729C105.102 191.655 105.006 191.618 104.88 191.618L103.556 191.665L104.221 190.582C104.241 190.547 104.254 190.511 104.262 190.476C104.274 190.441 104.28 190.405 104.28 190.37C104.28 190.299 104.262 190.233 104.227 190.17C104.192 190.107 104.145 190.058 104.086 190.023C104.031 189.988 103.97 189.97 103.903 189.97C103.841 189.97 103.778 189.99 103.715 190.029C103.652 190.068 103.597 190.127 103.55 190.205L102.915 191.353L102.279 190.188C102.271 190.172 102.262 190.156 102.25 190.141C102.238 190.125 102.226 190.111 102.215 190.099C102.207 190.088 102.197 190.078 102.185 190.07C102.173 190.058 102.162 190.048 102.15 190.041C102.138 190.029 102.124 190.021 102.109 190.017C102.097 190.009 102.083 190.003 102.068 189.999C102.056 189.992 102.044 189.988 102.032 189.988C102.02 189.984 102.007 189.982 101.991 189.982C101.979 189.978 101.966 189.976 101.95 189.976C101.848 189.976 101.756 190.015 101.673 190.094C101.595 190.168 101.556 190.26 101.556 190.37C101.556 190.449 101.579 190.525 101.626 190.6L102.279 191.665L100.973 191.618C100.891 191.618 100.818 191.637 100.755 191.676C100.697 191.712 100.653 191.757 100.626 191.812C100.598 191.867 100.585 191.927 100.585 191.994C100.585 192.096 100.618 192.184 100.685 192.259C100.755 192.333 100.851 192.371 100.973 192.371L102.297 192.329L101.626 193.406C101.611 193.43 101.597 193.455 101.585 193.483C101.577 193.506 101.571 193.53 101.567 193.553C101.563 193.573 101.561 193.595 101.561 193.618C101.561 193.728 101.601 193.822 101.679 193.901C101.762 193.975 101.854 194.012 101.956 194.012C102.022 194.012 102.085 193.995 102.144 193.959C102.203 193.924 102.254 193.867 102.297 193.789Z" fill="#FF007A"/>
<path d="M115.271 193.789L115.889 192.665L116.519 193.789C116.546 193.84 116.578 193.883 116.613 193.918C116.652 193.95 116.691 193.973 116.731 193.989C116.77 194.005 116.809 194.012 116.848 194.012C116.95 194.012 117.041 193.973 117.119 193.895C117.197 193.816 117.237 193.722 117.237 193.612C117.237 193.573 117.231 193.534 117.219 193.495C117.207 193.451 117.19 193.41 117.166 193.371L116.519 192.329L117.854 192.371C117.98 192.371 118.076 192.333 118.143 192.259C118.213 192.184 118.249 192.096 118.249 191.994C118.249 191.892 118.213 191.804 118.143 191.729C118.076 191.655 117.98 191.618 117.854 191.618L116.531 191.665L117.195 190.582C117.215 190.547 117.229 190.511 117.237 190.476C117.248 190.441 117.254 190.405 117.254 190.37C117.254 190.299 117.237 190.233 117.201 190.17C117.166 190.107 117.119 190.058 117.06 190.023C117.005 189.988 116.944 189.97 116.878 189.97C116.815 189.97 116.752 189.99 116.689 190.029C116.627 190.068 116.572 190.127 116.525 190.205L115.889 191.353L115.254 190.188C115.246 190.172 115.236 190.156 115.224 190.141C115.213 190.125 115.201 190.111 115.189 190.099C115.181 190.088 115.171 190.078 115.16 190.07C115.148 190.058 115.136 190.048 115.124 190.041C115.112 190.029 115.099 190.021 115.083 190.017C115.071 190.009 115.058 190.003 115.042 189.999C115.03 189.992 115.018 189.988 115.007 189.988C114.995 189.984 114.981 189.982 114.965 189.982C114.954 189.978 114.94 189.976 114.924 189.976C114.822 189.976 114.73 190.015 114.648 190.094C114.569 190.168 114.53 190.26 114.53 190.37C114.53 190.449 114.553 190.525 114.601 190.6L115.254 191.665L113.947 191.618C113.865 191.618 113.792 191.637 113.73 191.676C113.671 191.712 113.628 191.757 113.6 191.812C113.573 191.867 113.559 191.927 113.559 191.994C113.559 192.096 113.592 192.184 113.659 192.259C113.73 192.333 113.826 192.371 113.947 192.371L115.271 192.329L114.601 193.406C114.585 193.43 114.571 193.455 114.559 193.483C114.552 193.506 114.546 193.53 114.542 193.553C114.538 193.573 114.536 193.595 114.536 193.618C114.536 193.728 114.575 193.822 114.654 193.901C114.736 193.975 114.828 194.012 114.93 194.012C114.997 194.012 115.06 193.995 115.118 193.959C115.177 193.924 115.228 193.867 115.271 193.789Z" fill="#FF007A"/>
<path d="M128.246 193.789L128.864 192.665L129.493 193.789C129.521 193.84 129.552 193.883 129.588 193.918C129.627 193.95 129.666 193.973 129.705 193.989C129.744 194.005 129.784 194.012 129.823 194.012C129.925 194.012 130.015 193.973 130.094 193.895C130.172 193.816 130.211 193.722 130.211 193.612C130.211 193.573 130.205 193.534 130.194 193.495C130.182 193.451 130.164 193.41 130.141 193.371L129.493 192.329L130.829 192.371C130.955 192.371 131.051 192.333 131.117 192.259C131.188 192.184 131.223 192.096 131.223 191.994C131.223 191.892 131.188 191.804 131.117 191.729C131.051 191.655 130.955 191.618 130.829 191.618L129.505 191.665L130.17 190.582C130.19 190.547 130.203 190.511 130.211 190.476C130.223 190.441 130.229 190.405 130.229 190.37C130.229 190.299 130.211 190.233 130.176 190.17C130.141 190.107 130.094 190.058 130.035 190.023C129.98 189.988 129.919 189.97 129.852 189.97C129.79 189.97 129.727 189.99 129.664 190.029C129.601 190.068 129.546 190.127 129.499 190.205L128.864 191.353L128.228 190.188C128.22 190.172 128.211 190.156 128.199 190.141C128.187 190.125 128.175 190.111 128.164 190.099C128.156 190.088 128.146 190.078 128.134 190.07C128.122 190.058 128.111 190.048 128.099 190.041C128.087 190.029 128.073 190.021 128.058 190.017C128.046 190.009 128.032 190.003 128.016 189.999C128.005 189.992 127.993 189.988 127.981 189.988C127.969 189.984 127.956 189.982 127.94 189.982C127.928 189.978 127.914 189.976 127.899 189.976C127.797 189.976 127.705 190.015 127.622 190.094C127.544 190.168 127.505 190.26 127.505 190.37C127.505 190.449 127.528 190.525 127.575 190.6L128.228 191.665L126.922 191.618C126.84 191.618 126.767 191.637 126.704 191.676C126.645 191.712 126.602 191.757 126.575 191.812C126.547 191.867 126.534 191.927 126.534 191.994C126.534 192.096 126.567 192.184 126.634 192.259C126.704 192.333 126.8 192.371 126.922 192.371L128.246 192.329L127.575 193.406C127.559 193.43 127.546 193.455 127.534 193.483C127.526 193.506 127.52 193.53 127.516 193.553C127.512 193.573 127.51 193.595 127.51 193.618C127.51 193.728 127.55 193.822 127.628 193.901C127.711 193.975 127.803 194.012 127.905 194.012C127.971 194.012 128.034 193.995 128.093 193.959C128.152 193.924 128.203 193.867 128.246 193.789Z" fill="#FF007A"/>
<path d="M141.22 193.789L141.838 192.665L142.468 193.789C142.495 193.84 142.527 193.883 142.562 193.918C142.601 193.95 142.64 193.973 142.68 193.989C142.719 194.005 142.758 194.012 142.797 194.012C142.899 194.012 142.989 193.973 143.068 193.895C143.146 193.816 143.186 193.722 143.186 193.612C143.186 193.573 143.18 193.534 143.168 193.495C143.156 193.451 143.139 193.41 143.115 193.371L142.468 192.329L143.803 192.371C143.929 192.371 144.025 192.333 144.092 192.259C144.162 192.184 144.198 192.096 144.198 191.994C144.198 191.892 144.162 191.804 144.092 191.729C144.025 191.655 143.929 191.618 143.803 191.618L142.48 191.665L143.144 190.582C143.164 190.547 143.178 190.511 143.186 190.476C143.197 190.441 143.203 190.405 143.203 190.37C143.203 190.299 143.186 190.233 143.15 190.17C143.115 190.107 143.068 190.058 143.009 190.023C142.954 189.988 142.893 189.97 142.827 189.97C142.764 189.97 142.701 189.99 142.638 190.029C142.576 190.068 142.521 190.127 142.474 190.205L141.838 191.353L141.203 190.188C141.195 190.172 141.185 190.156 141.173 190.141C141.161 190.125 141.15 190.111 141.138 190.099C141.13 190.088 141.12 190.078 141.109 190.07C141.097 190.058 141.085 190.048 141.073 190.041C141.061 190.029 141.048 190.021 141.032 190.017C141.02 190.009 141.007 190.003 140.991 189.999C140.979 189.992 140.967 189.988 140.956 189.988C140.944 189.984 140.93 189.982 140.914 189.982C140.903 189.978 140.889 189.976 140.873 189.976C140.771 189.976 140.679 190.015 140.597 190.094C140.518 190.168 140.479 190.26 140.479 190.37C140.479 190.449 140.502 190.525 140.55 190.6L141.203 191.665L139.896 191.618C139.814 191.618 139.741 191.637 139.679 191.676C139.62 191.712 139.577 191.757 139.549 191.812C139.522 191.867 139.508 191.927 139.508 191.994C139.508 192.096 139.541 192.184 139.608 192.259C139.679 192.333 139.775 192.371 139.896 192.371L141.22 192.329L140.55 193.406C140.534 193.43 140.52 193.455 140.508 193.483C140.501 193.506 140.495 193.53 140.491 193.553C140.487 193.573 140.485 193.595 140.485 193.618C140.485 193.728 140.524 193.822 140.602 193.901C140.685 193.975 140.777 194.012 140.879 194.012C140.946 194.012 141.009 193.995 141.067 193.959C141.126 193.924 141.177 193.867 141.22 193.789Z" fill="#FF007A"/>
<path d="M60.8953 219.154C60.0518 219.154 59.3288 218.978 58.7262 218.624C58.1237 218.271 57.6577 217.769 57.3284 217.118C57.007 216.459 56.8463 215.684 56.8463 214.792C56.8463 214.125 56.9387 213.527 57.1235 212.996C57.3083 212.458 57.5734 212 57.9188 211.623C58.2643 211.237 58.6861 210.944 59.1841 210.743C59.6903 210.542 60.2607 210.442 60.8953 210.442C61.3774 210.442 61.8393 210.51 62.2812 210.647C62.7311 210.783 63.1167 210.976 63.438 211.225C63.5666 211.313 63.6509 211.414 63.6911 211.526C63.7313 211.639 63.7353 211.747 63.7031 211.852C63.679 211.948 63.6268 212.032 63.5465 212.105C63.4742 212.169 63.3818 212.205 63.2693 212.213C63.1568 212.213 63.0363 212.169 62.9078 212.081C62.6266 211.864 62.3173 211.707 61.9799 211.611C61.6505 211.506 61.297 211.454 60.9194 211.454C60.3008 211.454 59.7746 211.587 59.3408 211.852C58.915 212.109 58.5897 212.486 58.3647 212.984C58.1478 213.474 58.0393 214.077 58.0393 214.792C58.0393 215.499 58.1478 216.106 58.3647 216.612C58.5897 217.11 58.915 217.491 59.3408 217.756C59.7746 218.014 60.3008 218.142 60.9194 218.142C61.297 218.142 61.6545 218.09 61.9919 217.985C62.3374 217.881 62.6547 217.72 62.9439 217.503C63.0725 217.415 63.189 217.375 63.2934 217.383C63.4059 217.391 63.4983 217.427 63.5706 217.491C63.6429 217.548 63.6911 217.628 63.7152 217.732C63.7473 217.829 63.7473 217.929 63.7152 218.034C63.6831 218.138 63.6107 218.23 63.4983 218.311C63.1689 218.592 62.7752 218.805 62.3173 218.949C61.8674 219.086 61.3934 219.154 60.8953 219.154ZM67.0972 219.154C66.5187 219.154 66.0166 219.03 65.5908 218.781C65.1651 218.532 64.8357 218.178 64.6027 217.72C64.3697 217.262 64.2532 216.724 64.2532 216.106C64.2532 215.64 64.3175 215.222 64.446 214.852C64.5826 214.475 64.7754 214.153 65.0245 213.888C65.2735 213.623 65.5708 213.422 65.9162 213.286C66.2697 213.141 66.6634 213.069 67.0972 213.069C67.6756 213.069 68.1777 213.193 68.6035 213.442C69.0293 213.691 69.3587 214.045 69.5917 214.503C69.8246 214.953 69.9411 215.487 69.9411 216.106C69.9411 216.572 69.8728 216.993 69.7363 217.371C69.6077 217.748 69.4189 218.07 69.1699 218.335C68.9208 218.6 68.6196 218.805 68.2661 218.949C67.9206 219.086 67.531 219.154 67.0972 219.154ZM67.0972 218.287C67.4507 218.287 67.7559 218.202 68.013 218.034C68.2781 217.865 68.479 217.62 68.6156 217.299C68.7602 216.977 68.8325 216.58 68.8325 216.106C68.8325 215.399 68.6758 214.86 68.3625 214.491C68.0492 214.121 67.6274 213.936 67.0972 213.936C66.7517 213.936 66.4464 214.021 66.1813 214.189C65.9242 214.35 65.7234 214.591 65.5788 214.913C65.4342 215.234 65.3619 215.632 65.3619 216.106C65.3619 216.813 65.5185 217.355 65.8319 217.732C66.1532 218.102 66.575 218.287 67.0972 218.287ZM71.7676 219.13C71.5989 219.13 71.4664 219.082 71.37 218.986C71.2736 218.889 71.2254 218.749 71.2254 218.564V213.647C71.2254 213.462 71.2736 213.326 71.37 213.237C71.4664 213.141 71.5989 213.093 71.7676 213.093C71.9364 213.093 72.0649 213.141 72.1533 213.237C72.2497 213.326 72.2979 213.462 72.2979 213.647V214.635L72.1653 214.455C72.334 213.997 72.6072 213.651 72.9848 213.418C73.3704 213.185 73.8082 213.069 74.2983 213.069C74.7723 213.069 75.1619 213.153 75.4672 213.322C75.7725 213.491 76.0014 213.748 76.1541 214.093C76.3067 214.439 76.383 214.876 76.383 215.407V218.564C76.383 218.749 76.3348 218.889 76.2384 218.986C76.1501 219.082 76.0175 219.13 75.8408 219.13C75.664 219.13 75.5274 219.082 75.431 218.986C75.3346 218.889 75.2864 218.749 75.2864 218.564V215.467C75.2864 214.945 75.186 214.563 74.9852 214.322C74.7843 214.081 74.463 213.961 74.0211 213.961C73.507 213.961 73.0932 214.121 72.7799 214.443C72.4746 214.756 72.322 215.182 72.322 215.72V218.564C72.322 218.941 72.1372 219.13 71.7676 219.13ZM78.8928 219.13C78.716 219.13 78.5795 219.082 78.483 218.986C78.3866 218.889 78.3384 218.749 78.3384 218.564V214.021H77.6154C77.4708 214.021 77.3583 213.985 77.278 213.912C77.1976 213.832 77.1575 213.728 77.1575 213.599C77.1575 213.462 77.1976 213.358 77.278 213.286C77.3583 213.213 77.4708 213.177 77.6154 213.177H78.6397L78.3384 213.466V213.021C78.3384 212.249 78.5232 211.663 78.8928 211.261C79.2704 210.86 79.8287 210.623 80.5678 210.55L80.9173 210.526C81.0538 210.51 81.1623 210.53 81.2426 210.586C81.323 210.635 81.3752 210.699 81.3993 210.779C81.4314 210.86 81.4355 210.944 81.4113 211.032C81.3953 211.121 81.3591 211.197 81.3029 211.261C81.2467 211.325 81.1744 211.358 81.086 211.358L80.7486 211.382C80.2906 211.414 79.9572 211.554 79.7484 211.803C79.5395 212.053 79.435 212.41 79.435 212.876V213.358L79.2784 213.177H82.5682C82.745 213.177 82.8775 213.229 82.9659 213.334C83.0623 213.43 83.1105 213.575 83.1105 213.768V218.516C83.1105 218.7 83.0663 218.845 82.9779 218.949C82.8896 219.054 82.753 219.106 82.5682 219.106C82.3915 219.106 82.2549 219.054 82.1585 218.949C82.0621 218.845 82.0139 218.7 82.0139 218.516V214.021H79.435V218.564C79.435 218.941 79.2543 219.13 78.8928 219.13ZM82.5803 211.816C82.3714 211.816 82.2067 211.759 82.0862 211.647C81.9657 211.526 81.9054 211.37 81.9054 211.177C81.9054 210.968 81.9657 210.811 82.0862 210.707C82.2067 210.594 82.3714 210.538 82.5803 210.538C82.8052 210.538 82.9739 210.594 83.0864 210.707C83.2069 210.811 83.2671 210.968 83.2671 211.177C83.2671 211.37 83.2069 211.526 83.0864 211.647C82.9739 211.759 82.8052 211.816 82.5803 211.816ZM85.3195 219.13C85.1347 219.13 84.9942 219.082 84.8977 218.986C84.8013 218.889 84.7531 218.749 84.7531 218.564V213.647C84.7531 213.462 84.8013 213.326 84.8977 213.237C84.9942 213.141 85.1267 213.093 85.2954 213.093C85.4641 213.093 85.5927 213.141 85.681 213.237C85.7774 213.326 85.8256 213.462 85.8256 213.647V214.575H85.7051C85.8337 214.093 86.0747 213.728 86.4282 213.479C86.7817 213.229 87.2275 213.089 87.7658 213.057C87.8943 213.049 87.9988 213.081 88.0791 213.153C88.1595 213.217 88.2036 213.33 88.2117 213.491C88.2197 213.643 88.1836 213.768 88.1032 213.864C88.0229 213.952 87.8984 214.005 87.7296 214.021L87.5127 214.033C86.9825 214.089 86.5728 214.262 86.2836 214.551C86.0024 214.84 85.8618 215.238 85.8618 215.744V218.564C85.8618 218.749 85.8136 218.889 85.7172 218.986C85.6288 219.082 85.4963 219.13 85.3195 219.13ZM89.6003 219.13C89.4316 219.13 89.2991 219.082 89.2026 218.986C89.1062 218.889 89.058 218.749 89.058 218.564V213.647C89.058 213.462 89.1062 213.326 89.2026 213.237C89.2991 213.141 89.4316 213.093 89.6003 213.093C89.769 213.093 89.8976 213.141 89.9859 213.237C90.0823 213.326 90.1305 213.462 90.1305 213.647V214.672L89.998 214.455C90.1506 214.013 90.3957 213.671 90.7331 213.43C91.0785 213.189 91.4883 213.069 91.9622 213.069C92.4603 213.069 92.862 213.189 93.1673 213.43C93.4726 213.663 93.6775 214.021 93.7819 214.503H93.6132C93.7578 214.061 94.0149 213.711 94.3844 213.454C94.762 213.197 95.1998 213.069 95.6979 213.069C96.1398 213.069 96.5013 213.157 96.7825 213.334C97.0717 213.503 97.2886 213.76 97.4332 214.105C97.5778 214.443 97.6501 214.876 97.6501 215.407V218.564C97.6501 218.749 97.6019 218.889 97.5055 218.986C97.4091 219.082 97.2766 219.13 97.1079 219.13C96.9311 219.13 96.7945 219.082 96.6981 218.986C96.6017 218.889 96.5535 218.749 96.5535 218.564V215.455C96.5535 214.941 96.4652 214.563 96.2884 214.322C96.1117 214.081 95.8144 213.961 95.3967 213.961C94.9387 213.961 94.5732 214.121 94.3001 214.443C94.035 214.756 93.9024 215.19 93.9024 215.744V218.564C93.9024 218.749 93.8542 218.889 93.7578 218.986C93.6694 219.082 93.5369 219.13 93.3601 219.13C93.1834 219.13 93.0468 219.082 92.9504 218.986C92.854 218.889 92.8058 218.749 92.8058 218.564V215.455C92.8058 214.941 92.7174 214.563 92.5407 214.322C92.3639 214.081 92.0667 213.961 91.6489 213.961C91.191 213.961 90.8255 214.121 90.5523 214.443C90.2872 214.756 90.1546 215.19 90.1546 215.744V218.564C90.1546 218.941 89.9699 219.13 89.6003 219.13ZM103.014 219.13C102.837 219.13 102.7 219.082 102.604 218.986C102.507 218.881 102.459 218.737 102.459 218.552V211.117C102.459 210.932 102.507 210.791 102.604 210.695C102.708 210.598 102.849 210.55 103.026 210.55H105.894C106.809 210.55 107.512 210.775 108.002 211.225C108.501 211.675 108.75 212.306 108.75 213.117C108.75 213.936 108.501 214.571 108.002 215.021C107.512 215.471 106.809 215.696 105.894 215.696H103.58V218.552C103.58 218.737 103.532 218.881 103.435 218.986C103.347 219.082 103.206 219.13 103.014 219.13ZM103.58 214.792H105.749C106.376 214.792 106.846 214.651 107.159 214.37C107.48 214.081 107.641 213.663 107.641 213.117C107.641 212.571 107.48 212.161 107.159 211.888C106.846 211.607 106.376 211.466 105.749 211.466H103.58V214.792ZM111.441 219.154C111.039 219.154 110.673 219.074 110.344 218.913C110.023 218.753 109.77 218.536 109.585 218.263C109.408 217.989 109.32 217.684 109.32 217.347C109.32 216.913 109.428 216.572 109.645 216.322C109.862 216.073 110.227 215.897 110.742 215.792C111.256 215.68 111.947 215.624 112.814 215.624H113.381V216.322H112.838C112.22 216.322 111.73 216.351 111.368 216.407C111.015 216.463 110.766 216.563 110.621 216.708C110.477 216.845 110.404 217.037 110.404 217.287C110.404 217.6 110.513 217.857 110.73 218.058C110.955 218.259 111.26 218.359 111.645 218.359C111.951 218.359 112.22 218.287 112.453 218.142C112.686 217.989 112.871 217.789 113.007 217.54C113.144 217.282 113.212 216.989 113.212 216.66V215.274C113.212 214.8 113.116 214.459 112.923 214.25C112.73 214.033 112.405 213.924 111.947 213.924C111.682 213.924 111.408 213.961 111.127 214.033C110.846 214.105 110.553 214.218 110.248 214.37C110.127 214.426 110.023 214.447 109.934 214.431C109.846 214.406 109.774 214.358 109.717 214.286C109.669 214.206 109.641 214.121 109.633 214.033C109.633 213.936 109.653 213.844 109.693 213.756C109.741 213.667 109.822 213.603 109.934 213.563C110.288 213.386 110.637 213.262 110.983 213.189C111.336 213.109 111.666 213.069 111.971 213.069C112.493 213.069 112.923 213.153 113.26 213.322C113.598 213.483 113.851 213.736 114.019 214.081C114.188 214.418 114.272 214.852 114.272 215.383V218.564C114.272 218.749 114.228 218.889 114.14 218.986C114.052 219.082 113.923 219.13 113.754 219.13C113.594 219.13 113.465 219.082 113.369 218.986C113.28 218.889 113.236 218.749 113.236 218.564V217.708H113.345C113.28 218.006 113.16 218.263 112.983 218.48C112.806 218.696 112.585 218.865 112.32 218.986C112.063 219.098 111.77 219.154 111.441 219.154ZM117.902 219.154C117.541 219.154 117.175 219.114 116.806 219.034C116.444 218.945 116.103 218.797 115.781 218.588C115.693 218.532 115.629 218.463 115.588 218.383C115.556 218.295 115.544 218.21 115.552 218.13C115.568 218.042 115.605 217.965 115.661 217.901C115.717 217.837 115.785 217.801 115.866 217.793C115.954 217.777 116.046 217.797 116.143 217.853C116.456 218.03 116.757 218.154 117.047 218.226C117.344 218.299 117.637 218.335 117.926 218.335C118.368 218.335 118.702 218.255 118.926 218.094C119.151 217.933 119.264 217.72 119.264 217.455C119.264 217.23 119.188 217.058 119.035 216.937C118.89 216.808 118.661 216.712 118.348 216.648L117.227 216.419C116.729 216.306 116.352 216.122 116.095 215.865C115.846 215.599 115.721 215.262 115.721 214.852C115.721 214.491 115.817 214.177 116.01 213.912C116.211 213.639 116.488 213.43 116.842 213.286C117.195 213.141 117.601 213.069 118.059 213.069C118.412 213.069 118.746 213.117 119.059 213.213C119.38 213.302 119.67 213.438 119.927 213.623C120.023 213.679 120.083 213.752 120.107 213.84C120.14 213.92 120.144 214.005 120.119 214.093C120.103 214.173 120.067 214.242 120.011 214.298C119.955 214.354 119.882 214.39 119.794 214.406C119.706 214.414 119.609 214.39 119.505 214.334C119.272 214.173 119.031 214.061 118.782 213.997C118.541 213.924 118.3 213.888 118.059 213.888C117.625 213.888 117.296 213.973 117.071 214.141C116.854 214.31 116.745 214.531 116.745 214.804C116.745 215.013 116.81 215.186 116.938 215.322C117.075 215.459 117.288 215.559 117.577 215.624L118.698 215.852C119.22 215.965 119.613 216.146 119.878 216.395C120.144 216.636 120.276 216.965 120.276 217.383C120.276 217.929 120.059 218.363 119.625 218.684C119.2 218.998 118.625 219.154 117.902 219.154ZM123.607 219.154C123.245 219.154 122.88 219.114 122.51 219.034C122.149 218.945 121.807 218.797 121.486 218.588C121.398 218.532 121.333 218.463 121.293 218.383C121.261 218.295 121.249 218.21 121.257 218.13C121.273 218.042 121.309 217.965 121.366 217.901C121.422 217.837 121.49 217.801 121.57 217.793C121.659 217.777 121.751 217.797 121.848 217.853C122.161 218.03 122.462 218.154 122.751 218.226C123.049 218.299 123.342 218.335 123.631 218.335C124.073 218.335 124.406 218.255 124.631 218.094C124.856 217.933 124.969 217.72 124.969 217.455C124.969 217.23 124.892 217.058 124.74 216.937C124.595 216.808 124.366 216.712 124.053 216.648L122.932 216.419C122.434 216.306 122.056 216.122 121.799 215.865C121.55 215.599 121.426 215.262 121.426 214.852C121.426 214.491 121.522 214.177 121.715 213.912C121.916 213.639 122.193 213.43 122.546 213.286C122.9 213.141 123.306 213.069 123.764 213.069C124.117 213.069 124.45 213.117 124.764 213.213C125.085 213.302 125.374 213.438 125.631 213.623C125.728 213.679 125.788 213.752 125.812 213.84C125.844 213.92 125.848 214.005 125.824 214.093C125.808 214.173 125.772 214.242 125.716 214.298C125.66 214.354 125.587 214.39 125.499 214.406C125.411 214.414 125.314 214.39 125.21 214.334C124.977 214.173 124.736 214.061 124.487 213.997C124.246 213.924 124.005 213.888 123.764 213.888C123.33 213.888 123 213.973 122.775 214.141C122.559 214.31 122.45 214.531 122.45 214.804C122.45 215.013 122.514 215.186 122.643 215.322C122.779 215.459 122.992 215.559 123.282 215.624L124.402 215.852C124.924 215.965 125.318 216.146 125.583 216.395C125.848 216.636 125.981 216.965 125.981 217.383C125.981 217.929 125.764 218.363 125.33 218.684C124.904 218.998 124.33 219.154 123.607 219.154ZM129.254 219.13C129.102 219.13 128.969 219.094 128.857 219.022C128.744 218.941 128.656 218.813 128.591 218.636L126.796 213.852C126.74 213.699 126.724 213.567 126.748 213.454C126.772 213.342 126.828 213.254 126.916 213.189C127.005 213.125 127.121 213.093 127.266 213.093C127.402 213.093 127.511 213.125 127.591 213.189C127.672 213.254 127.74 213.37 127.796 213.539L129.435 218.166H129.146L130.833 213.515C130.889 213.37 130.961 213.266 131.05 213.201C131.146 213.129 131.263 213.093 131.399 213.093C131.544 213.093 131.664 213.129 131.761 213.201C131.857 213.266 131.925 213.37 131.966 213.515L133.629 218.166H133.351L135.014 213.515C135.071 213.354 135.143 213.246 135.231 213.189C135.32 213.125 135.428 213.093 135.557 213.093C135.701 213.093 135.81 213.129 135.882 213.201C135.954 213.274 135.995 213.37 136.003 213.491C136.019 213.603 136.003 213.724 135.954 213.852L134.159 218.636C134.103 218.805 134.014 218.929 133.894 219.01C133.781 219.09 133.649 219.13 133.496 219.13C133.343 219.13 133.207 219.09 133.086 219.01C132.974 218.929 132.886 218.805 132.821 218.636L131.098 213.912H131.652L129.929 218.636C129.865 218.805 129.776 218.929 129.664 219.01C129.551 219.09 129.415 219.13 129.254 219.13ZM139.617 219.154C139.039 219.154 138.536 219.03 138.111 218.781C137.685 218.532 137.356 218.178 137.123 217.72C136.89 217.262 136.773 216.724 136.773 216.106C136.773 215.64 136.837 215.222 136.966 214.852C137.102 214.475 137.295 214.153 137.544 213.888C137.793 213.623 138.091 213.422 138.436 213.286C138.79 213.141 139.183 213.069 139.617 213.069C140.195 213.069 140.698 213.193 141.123 213.442C141.549 213.691 141.879 214.045 142.112 214.503C142.344 214.953 142.461 215.487 142.461 216.106C142.461 216.572 142.393 216.993 142.256 217.371C142.128 217.748 141.939 218.07 141.69 218.335C141.441 218.6 141.139 218.805 140.786 218.949C140.44 219.086 140.051 219.154 139.617 219.154ZM139.617 218.287C139.971 218.287 140.276 218.202 140.533 218.034C140.798 217.865 140.999 217.62 141.135 217.299C141.28 216.977 141.352 216.58 141.352 216.106C141.352 215.399 141.196 214.86 140.882 214.491C140.569 214.121 140.147 213.936 139.617 213.936C139.272 213.936 138.966 214.021 138.701 214.189C138.444 214.35 138.243 214.591 138.099 214.913C137.954 215.234 137.882 215.632 137.882 216.106C137.882 216.813 138.038 217.355 138.352 217.732C138.673 218.102 139.095 218.287 139.617 218.287ZM144.312 219.13C144.127 219.13 143.986 219.082 143.89 218.986C143.793 218.889 143.745 218.749 143.745 218.564V213.647C143.745 213.462 143.793 213.326 143.89 213.237C143.986 213.141 144.119 213.093 144.288 213.093C144.456 213.093 144.585 213.141 144.673 213.237C144.77 213.326 144.818 213.462 144.818 213.647V214.575H144.697C144.826 214.093 145.067 213.728 145.42 213.479C145.774 213.229 146.22 213.089 146.758 213.057C146.886 213.049 146.991 213.081 147.071 213.153C147.152 213.217 147.196 213.33 147.204 213.491C147.212 213.643 147.176 213.768 147.095 213.864C147.015 213.952 146.89 214.005 146.722 214.021L146.505 214.033C145.975 214.089 145.565 214.262 145.276 214.551C144.994 214.84 144.854 215.238 144.854 215.744V218.564C144.854 218.749 144.806 218.889 144.709 218.986C144.621 219.082 144.488 219.13 144.312 219.13ZM150.185 219.154C149.671 219.154 149.217 219.034 148.823 218.793C148.438 218.544 148.136 218.19 147.92 217.732C147.703 217.266 147.594 216.724 147.594 216.106C147.594 215.479 147.699 214.941 147.907 214.491C148.124 214.033 148.426 213.683 148.811 213.442C149.205 213.193 149.663 213.069 150.185 213.069C150.707 213.069 151.157 213.201 151.535 213.466C151.912 213.724 152.165 214.069 152.294 214.503H152.161V211.02C152.161 210.835 152.206 210.699 152.294 210.61C152.39 210.514 152.527 210.466 152.704 210.466C152.88 210.466 153.017 210.514 153.113 210.61C153.21 210.699 153.258 210.835 153.258 211.02V218.564C153.258 218.749 153.21 218.889 153.113 218.986C153.017 219.082 152.88 219.13 152.704 219.13C152.535 219.13 152.402 219.082 152.306 218.986C152.21 218.889 152.161 218.749 152.161 218.564V217.467L152.294 217.684C152.173 218.134 151.92 218.492 151.535 218.757C151.157 219.022 150.707 219.154 150.185 219.154ZM150.438 218.287C150.792 218.287 151.097 218.202 151.354 218.034C151.619 217.865 151.82 217.62 151.957 217.299C152.101 216.977 152.173 216.58 152.173 216.106C152.173 215.399 152.017 214.86 151.703 214.491C151.39 214.121 150.968 213.936 150.438 213.936C150.093 213.936 149.787 214.021 149.522 214.189C149.265 214.35 149.064 214.591 148.92 214.913C148.775 215.234 148.703 215.632 148.703 216.106C148.703 216.813 148.859 217.355 149.173 217.732C149.494 218.102 149.916 218.287 150.438 218.287Z" fill="#393333"/>
<rect x="55.636" y="234.096" width="94.5869" height="16.5696" rx="8.28481" fill="#F3F1FF"/>
<path d="M63.3736 243.941L63.9915 242.817L64.6211 243.941C64.6485 243.992 64.6799 244.035 64.7152 244.07C64.7545 244.101 64.7937 244.125 64.8329 244.141C64.8721 244.156 64.9114 244.164 64.9506 244.164C65.0526 244.164 65.1428 244.125 65.2213 244.047C65.2997 243.968 65.3389 243.874 65.3389 243.764C65.3389 243.725 65.3331 243.686 65.3213 243.646C65.3095 243.603 65.2919 243.562 65.2683 243.523L64.6211 242.481L65.9568 242.523C66.0823 242.523 66.1784 242.485 66.2451 242.411C66.3157 242.336 66.351 242.248 66.351 242.146C66.351 242.044 66.3157 241.956 66.2451 241.881C66.1784 241.807 66.0823 241.769 65.9568 241.769L64.6328 241.816L65.2977 240.734C65.3174 240.698 65.3311 240.663 65.3389 240.628C65.3507 240.593 65.3566 240.557 65.3566 240.522C65.3566 240.451 65.3389 240.385 65.3036 240.322C65.2683 240.259 65.2213 240.21 65.1624 240.175C65.1075 240.139 65.0467 240.122 64.98 240.122C64.9172 240.122 64.8545 240.141 64.7917 240.181C64.729 240.22 64.674 240.279 64.627 240.357L63.9915 241.505L63.356 240.34C63.3482 240.324 63.3383 240.308 63.3266 240.292C63.3148 240.277 63.303 240.263 63.2913 240.251C63.2834 240.24 63.2736 240.23 63.2619 240.222C63.2501 240.21 63.2383 240.2 63.2265 240.192C63.2148 240.181 63.201 240.173 63.1854 240.169C63.1736 240.161 63.1599 240.155 63.1442 240.151C63.1324 240.143 63.1206 240.139 63.1089 240.139C63.0971 240.136 63.0834 240.134 63.0677 240.134C63.0559 240.13 63.0422 240.128 63.0265 240.128C62.9245 240.128 62.8323 240.167 62.7499 240.245C62.6715 240.32 62.6323 240.412 62.6323 240.522C62.6323 240.6 62.6558 240.677 62.7029 240.751L63.356 241.816L62.0497 241.769C61.9674 241.769 61.8948 241.789 61.832 241.828C61.7732 241.864 61.73 241.909 61.7026 241.964C61.6751 242.018 61.6614 242.079 61.6614 242.146C61.6614 242.248 61.6947 242.336 61.7614 242.411C61.832 242.485 61.9281 242.523 62.0497 242.523L63.3736 242.481L62.7029 243.558C62.6872 243.582 62.6734 243.607 62.6617 243.635C62.6538 243.658 62.6479 243.682 62.644 243.705C62.6401 243.725 62.6381 243.746 62.6381 243.77C62.6381 243.88 62.6774 243.974 62.7558 244.052C62.8382 244.127 62.9304 244.164 63.0324 244.164C63.0991 244.164 63.1618 244.147 63.2207 244.111C63.2795 244.076 63.3305 244.019 63.3736 243.941Z" fill="#FF007A"/>
<path d="M76.3483 243.941L76.9661 242.817L77.5957 243.941C77.6231 243.992 77.6545 244.035 77.6898 244.07C77.7291 244.101 77.7683 244.125 77.8075 244.141C77.8467 244.156 77.886 244.164 77.9252 244.164C78.0272 244.164 78.1174 244.125 78.1959 244.047C78.2743 243.968 78.3135 243.874 78.3135 243.764C78.3135 243.725 78.3077 243.686 78.2959 243.646C78.2841 243.603 78.2665 243.562 78.2429 243.523L77.5957 242.481L78.9314 242.523C79.0569 242.523 79.153 242.485 79.2197 242.411C79.2903 242.336 79.3256 242.248 79.3256 242.146C79.3256 242.044 79.2903 241.956 79.2197 241.881C79.153 241.807 79.0569 241.769 78.9314 241.769L77.6075 241.816L78.2724 240.734C78.292 240.698 78.3057 240.663 78.3135 240.628C78.3253 240.593 78.3312 240.557 78.3312 240.522C78.3312 240.451 78.3135 240.385 78.2782 240.322C78.2429 240.259 78.1959 240.21 78.137 240.175C78.0821 240.139 78.0213 240.122 77.9546 240.122C77.8919 240.122 77.8291 240.141 77.7663 240.181C77.7036 240.22 77.6486 240.279 77.6016 240.357L76.9661 241.505L76.3306 240.34C76.3228 240.324 76.313 240.308 76.3012 240.292C76.2894 240.277 76.2776 240.263 76.2659 240.251C76.258 240.24 76.2482 240.23 76.2365 240.222C76.2247 240.21 76.2129 240.2 76.2012 240.192C76.1894 240.181 76.1757 240.173 76.16 240.169C76.1482 240.161 76.1345 240.155 76.1188 240.151C76.107 240.143 76.0952 240.139 76.0835 240.139C76.0717 240.136 76.058 240.134 76.0423 240.134C76.0305 240.13 76.0168 240.128 76.0011 240.128C75.8991 240.128 75.8069 240.167 75.7245 240.245C75.6461 240.32 75.6069 240.412 75.6069 240.522C75.6069 240.6 75.6304 240.677 75.6775 240.751L76.3306 241.816L75.0243 241.769C74.942 241.769 74.8694 241.789 74.8066 241.828C74.7478 241.864 74.7046 241.909 74.6772 241.964C74.6497 242.018 74.636 242.079 74.636 242.146C74.636 242.248 74.6693 242.336 74.736 242.411C74.8066 242.485 74.9027 242.523 75.0243 242.523L76.3483 242.481L75.6775 243.558C75.6618 243.582 75.6481 243.607 75.6363 243.635C75.6284 243.658 75.6226 243.682 75.6186 243.705C75.6147 243.725 75.6127 243.746 75.6127 243.77C75.6127 243.88 75.652 243.974 75.7304 244.052C75.8128 244.127 75.905 244.164 76.007 244.164C76.0737 244.164 76.1364 244.147 76.1953 244.111C76.2541 244.076 76.3051 244.019 76.3483 243.941Z" fill="#FF007A"/>
<path d="M89.3226 243.941L89.9405 242.817L90.5701 243.941C90.5975 243.992 90.6289 244.035 90.6642 244.07C90.7034 244.101 90.7427 244.125 90.7819 244.141C90.8211 244.156 90.8603 244.164 90.8996 244.164C91.0016 244.164 91.0918 244.125 91.1702 244.047C91.2487 243.968 91.2879 243.874 91.2879 243.764C91.2879 243.725 91.282 243.686 91.2703 243.646C91.2585 243.603 91.2408 243.562 91.2173 243.523L90.5701 242.481L91.9057 242.523C92.0313 242.523 92.1274 242.485 92.1941 242.411C92.2647 242.336 92.3 242.248 92.3 242.146C92.3 242.044 92.2647 241.956 92.1941 241.881C92.1274 241.807 92.0313 241.769 91.9057 241.769L90.5818 241.816L91.2467 240.734C91.2663 240.698 91.2801 240.663 91.2879 240.628C91.2997 240.593 91.3056 240.557 91.3056 240.522C91.3056 240.451 91.2879 240.385 91.2526 240.322C91.2173 240.259 91.1702 240.21 91.1114 240.175C91.0565 240.139 90.9957 240.122 90.929 240.122C90.8662 240.122 90.8035 240.141 90.7407 240.181C90.6779 240.22 90.623 240.279 90.5759 240.357L89.9405 241.505L89.305 240.34C89.2971 240.324 89.2873 240.308 89.2756 240.292C89.2638 240.277 89.252 240.263 89.2402 240.251C89.2324 240.24 89.2226 240.23 89.2108 240.222C89.1991 240.21 89.1873 240.2 89.1755 240.192C89.1638 240.181 89.15 240.173 89.1343 240.169C89.1226 240.161 89.1088 240.155 89.0931 240.151C89.0814 240.143 89.0696 240.139 89.0578 240.139C89.0461 240.136 89.0323 240.134 89.0167 240.134C89.0049 240.13 88.9912 240.128 88.9755 240.128C88.8735 240.128 88.7813 240.167 88.6989 240.245C88.6205 240.32 88.5812 240.412 88.5812 240.522C88.5812 240.6 88.6048 240.677 88.6518 240.751L89.305 241.816L87.9987 241.769C87.9163 241.769 87.8438 241.789 87.781 241.828C87.7221 241.864 87.679 241.909 87.6515 241.964C87.6241 242.018 87.6104 242.079 87.6104 242.146C87.6104 242.248 87.6437 242.336 87.7104 242.411C87.781 242.485 87.8771 242.523 87.9987 242.523L89.3226 242.481L88.6518 243.558C88.6361 243.582 88.6224 243.607 88.6106 243.635C88.6028 243.658 88.5969 243.682 88.593 243.705C88.5891 243.725 88.5871 243.746 88.5871 243.77C88.5871 243.88 88.6263 243.974 88.7048 244.052C88.7872 244.127 88.8794 244.164 88.9813 244.164C89.048 244.164 89.1108 244.147 89.1696 244.111C89.2285 244.076 89.2795 244.019 89.3226 243.941Z" fill="#FF007A"/>
<path d="M102.297 243.941L102.915 242.817L103.544 243.941C103.572 243.992 103.603 244.035 103.639 244.07C103.678 244.101 103.717 244.125 103.756 244.141C103.795 244.156 103.835 244.164 103.874 244.164C103.976 244.164 104.066 244.125 104.145 244.047C104.223 243.968 104.262 243.874 104.262 243.764C104.262 243.725 104.256 243.686 104.245 243.646C104.233 243.603 104.215 243.562 104.192 243.523L103.544 242.481L104.88 242.523C105.006 242.523 105.102 242.485 105.168 242.411C105.239 242.336 105.274 242.248 105.274 242.146C105.274 242.044 105.239 241.956 105.168 241.881C105.102 241.807 105.006 241.769 104.88 241.769L103.556 241.816L104.221 240.734C104.241 240.698 104.254 240.663 104.262 240.628C104.274 240.593 104.28 240.557 104.28 240.522C104.28 240.451 104.262 240.385 104.227 240.322C104.192 240.259 104.145 240.21 104.086 240.175C104.031 240.139 103.97 240.122 103.903 240.122C103.841 240.122 103.778 240.141 103.715 240.181C103.652 240.22 103.597 240.279 103.55 240.357L102.915 241.505L102.279 240.34C102.271 240.324 102.262 240.308 102.25 240.292C102.238 240.277 102.226 240.263 102.215 240.251C102.207 240.24 102.197 240.23 102.185 240.222C102.173 240.21 102.162 240.2 102.15 240.192C102.138 240.181 102.124 240.173 102.109 240.169C102.097 240.161 102.083 240.155 102.068 240.151C102.056 240.143 102.044 240.139 102.032 240.139C102.02 240.136 102.007 240.134 101.991 240.134C101.979 240.13 101.966 240.128 101.95 240.128C101.848 240.128 101.756 240.167 101.673 240.245C101.595 240.32 101.556 240.412 101.556 240.522C101.556 240.6 101.579 240.677 101.626 240.751L102.279 241.816L100.973 241.769C100.891 241.769 100.818 241.789 100.755 241.828C100.697 241.864 100.653 241.909 100.626 241.964C100.598 242.018 100.585 242.079 100.585 242.146C100.585 242.248 100.618 242.336 100.685 242.411C100.755 242.485 100.851 242.523 100.973 242.523L102.297 242.481L101.626 243.558C101.611 243.582 101.597 243.607 101.585 243.635C101.577 243.658 101.571 243.682 101.567 243.705C101.563 243.725 101.561 243.746 101.561 243.77C101.561 243.88 101.601 243.974 101.679 244.052C101.762 244.127 101.854 244.164 101.956 244.164C102.022 244.164 102.085 244.147 102.144 244.111C102.203 244.076 102.254 244.019 102.297 243.941Z" fill="#FF007A"/>
<path d="M115.271 243.941L115.889 242.817L116.519 243.941C116.546 243.992 116.578 244.035 116.613 244.07C116.652 244.101 116.691 244.125 116.731 244.141C116.77 244.156 116.809 244.164 116.848 244.164C116.95 244.164 117.041 244.125 117.119 244.047C117.197 243.968 117.237 243.874 117.237 243.764C117.237 243.725 117.231 243.686 117.219 243.646C117.207 243.603 117.19 243.562 117.166 243.523L116.519 242.481L117.854 242.523C117.98 242.523 118.076 242.485 118.143 242.411C118.213 242.336 118.249 242.248 118.249 242.146C118.249 242.044 118.213 241.956 118.143 241.881C118.076 241.807 117.98 241.769 117.854 241.769L116.531 241.816L117.195 240.734C117.215 240.698 117.229 240.663 117.237 240.628C117.248 240.593 117.254 240.557 117.254 240.522C117.254 240.451 117.237 240.385 117.201 240.322C117.166 240.259 117.119 240.21 117.06 240.175C117.005 240.139 116.944 240.122 116.878 240.122C116.815 240.122 116.752 240.141 116.689 240.181C116.627 240.22 116.572 240.279 116.525 240.357L115.889 241.505L115.254 240.34C115.246 240.324 115.236 240.308 115.224 240.292C115.213 240.277 115.201 240.263 115.189 240.251C115.181 240.24 115.171 240.23 115.16 240.222C115.148 240.21 115.136 240.2 115.124 240.192C115.112 240.181 115.099 240.173 115.083 240.169C115.071 240.161 115.058 240.155 115.042 240.151C115.03 240.143 115.018 240.139 115.007 240.139C114.995 240.136 114.981 240.134 114.965 240.134C114.954 240.13 114.94 240.128 114.924 240.128C114.822 240.128 114.73 240.167 114.648 240.245C114.569 240.32 114.53 240.412 114.53 240.522C114.53 240.6 114.553 240.677 114.601 240.751L115.254 241.816L113.947 241.769C113.865 241.769 113.792 241.789 113.73 241.828C113.671 241.864 113.628 241.909 113.6 241.964C113.573 242.018 113.559 242.079 113.559 242.146C113.559 242.248 113.592 242.336 113.659 242.411C113.73 242.485 113.826 242.523 113.947 242.523L115.271 242.481L114.601 243.558C114.585 243.582 114.571 243.607 114.559 243.635C114.552 243.658 114.546 243.682 114.542 243.705C114.538 243.725 114.536 243.746 114.536 243.77C114.536 243.88 114.575 243.974 114.654 244.052C114.736 244.127 114.828 244.164 114.93 244.164C114.997 244.164 115.06 244.147 115.118 244.111C115.177 244.076 115.228 244.019 115.271 243.941Z" fill="#FF007A"/>
<path d="M128.246 243.941L128.864 242.817L129.493 243.941C129.521 243.992 129.552 244.035 129.588 244.07C129.627 244.101 129.666 244.125 129.705 244.141C129.744 244.156 129.784 244.164 129.823 244.164C129.925 244.164 130.015 244.125 130.094 244.047C130.172 243.968 130.211 243.874 130.211 243.764C130.211 243.725 130.205 243.686 130.194 243.646C130.182 243.603 130.164 243.562 130.141 243.523L129.493 242.481L130.829 242.523C130.955 242.523 131.051 242.485 131.117 242.411C131.188 242.336 131.223 242.248 131.223 242.146C131.223 242.044 131.188 241.956 131.117 241.881C131.051 241.807 130.955 241.769 130.829 241.769L129.505 241.816L130.17 240.734C130.19 240.698 130.203 240.663 130.211 240.628C130.223 240.593 130.229 240.557 130.229 240.522C130.229 240.451 130.211 240.385 130.176 240.322C130.141 240.259 130.094 240.21 130.035 240.175C129.98 240.139 129.919 240.122 129.852 240.122C129.79 240.122 129.727 240.141 129.664 240.181C129.601 240.22 129.546 240.279 129.499 240.357L128.864 241.505L128.228 240.34C128.22 240.324 128.211 240.308 128.199 240.292C128.187 240.277 128.175 240.263 128.164 240.251C128.156 240.24 128.146 240.23 128.134 240.222C128.122 240.21 128.111 240.2 128.099 240.192C128.087 240.181 128.073 240.173 128.058 240.169C128.046 240.161 128.032 240.155 128.016 240.151C128.005 240.143 127.993 240.139 127.981 240.139C127.969 240.136 127.956 240.134 127.94 240.134C127.928 240.13 127.914 240.128 127.899 240.128C127.797 240.128 127.705 240.167 127.622 240.245C127.544 240.32 127.505 240.412 127.505 240.522C127.505 240.6 127.528 240.677 127.575 240.751L128.228 241.816L126.922 241.769C126.84 241.769 126.767 241.789 126.704 241.828C126.645 241.864 126.602 241.909 126.575 241.964C126.547 242.018 126.534 242.079 126.534 242.146C126.534 242.248 126.567 242.336 126.634 242.411C126.704 242.485 126.8 242.523 126.922 242.523L128.246 242.481L127.575 243.558C127.559 243.582 127.546 243.607 127.534 243.635C127.526 243.658 127.52 243.682 127.516 243.705C127.512 243.725 127.51 243.746 127.51 243.77C127.51 243.88 127.55 243.974 127.628 244.052C127.711 244.127 127.803 244.164 127.905 244.164C127.971 244.164 128.034 244.147 128.093 244.111C128.152 244.076 128.203 244.019 128.246 243.941Z" fill="#FF007A"/>
<path d="M141.22 243.941L141.838 242.817L142.468 243.941C142.495 243.992 142.527 244.035 142.562 244.07C142.601 244.101 142.64 244.125 142.68 244.141C142.719 244.156 142.758 244.164 142.797 244.164C142.899 244.164 142.989 244.125 143.068 244.047C143.146 243.968 143.186 243.874 143.186 243.764C143.186 243.725 143.18 243.686 143.168 243.646C143.156 243.603 143.139 243.562 143.115 243.523L142.468 242.481L143.803 242.523C143.929 242.523 144.025 242.485 144.092 242.411C144.162 242.336 144.198 242.248 144.198 242.146C144.198 242.044 144.162 241.956 144.092 241.881C144.025 241.807 143.929 241.769 143.803 241.769L142.48 241.816L143.144 240.734C143.164 240.698 143.178 240.663 143.186 240.628C143.197 240.593 143.203 240.557 143.203 240.522C143.203 240.451 143.186 240.385 143.15 240.322C143.115 240.259 143.068 240.21 143.009 240.175C142.954 240.139 142.893 240.122 142.827 240.122C142.764 240.122 142.701 240.141 142.638 240.181C142.576 240.22 142.521 240.279 142.474 240.357L141.838 241.505L141.203 240.34C141.195 240.324 141.185 240.308 141.173 240.292C141.161 240.277 141.15 240.263 141.138 240.251C141.13 240.24 141.12 240.23 141.109 240.222C141.097 240.21 141.085 240.2 141.073 240.192C141.061 240.181 141.048 240.173 141.032 240.169C141.02 240.161 141.007 240.155 140.991 240.151C140.979 240.143 140.967 240.139 140.956 240.139C140.944 240.136 140.93 240.134 140.914 240.134C140.903 240.13 140.889 240.128 140.873 240.128C140.771 240.128 140.679 240.167 140.597 240.245C140.518 240.32 140.479 240.412 140.479 240.522C140.479 240.6 140.502 240.677 140.55 240.751L141.203 241.816L139.896 241.769C139.814 241.769 139.741 241.789 139.679 241.828C139.62 241.864 139.577 241.909 139.549 241.964C139.522 242.018 139.508 242.079 139.508 242.146C139.508 242.248 139.541 242.336 139.608 242.411C139.679 242.485 139.775 242.523 139.896 242.523L141.22 242.481L140.55 243.558C140.534 243.582 140.52 243.607 140.508 243.635C140.501 243.658 140.495 243.682 140.491 243.705C140.487 243.725 140.485 243.746 140.485 243.77C140.485 243.88 140.524 243.974 140.602 244.052C140.685 244.127 140.777 244.164 140.879 244.164C140.946 244.164 141.009 244.147 141.067 244.111C141.126 244.076 141.177 244.019 141.22 243.941Z" fill="#FF007A"/>
<g filter="url(#filter1_d_50_954)">
<rect x="66.5474" y="262.717" width="77.1772" height="24.1013" rx="12.0506" fill="#FF007A"/>
<path d="M89.2628 278.267C89.062 278.267 88.9053 278.211 88.7928 278.099C88.6804 277.986 88.6241 277.829 88.6241 277.629V270.362C88.6241 270.153 88.6764 269.997 88.7808 269.892C88.8933 269.78 89.0499 269.723 89.2508 269.723C89.4516 269.723 89.6043 269.78 89.7087 269.892C89.8212 269.997 89.8774 270.153 89.8774 270.362V277.195H93.6131C93.7898 277.195 93.9264 277.243 94.0228 277.339C94.1192 277.428 94.1674 277.556 94.1674 277.725C94.1674 277.894 94.1192 278.026 94.0228 278.123C93.9264 278.219 93.7898 278.267 93.6131 278.267H89.2628ZM97.757 278.376C97.1625 278.376 96.6484 278.251 96.2145 278.002C95.7887 277.753 95.4553 277.4 95.2143 276.942C94.9733 276.484 94.8528 275.946 94.8528 275.327C94.8528 274.853 94.9211 274.431 95.0577 274.062C95.1942 273.692 95.3871 273.375 95.6361 273.11C95.8932 272.837 96.1985 272.632 96.5519 272.495C96.9135 272.35 97.3152 272.278 97.757 272.278C98.3435 272.278 98.8496 272.403 99.2754 272.652C99.7092 272.901 100.047 273.254 100.288 273.712C100.529 274.162 100.649 274.7 100.649 275.327C100.649 275.793 100.581 276.215 100.444 276.592C100.308 276.97 100.111 277.291 99.8538 277.556C99.6048 277.821 99.2995 278.026 98.938 278.171C98.5845 278.308 98.1908 278.376 97.757 278.376ZM97.757 277.436C98.0864 277.436 98.3756 277.356 98.6247 277.195C98.8737 277.034 99.0665 276.797 99.2031 276.484C99.3477 276.171 99.42 275.785 99.42 275.327C99.42 274.636 99.2674 274.114 98.9621 273.76C98.6568 273.407 98.2551 273.23 97.757 273.23C97.4196 273.23 97.1264 273.311 96.8773 273.471C96.6283 273.624 96.4314 273.857 96.2868 274.17C96.1503 274.483 96.082 274.869 96.082 275.327C96.082 276.01 96.2346 276.532 96.5399 276.894C96.8452 277.255 97.2509 277.436 97.757 277.436ZM104.8 280.545C104.366 280.545 103.944 280.501 103.534 280.412C103.133 280.324 102.767 280.179 102.438 279.979C102.317 279.914 102.237 279.834 102.197 279.738C102.157 279.649 102.145 279.557 102.161 279.46C102.185 279.364 102.229 279.28 102.293 279.207C102.357 279.135 102.434 279.087 102.522 279.063C102.619 279.039 102.719 279.055 102.823 279.111C103.177 279.304 103.51 279.432 103.824 279.496C104.145 279.569 104.442 279.605 104.715 279.605C105.278 279.605 105.7 279.46 105.981 279.171C106.262 278.89 106.402 278.472 106.402 277.918V276.689H106.511C106.39 277.131 106.137 277.48 105.752 277.737C105.366 277.994 104.92 278.123 104.414 278.123C103.884 278.123 103.422 278.002 103.028 277.761C102.635 277.512 102.329 277.171 102.112 276.737C101.896 276.295 101.787 275.781 101.787 275.194C101.787 274.753 101.847 274.355 101.968 274.001C102.096 273.648 102.273 273.343 102.498 273.086C102.731 272.828 103.008 272.632 103.33 272.495C103.659 272.35 104.02 272.278 104.414 272.278C104.928 272.278 105.374 272.407 105.752 272.664C106.137 272.921 106.386 273.27 106.499 273.712L106.378 273.917V272.917C106.378 272.716 106.431 272.563 106.535 272.459C106.648 272.354 106.796 272.302 106.981 272.302C107.174 272.302 107.322 272.354 107.427 272.459C107.531 272.563 107.583 272.716 107.583 272.917V277.773C107.583 278.689 107.346 279.38 106.872 279.846C106.398 280.312 105.708 280.545 104.8 280.545ZM104.703 277.171C105.057 277.171 105.358 277.09 105.607 276.93C105.856 276.769 106.049 276.54 106.186 276.243C106.322 275.946 106.39 275.596 106.39 275.194C106.39 274.592 106.238 274.114 105.933 273.76C105.635 273.407 105.226 273.23 104.703 273.23C104.358 273.23 104.061 273.311 103.812 273.471C103.563 273.632 103.366 273.861 103.221 274.158C103.085 274.447 103.016 274.793 103.016 275.194C103.016 275.805 103.169 276.287 103.474 276.64C103.779 276.994 104.189 277.171 104.703 277.171ZM113.469 278.352C113.268 278.352 113.112 278.295 112.999 278.183C112.895 278.071 112.843 277.914 112.843 277.713V270.326C112.843 270.117 112.895 269.96 112.999 269.856C113.112 269.744 113.268 269.687 113.469 269.687C113.67 269.687 113.823 269.744 113.927 269.856C114.04 269.96 114.096 270.117 114.096 270.326V277.713C114.096 277.914 114.044 278.071 113.939 278.183C113.835 278.295 113.678 278.352 113.469 278.352ZM116.658 278.352C116.465 278.352 116.316 278.299 116.212 278.195C116.107 278.083 116.055 277.93 116.055 277.737V272.917C116.055 272.716 116.107 272.563 116.212 272.459C116.316 272.354 116.461 272.302 116.646 272.302C116.838 272.302 116.983 272.354 117.079 272.459C117.184 272.563 117.236 272.716 117.236 272.917V273.857L117.103 273.64C117.28 273.19 117.557 272.853 117.935 272.628C118.313 272.395 118.746 272.278 119.236 272.278C119.702 272.278 120.088 272.367 120.393 272.543C120.707 272.712 120.94 272.973 121.092 273.327C121.245 273.672 121.321 274.11 121.321 274.64V277.737C121.321 277.93 121.269 278.083 121.165 278.195C121.06 278.299 120.911 278.352 120.719 278.352C120.518 278.352 120.365 278.299 120.261 278.195C120.156 278.083 120.104 277.93 120.104 277.737V274.712C120.104 274.206 120.004 273.837 119.803 273.604C119.61 273.371 119.305 273.254 118.887 273.254C118.397 273.254 118.003 273.407 117.706 273.712C117.417 274.017 117.272 274.427 117.272 274.941V277.737C117.272 278.147 117.067 278.352 116.658 278.352Z" fill="white"/>
</g>
</g>
<defs>
<filter id="filter0_d_50_954" x="0.822784" y="103.666" width="208.627" height="238.511" filterUnits="userSpaceOnUse" color-interpolation-filters="sRGB">
<feFlood flood-opacity="0" result="BackgroundImageFix"/>
<feColorMatrix in="SourceAlpha" type="matrix" values="0 0 0 0 0 0 0 0 0 0 0 0 0 0 0 0 0 0 127 0" result="hardAlpha"/>
<feOffset/>
<feGaussianBlur stdDeviation="21.0886"/>
<feComposite in2="hardAlpha" operator="out"/>
<feColorMatrix type="matrix" values="0 0 0 0 0 0 0 0 0 0 0 0 0 0 0 0 0 0 0.1 0"/>
<feBlend mode="normal" in2="BackgroundImageFix" result="effect1_dropShadow_50_954"/>
<feBlend mode="normal" in="SourceGraphic" in2="effect1_dropShadow_50_954" result="shape"/>
</filter>
<filter id="filter1_d_50_954" x="65.041" y="261.964" width="80.1899" height="27.114" filterUnits="userSpaceOnUse" color-interpolation-filters="sRGB">
<feFlood flood-opacity="0" result="BackgroundImageFix"/>
<feColorMatrix in="SourceAlpha" type="matrix" values="0 0 0 0 0 0 0 0 0 0 0 0 0 0 0 0 0 0 127 0" result="hardAlpha"/>
<feOffset dy="0.753165"/>
<feGaussianBlur stdDeviation="0.753165"/>
<feColorMatrix type="matrix" values="0 0 0 0 0.0627451 0 0 0 0 0.0941176 0 0 0 0 0.156863 0 0 0 0.05 0"/>
<feBlend mode="normal" in2="BackgroundImageFix" result="effect1_dropShadow_50_954"/>
<feBlend mode="normal" in="SourceGraphic" in2="effect1_dropShadow_50_954" result="shape"/>
</filter>
</defs>
</svg>
