<svg width="160" height="32" viewBox="0 0 160 32" fill="none" xmlns="http://www.w3.org/2000/svg">
<g clip-path="url(#clip0_2_1137)">
<path d="M48.0728 24.2381V7.9502H51.1442V21.4459H58.5901V24.2381H48.0728Z" fill="white"/>
<path d="M65.2215 24.5638C64.0736 24.5638 63.042 24.3311 62.1268 23.8657C61.2115 23.4004 60.4902 22.7256 59.9628 21.8414C59.4354 20.9572 59.1717 19.8946 59.1717 18.6536V18.2813C59.1717 17.0403 59.4354 15.9777 59.9628 15.0935C60.4902 14.2093 61.2115 13.5345 62.1268 13.0691C63.042 12.6038 64.0736 12.3711 65.2215 12.3711C66.3694 12.3711 67.401 12.6038 68.3162 13.0691C69.2314 13.5345 69.9527 14.2093 70.4802 15.0935C71.0076 15.9777 71.2713 17.0403 71.2713 18.2813V18.6536C71.2713 19.8946 71.0076 20.9572 70.4802 21.8414C69.9527 22.7256 69.2314 23.4004 68.3162 23.8657C67.401 24.3311 66.3694 24.5638 65.2215 24.5638ZM65.2215 21.9577C66.1212 21.9577 66.8658 21.6707 67.4553 21.0968C68.0447 20.5073 68.3395 19.6696 68.3395 18.5838V18.3511C68.3395 17.2652 68.0447 16.4353 67.4553 15.8613C66.8813 15.2719 66.1367 14.9771 65.2215 14.9771C64.3218 14.9771 63.5772 15.2719 62.9877 15.8613C62.3982 16.4353 62.1035 17.2652 62.1035 18.3511V18.5838C62.1035 19.6696 62.3982 20.5073 62.9877 21.0968C63.5772 21.6707 64.3218 21.9577 65.2215 21.9577Z" fill="white"/>
<path d="M72.372 18.514V18.1417C72.372 16.9317 72.6124 15.9001 73.0933 15.0469C73.5742 14.1783 74.2102 13.519 75.0013 13.0691C75.808 12.6038 76.6844 12.3711 77.6307 12.3711C78.6855 12.3711 79.4844 12.5572 80.0273 12.9295C80.5703 13.3018 80.9658 13.6896 81.214 14.0929H81.6329V12.6968H84.5182V26.2856C84.5182 27.0768 84.2855 27.705 83.8201 28.1704C83.3547 28.6513 82.7343 28.8917 81.9586 28.8917H74.2335V26.3322H80.9348C81.3692 26.3322 81.5863 26.0995 81.5863 25.6341V22.6325H81.1675C81.0124 22.8807 80.7952 23.1366 80.516 23.4004C80.2368 23.6485 79.8645 23.858 79.3991 24.0286C78.9337 24.1992 78.3443 24.2846 77.6307 24.2846C76.6844 24.2846 75.808 24.0596 75.0013 23.6098C74.2102 23.1444 73.5742 22.4851 73.0933 21.6319C72.6124 20.7633 72.372 19.7239 72.372 18.514ZM78.4684 21.725C79.3681 21.725 80.1204 21.438 80.7254 20.8641C81.3304 20.2901 81.6329 19.4835 81.6329 18.4442V18.2115C81.6329 17.1566 81.3304 16.35 80.7254 15.7915C80.1359 15.2176 79.3836 14.9306 78.4684 14.9306C77.5686 14.9306 76.8163 15.2176 76.2113 15.7915C75.6063 16.35 75.3038 17.1566 75.3038 18.2115V18.4442C75.3038 19.4835 75.6063 20.2901 76.2113 20.8641C76.8163 21.438 77.5686 21.725 78.4684 21.725Z" fill="white"/>
<path d="M92.213 24.5638C91.0651 24.5638 90.0335 24.3311 89.1182 23.8657C88.203 23.4004 87.4817 22.7256 86.9543 21.8414C86.4269 20.9572 86.1631 19.8946 86.1631 18.6536V18.2813C86.1631 17.0403 86.4269 15.9777 86.9543 15.0935C87.4817 14.2093 88.203 13.5345 89.1182 13.0691C90.0335 12.6038 91.0651 12.3711 92.213 12.3711C93.3609 12.3711 94.3924 12.6038 95.3077 13.0691C96.2229 13.5345 96.9442 14.2093 97.4717 15.0935C97.9991 15.9777 98.2628 17.0403 98.2628 18.2813V18.6536C98.2628 19.8946 97.9991 20.9572 97.4717 21.8414C96.9442 22.7256 96.2229 23.4004 95.3077 23.8657C94.3924 24.3311 93.3609 24.5638 92.213 24.5638ZM92.213 21.9577C93.1127 21.9577 93.8573 21.6707 94.4467 21.0968C95.0362 20.5073 95.3309 19.6696 95.3309 18.5838V18.3511C95.3309 17.2652 95.0362 16.4353 94.4467 15.8613C93.8728 15.2719 93.1282 14.9771 92.213 14.9771C91.3132 14.9771 90.5687 15.2719 89.9792 15.8613C89.3897 16.4353 89.095 17.2652 89.095 18.3511V18.5838C89.095 19.6696 89.3897 20.5073 89.9792 21.0968C90.5687 21.6707 91.3132 21.9577 92.213 21.9577Z" fill="white"/>
<path d="M99.9219 24.2382V12.697H102.854V24.2382H99.9219ZM101.388 11.3475C100.86 11.3475 100.411 11.1768 100.038 10.8355C99.6815 10.4943 99.5031 10.0444 99.5031 9.48599C99.5031 8.92755 99.6815 8.47769 100.038 8.13642C100.411 7.79515 100.86 7.62451 101.388 7.62451C101.931 7.62451 102.381 7.79515 102.737 8.13642C103.094 8.47769 103.273 8.92755 103.273 9.48599C103.273 10.0444 103.094 10.4943 102.737 10.8355C102.381 11.1768 101.931 11.3475 101.388 11.3475Z" fill="white"/>
<path d="M105.056 28.8917V12.6968H107.941V14.0929H108.36C108.623 13.6431 109.034 13.2475 109.593 12.9062C110.151 12.5495 110.95 12.3711 111.99 12.3711C112.92 12.3711 113.781 12.6038 114.572 13.0691C115.364 13.519 116 14.186 116.48 15.0702C116.961 15.9544 117.202 17.0248 117.202 18.2813V18.6536C117.202 19.9101 116.961 20.9804 116.48 21.8646C116 22.7488 115.364 23.4236 114.572 23.889C113.781 24.3388 112.92 24.5638 111.99 24.5638C111.292 24.5638 110.702 24.4785 110.221 24.3078C109.756 24.1527 109.376 23.951 109.081 23.7028C108.802 23.4391 108.577 23.1754 108.406 22.9117H107.987V28.8917H105.056ZM111.105 22.0042C112.021 22.0042 112.773 21.7173 113.362 21.1433C113.967 20.5538 114.27 19.7007 114.27 18.5838V18.3511C114.27 17.2342 113.967 16.3888 113.362 15.8148C112.757 15.2253 112.005 14.9306 111.105 14.9306C110.206 14.9306 109.453 15.2253 108.848 15.8148C108.243 16.3888 107.941 17.2342 107.941 18.3511V18.5838C107.941 19.7007 108.243 20.5538 108.848 21.1433C109.453 21.7173 110.206 22.0042 111.105 22.0042Z" fill="white"/>
<path d="M123.64 24.5638C122.135 24.5638 120.902 24.238 119.94 23.5865C118.979 22.935 118.397 22.0042 118.195 20.7943L120.894 20.0962C121.003 20.6392 121.181 21.0657 121.43 21.376C121.693 21.6862 122.011 21.9112 122.384 22.0508C122.771 22.1749 123.19 22.2369 123.64 22.2369C124.323 22.2369 124.827 22.1206 125.152 21.8879C125.478 21.6397 125.641 21.3372 125.641 20.9804C125.641 20.6236 125.486 20.3522 125.176 20.166C124.865 19.9644 124.369 19.8015 123.687 19.6774L123.035 19.561C122.228 19.4059 121.492 19.1965 120.825 18.9328C120.157 18.6536 119.622 18.2735 119.219 17.7926C118.816 17.3118 118.614 16.6913 118.614 15.9312C118.614 14.7832 119.033 13.9068 119.871 13.3018C120.708 12.6813 121.81 12.3711 123.175 12.3711C124.462 12.3711 125.533 12.658 126.386 13.232C127.239 13.806 127.797 14.5583 128.061 15.4891L125.339 16.3267C125.215 15.7373 124.959 15.3184 124.571 15.0702C124.198 14.822 123.733 14.6979 123.175 14.6979C122.616 14.6979 122.19 14.7988 121.895 15.0004C121.6 15.1866 121.453 15.4503 121.453 15.7915C121.453 16.1638 121.608 16.4431 121.918 16.6292C122.228 16.7998 122.647 16.9317 123.175 17.0248L123.826 17.1411C124.695 17.2962 125.478 17.5057 126.176 17.7694C126.89 18.0176 127.448 18.3821 127.852 18.863C128.27 19.3284 128.48 19.9644 128.48 20.771C128.48 21.981 128.038 22.9195 127.154 23.5865C126.285 24.238 125.114 24.5638 123.64 24.5638Z" fill="white"/>
<path d="M134.4 24.4244C133.5 24.4244 132.709 24.2227 132.026 23.8194C131.359 23.4006 130.84 22.8266 130.467 22.0975C130.095 21.3684 129.909 20.5308 129.909 19.5845V12.697H132.841V19.3518C132.841 20.2205 133.05 20.872 133.469 21.3064C133.903 21.7407 134.516 21.9579 135.307 21.9579C136.207 21.9579 136.905 21.6632 137.401 21.0737C137.898 20.4687 138.146 19.631 138.146 18.5607V12.697H141.078V24.2382H138.192V22.7258H137.774C137.588 23.1136 137.238 23.4936 136.727 23.8659C136.215 24.2382 135.439 24.4244 134.4 24.4244Z" fill="white"/>
<path d="M143.293 24.238V12.6968H146.178V13.9533H146.597C146.799 13.5655 147.133 13.232 147.598 12.9528C148.063 12.658 148.676 12.5107 149.436 12.5107C150.258 12.5107 150.918 12.6736 151.414 12.9993C151.91 13.3096 152.29 13.7206 152.554 14.2326H152.973C153.237 13.7362 153.609 13.3251 154.09 12.9993C154.571 12.6736 155.253 12.5107 156.137 12.5107C156.851 12.5107 157.495 12.6658 158.069 12.9761C158.658 13.2708 159.124 13.7284 159.465 14.3489C159.822 14.9539 160 15.7217 160 16.6525V24.238H157.068V16.8619C157.068 16.2259 156.905 15.7528 156.58 15.4425C156.254 15.1168 155.796 14.9539 155.207 14.9539C154.54 14.9539 154.02 15.171 153.648 15.6054C153.291 16.0242 153.113 16.6292 153.113 17.4203V24.238H150.181V16.8619C150.181 16.2259 150.018 15.7528 149.692 15.4425C149.366 15.1168 148.909 14.9539 148.319 14.9539C147.652 14.9539 147.132 15.171 146.76 15.6054C146.403 16.0242 146.225 16.6292 146.225 17.4203V24.238H143.293Z" fill="white"/>
<path d="M38.7809 15.5127C38.7809 11.3985 37.1465 7.45275 34.2373 4.54356C31.3281 1.63437 27.3824 5.39515e-07 23.2682 0C19.154 -5.39514e-07 15.2083 1.63437 12.2991 4.54356C9.38986 7.45275 7.75549 11.3985 7.75549 15.5127H12.6033C14.2097 15.5127 15.4625 14.1665 16.0509 12.6717C16.4372 11.6903 17.0234 10.7884 17.7836 10.0281C19.2382 8.57352 21.2111 7.75634 23.2682 7.75634C25.3253 7.75634 27.2982 8.57352 28.7528 10.0281C30.2074 11.4827 31.0245 13.4556 31.0245 15.5127H38.7809Z" fill="url(#paint0_linear_2_1137)"/>
<path d="M29.8445 21.4491C30.6241 19.567 31.0254 17.5498 31.0254 15.5127H38.7809C38.7809 24.0801 31.8356 31.0253 23.2682 31.0253C21.9265 31.0253 20.6245 30.855 19.3829 30.5348C20.0854 30.3538 20.7759 30.1233 21.4491 29.8445C23.3312 29.0649 25.0413 27.9223 26.4818 26.4818C27.9223 25.0413 29.065 23.3312 29.8445 21.4491Z" fill="#FBCF8E"/>
<path d="M0 15.5127C-2.91433e-07 17.5499 0.401247 19.5671 1.18083 21.4492C1.96042 23.3313 3.10307 25.0414 4.54356 26.4819C5.98404 27.9223 7.69415 29.065 9.57623 29.8446C11.4583 30.6242 13.4755 31.0254 15.5127 31.0254C17.5498 31.0254 19.567 30.6242 21.4491 29.8446C23.3312 29.065 25.0413 27.9223 26.4818 26.4819C27.9223 25.0414 29.0649 23.3313 29.8445 21.4492C30.6241 19.5671 31.0254 17.5499 31.0254 15.5127H26.1776C24.5712 15.5127 23.3184 16.8589 22.73 18.3536C22.7133 18.3962 22.6961 18.4386 22.6786 18.481C22.2888 19.422 21.7175 20.2771 20.9972 20.9973C20.277 21.7175 19.4219 22.2889 18.4809 22.6787C17.5399 23.0685 16.5313 23.2691 15.5127 23.2691C14.4941 23.2691 13.4855 23.0685 12.5445 22.6787C11.6034 22.2889 10.7484 21.7175 10.0281 20.9973C9.30787 20.2771 8.73655 19.422 8.34676 18.481C7.95696 17.5399 7.75634 16.5313 7.75634 15.5127H0Z" fill="url(#paint1_linear_2_1137)"/>
<path d="M0.00158691 15.5127C0.00158691 6.94524 6.94683 0 15.5142 0C16.8556 0 18.1572 0.170246 19.3987 0.490323C16.7348 1.17657 14.2774 2.56535 12.2991 4.54357C9.38992 7.45273 7.75557 11.3985 7.75557 15.5127H0.00158691Z" fill="#73E5E2"/>
</g>
<defs>
<linearGradient id="paint0_linear_2_1137" x1="38.7809" y1="7.75634" x2="7.75549" y2="7.75634" gradientUnits="userSpaceOnUse">
<stop stop-color="#73E5E2"/>
<stop offset="1" stop-color="#394F87"/>
</linearGradient>
<linearGradient id="paint1_linear_2_1137" x1="1.01712e-06" y1="23.2691" x2="31.0254" y2="23.2691" gradientUnits="userSpaceOnUse">
<stop stop-color="#FBDC8E"/>
<stop offset="1" stop-color="#FB958E"/>
</linearGradient>
<clipPath id="clip0_2_1137">
<rect width="160" height="32" fill="white"/>
</clipPath>
</defs>
</svg>
