<svg xmlns="http://www.w3.org/2000/svg" width="113" height="19" fill="none"><g fill="#42A8DF" clip-path="url(#a)"><path d="M9.438 1.316c.33-.784 1.454-.784 1.784 0l1.948 4.627c.14.33.454.556.815.585l5.057.4c.857.068 1.204 1.125.551 1.677l-3.852 3.26a.948.948 0 0 0-.311.947l1.177 4.874c.199.826-.71 1.48-1.444 1.037l-4.33-2.613a.976.976 0 0 0-1.007 0l-4.329 2.613c-.733.442-1.643-.21-1.443-1.037l1.177-4.874a.948.948 0 0 0-.312-.947l-3.852-3.26c-.653-.552-.306-1.609.551-1.677l5.057-.4a.965.965 0 0 0 .815-.585l1.948-4.627ZM32.484 1.316c.33-.784 1.454-.784 1.784 0l1.948 4.627c.14.33.454.556.815.585l5.057.4c.856.068 1.204 1.125.551 1.677l-3.853 3.26a.948.948 0 0 0-.31.947l1.176 4.874c.2.826-.71 1.48-1.443 1.037l-4.33-2.613a.976.976 0 0 0-1.007 0l-4.33 2.613c-.733.442-1.642-.21-1.443-1.037l1.177-4.874a.948.948 0 0 0-.31-.947l-3.854-3.26c-.652-.552-.305-1.609.552-1.677l5.056-.4a.966.966 0 0 0 .816-.585l1.948-4.627ZM55.53 1.316c.33-.784 1.454-.784 1.784 0l1.948 4.627c.139.33.454.556.815.585l5.056.4c.857.068 1.205 1.125.552 1.677l-3.853 3.26a.948.948 0 0 0-.311.947l1.177 4.874c.2.826-.71 1.48-1.444 1.037l-4.329-2.613a.976.976 0 0 0-1.007 0l-4.33 2.613c-.733.442-1.642-.21-1.443-1.037l1.177-4.874a.948.948 0 0 0-.311-.947l-3.853-3.26c-.653-.552-.305-1.609.551-1.677l5.057-.4a.966.966 0 0 0 .815-.585l1.948-4.627ZM78.575 1.316c.33-.784 1.454-.784 1.784 0l1.948 4.627c.14.33.454.557.815.585l5.057.4c.857.069 1.204 1.125.551 1.677l-3.852 3.26a.948.948 0 0 0-.311.947l1.177 4.875c.199.826-.71 1.479-1.444 1.036l-4.33-2.612a.976.976 0 0 0-1.007 0l-4.329 2.612c-.733.443-1.643-.21-1.443-1.036l1.177-4.875a.948.948 0 0 0-.312-.947l-3.852-3.26c-.653-.552-.306-1.608.551-1.676l5.057-.4a.965.965 0 0 0 .815-.586l1.948-4.627ZM101.621 1.316c.33-.784 1.454-.784 1.784 0l1.948 4.627c.139.33.454.556.815.585l5.057.4c.857.068 1.204 1.125.551 1.677l-3.852 3.26a.947.947 0 0 0-.312.947l1.177 4.874c.2.826-.71 1.48-1.443 1.037l-4.329-2.613a.977.977 0 0 0-1.008 0l-4.329 2.613c-.734.442-1.643-.21-1.444-1.037l1.177-4.874a.948.948 0 0 0-.31-.947l-3.853-3.26c-.653-.552-.306-1.609.55-1.677l5.058-.4a.966.966 0 0 0 .815-.585l1.948-4.627Z"/></g><defs><clipPath id="a"><path fill="#fff" d="M.728.728h111.388v18.138H.728z"/></clipPath></defs></svg>