<svg width="359" height="313" viewBox="0 0 359 313" fill="none" xmlns="http://www.w3.org/2000/svg">
<rect x="52.9048" width="257.612" height="192.967" rx="3.01266" fill="#F3F1FF"/>
<rect x="64.4839" y="32.1619" width="234.456" height="150.086" rx="3.01266" fill="white"/>
<rect x="76.0613" y="42.8821" width="211.3" height="128.645" rx="3.01266" fill="#F3F1FF"/>
<rect x="87.6385" y="53.6028" width="58.614" height="5.36021" rx="2.6801" fill="white"/>
<rect x="87.6383" y="64.3223" width="58.614" height="5.36021" rx="2.6801" fill="white"/>
<rect x="87.6383" y="75.043" width="37.6287" height="5.36021" rx="2.6801" fill="white"/>
<rect x="146.977" y="134.006" width="61.0063" height="6.02532" rx="3.01266" fill="white"/>
<rect x="146.978" y="146.056" width="61.0063" height="6.02532" rx="3.01266" fill="white"/>
<rect x="146.978" y="158.107" width="39.1646" height="6.02532" rx="3.01266" fill="white"/>
<rect x="220.035" y="134.006" width="61.0063" height="6.02532" rx="3.01266" fill="white"/>
<rect x="220.035" y="146.057" width="61.0063" height="6.02532" rx="3.01266" fill="white"/>
<rect x="220.035" y="158.106" width="39.1646" height="6.02532" rx="3.01266" fill="white"/>
<circle cx="70.5092" cy="16.0805" r="6.02532" fill="#C4C4C4"/>
<circle cx="89.3392" cy="16.0805" r="6.02532" fill="#C4C4C4"/>
<circle cx="108.167" cy="16.0805" r="6.02532" fill="#C4C4C4"/>
<rect x="276.876" y="10.8083" width="31.6329" height="10.5443" rx="5.27215" fill="#D9D9D9"/>
<rect x="179.54" y="55.6123" width="179.46" height="32.1612" rx="2.84529" fill="#FF007A"/>
<rect x="187.071" y="67.6628" width="12.0506" height="12.0506" fill="#F3F1FF"/>
<rect x="240.546" y="70.6755" width="25.6076" height="6.02532" rx="3.01266" fill="white"/>
<rect x="272.179" y="70.6755" width="25.6076" height="6.02532" rx="3.01266" fill="white"/>
<rect x="303.812" y="70.6753" width="25.6076" height="6.02532" rx="3.01266" fill="white"/>
<rect x="347.495" y="70.6755" width="11.2975" height="6.02532" rx="3.01266" fill="white"/>
<g filter="url(#filter0_d_50_1483)">
<rect x="16" y="129.314" width="119.399" height="136.685" rx="3.01266" fill="white" shape-rendering="crispEdges"/>
<path d="M27.4255 152.371C27.6059 152.371 27.7609 152.314 27.8903 152.2C28.0237 152.086 28.0904 151.928 28.0904 151.724V148.823H29.8438C30.3263 148.823 30.7519 148.782 31.1207 148.699C31.4894 148.613 31.815 148.478 32.0974 148.293C32.3799 148.105 32.5937 147.85 32.7388 147.528C32.8879 147.207 32.9624 146.822 32.9624 146.375C32.9624 145.512 32.7055 144.89 32.1916 144.51C31.6777 144.125 30.9344 143.933 29.9615 143.933H27.4314C27.2431 143.933 27.0822 143.998 26.9489 144.127C26.8194 144.257 26.7547 144.414 26.7547 144.598V151.724C26.7547 151.928 26.8214 152.086 26.9547 152.2C27.0881 152.314 27.245 152.371 27.4255 152.371ZM28.0904 147.805V144.992H29.8674C30.4872 144.992 30.9383 145.092 31.2207 145.292C31.5031 145.492 31.6444 145.853 31.6444 146.375C31.6444 146.908 31.4973 147.281 31.2031 147.493C30.9089 147.701 30.446 147.805 29.8144 147.805H28.0904ZM35.4956 152.459C36.3194 152.459 36.9058 152.1 37.255 151.382V151.818C37.255 151.935 37.2824 152.037 37.3373 152.124C37.3962 152.206 37.4668 152.269 37.5492 152.312C37.6355 152.351 37.7296 152.371 37.8316 152.371C37.9885 152.371 38.1258 152.322 38.2435 152.224C38.3612 152.122 38.42 151.983 38.42 151.806V148.487C38.42 147.773 38.2121 147.248 37.7963 146.91C37.3805 146.573 36.8117 146.404 36.0899 146.404C35.2544 146.404 34.5326 146.569 33.9246 146.899C33.8579 146.934 33.8088 146.979 33.7775 147.034C33.7461 147.085 33.7304 147.144 33.7304 147.211C33.7304 147.246 33.7343 147.281 33.7422 147.316C33.7539 147.352 33.7677 147.387 33.7834 147.422C33.803 147.454 33.8245 147.485 33.8481 147.516C33.8755 147.544 33.905 147.569 33.9363 147.593C33.9677 147.613 34.0011 147.628 34.0364 147.64C34.0717 147.652 34.1089 147.658 34.1482 147.658C34.1992 147.658 34.2482 147.648 34.2953 147.628C34.4993 147.542 34.662 147.475 34.7836 147.428C34.9092 147.381 35.0935 147.332 35.3368 147.281C35.58 147.226 35.8173 147.199 36.0487 147.199C36.8411 147.199 37.2373 147.595 37.2373 148.387V148.964C36.8137 148.964 36.4547 148.97 36.1605 148.982C35.8702 148.989 35.58 149.009 35.2897 149.04C35.0033 149.068 34.768 149.109 34.5836 149.164C34.4031 149.219 34.2325 149.292 34.0717 149.382C33.9108 149.468 33.7873 149.576 33.701 149.705C33.6147 149.831 33.546 149.982 33.495 150.158C33.448 150.331 33.4244 150.533 33.4244 150.765C33.4244 151.306 33.6166 151.724 34.0011 152.018C34.3855 152.312 34.8837 152.459 35.4956 152.459ZM35.6133 151.682C35.2877 151.682 35.0288 151.604 34.8366 151.447C34.6444 151.29 34.5483 151.047 34.5483 150.717C34.5483 150.561 34.564 150.427 34.5954 150.317C34.6267 150.204 34.6856 150.105 34.7719 150.023C34.8621 149.941 34.968 149.876 35.0896 149.829C35.2112 149.782 35.3779 149.745 35.5898 149.717C35.8055 149.686 36.0389 149.666 36.29 149.658C36.541 149.647 36.8549 149.641 37.2314 149.641V149.805C37.2314 150.351 37.0686 150.8 36.7431 151.153C36.4175 151.506 36.0409 151.682 35.6133 151.682ZM39.9412 151.818C40.3609 152.116 40.8787 152.316 41.4946 152.418C41.7221 152.453 41.9457 152.471 42.1654 152.471C42.5027 152.471 42.8107 152.434 43.0892 152.359C43.3716 152.285 43.6187 152.175 43.8306 152.03C44.0424 151.881 44.2071 151.688 44.3248 151.453C44.4425 151.218 44.5014 150.949 44.5014 150.647C44.5014 150.215 44.368 149.864 44.1012 149.594C43.8345 149.323 43.401 149.111 42.8008 148.958L41.8123 148.717C41.4161 148.619 41.1553 148.523 41.0297 148.429C40.9081 148.334 40.8473 148.176 40.8473 147.952C40.8473 147.775 40.9062 147.628 41.0239 147.511C41.1455 147.389 41.3004 147.305 41.4887 147.258C41.6809 147.207 41.9006 147.181 42.1477 147.181C42.2301 147.181 42.3144 147.185 42.4007 147.193C42.487 147.201 42.5655 147.211 42.6361 147.222C42.7067 147.234 42.7812 147.25 42.8597 147.269C42.9381 147.285 43.0048 147.303 43.0597 147.322C43.1186 147.338 43.1814 147.358 43.248 147.381C43.3186 147.401 43.3736 147.418 43.4128 147.434C43.452 147.45 43.4991 147.469 43.554 147.493C43.6129 147.513 43.6521 147.526 43.6717 147.534C43.7423 147.558 43.807 147.569 43.8659 147.569C43.9208 147.569 43.9718 147.56 44.0189 147.54C44.0659 147.52 44.1052 147.495 44.1365 147.464C44.1679 147.428 44.1915 147.389 44.2071 147.346C44.2228 147.299 44.2307 147.252 44.2307 147.205C44.2307 147.036 44.1463 146.91 43.9777 146.828C43.7502 146.71 43.4697 146.608 43.1362 146.522C42.8028 146.432 42.4439 146.387 42.0595 146.387C41.2043 146.387 40.5727 146.583 40.1648 146.975C39.8863 147.246 39.747 147.589 39.747 148.005C39.747 148.158 39.7607 148.297 39.7882 148.423C39.8196 148.548 39.8588 148.658 39.9059 148.752C39.9529 148.846 40.0196 148.933 40.1059 149.011C40.1922 149.09 40.2785 149.156 40.3648 149.211C40.4551 149.266 40.5708 149.321 40.712 149.376C40.8532 149.427 40.9846 149.472 41.1062 149.511C41.2318 149.547 41.3867 149.588 41.5711 149.635L42.5714 149.888C42.893 149.97 43.1264 150.078 43.2716 150.211C43.4167 150.345 43.4893 150.519 43.4893 150.735C43.4893 151.049 43.3598 151.284 43.1009 151.441C42.846 151.598 42.5165 151.677 42.1124 151.677C41.5358 151.677 40.9748 151.51 40.4296 151.176C40.3354 151.121 40.2432 151.094 40.153 151.094C40.0392 151.094 39.9451 151.133 39.8706 151.212C39.796 151.29 39.7588 151.38 39.7588 151.482C39.7588 151.62 39.8196 151.731 39.9412 151.818ZM45.7283 151.818C46.148 152.116 46.6658 152.316 47.2817 152.418C47.5092 152.453 47.7328 152.471 47.9525 152.471C48.2898 152.471 48.5978 152.434 48.8763 152.359C49.1587 152.285 49.4059 152.175 49.6177 152.03C49.8295 151.881 49.9943 151.688 50.112 151.453C50.2296 151.218 50.2885 150.949 50.2885 150.647C50.2885 150.215 50.1551 149.864 49.8884 149.594C49.6216 149.323 49.1882 149.111 48.588 148.958L47.5994 148.717C47.2033 148.619 46.9424 148.523 46.8169 148.429C46.6953 148.334 46.6345 148.176 46.6345 147.952C46.6345 147.775 46.6933 147.628 46.811 147.511C46.9326 147.389 47.0875 147.305 47.2758 147.258C47.468 147.207 47.6877 147.181 47.9348 147.181C48.0172 147.181 48.1016 147.185 48.1879 147.193C48.2742 147.201 48.3526 147.211 48.4232 147.222C48.4938 147.234 48.5684 147.25 48.6468 147.269C48.7253 147.285 48.792 147.303 48.8469 147.322C48.9057 147.338 48.9685 147.358 49.0352 147.381C49.1058 147.401 49.1607 147.418 49.1999 147.434C49.2392 147.45 49.2862 147.469 49.3411 147.493C49.4 147.513 49.4392 147.526 49.4588 147.534C49.5294 147.558 49.5942 147.569 49.653 147.569C49.7079 147.569 49.7589 147.56 49.806 147.54C49.8531 147.52 49.8923 147.495 49.9237 147.464C49.955 147.428 49.9786 147.389 49.9943 147.346C50.01 147.299 50.0178 147.252 50.0178 147.205C50.0178 147.036 49.9335 146.91 49.7648 146.828C49.5373 146.71 49.2568 146.608 48.9234 146.522C48.5899 146.432 48.231 146.387 47.8466 146.387C46.9914 146.387 46.3599 146.583 45.9519 146.975C45.6734 147.246 45.5341 147.589 45.5341 148.005C45.5341 148.158 45.5479 148.297 45.5753 148.423C45.6067 148.548 45.6459 148.658 45.693 148.752C45.7401 148.846 45.8068 148.933 45.8931 149.011C45.9794 149.09 46.0657 149.156 46.152 149.211C46.2422 149.266 46.3579 149.321 46.4991 149.376C46.6403 149.427 46.7718 149.472 46.8934 149.511C47.0189 149.547 47.1738 149.588 47.3582 149.635L48.3585 149.888C48.6802 149.97 48.9136 150.078 49.0587 150.211C49.2038 150.345 49.2764 150.519 49.2764 150.735C49.2764 151.049 49.147 151.284 48.8881 151.441C48.6331 151.598 48.3036 151.677 47.8995 151.677C47.3229 151.677 46.7619 151.51 46.2167 151.176C46.1225 151.121 46.0304 151.094 45.9401 151.094C45.8264 151.094 45.7322 151.133 45.6577 151.212C45.5832 151.29 45.5459 151.38 45.5459 151.482C45.5459 151.62 45.6067 151.731 45.7283 151.818ZM57.9879 152.365C58.3567 152.365 58.6136 152.145 58.7588 151.706L60.2769 147.216C60.3004 147.15 60.3122 147.083 60.3122 147.016C60.3122 146.973 60.3063 146.932 60.2945 146.893C60.2827 146.85 60.267 146.812 60.2474 146.781C60.2278 146.746 60.2043 146.714 60.1768 146.687C60.1533 146.659 60.1239 146.636 60.0886 146.616C60.0572 146.593 60.0219 146.573 59.9827 146.557C59.9473 146.542 59.9101 146.53 59.8709 146.522C59.8316 146.514 59.7924 146.51 59.7532 146.51C59.6394 146.51 59.5355 146.542 59.4413 146.604C59.3511 146.667 59.2864 146.761 59.2471 146.887L57.8879 151.123L56.5051 147.134C56.36 146.71 56.1031 146.499 55.7343 146.499C55.3617 146.499 55.1028 146.71 54.9576 147.134L53.5749 151.123L52.2215 146.887C52.1823 146.761 52.1156 146.667 52.0215 146.604C51.9273 146.542 51.8234 146.51 51.7096 146.51C51.6704 146.51 51.6312 146.514 51.5919 146.522C51.5527 146.53 51.5154 146.542 51.4801 146.557C51.4448 146.573 51.4095 146.593 51.3742 146.616C51.3428 146.636 51.3134 146.659 51.286 146.687C51.2624 146.714 51.2408 146.746 51.2212 146.781C51.2016 146.812 51.1859 146.85 51.1742 146.893C51.1624 146.932 51.1565 146.973 51.1565 147.016C51.1565 147.083 51.1683 147.15 51.1918 147.216L52.7099 151.706C52.8511 152.145 53.1081 152.365 53.4807 152.365C53.8808 152.365 54.1633 152.124 54.328 151.641L55.7343 147.628L57.1347 151.641C57.3034 152.124 57.5878 152.365 57.9879 152.365ZM64.0516 151.653C63.4867 151.653 63.0435 151.455 62.7218 151.059C62.4001 150.663 62.2393 150.121 62.2393 149.435C62.2393 148.744 62.3982 148.201 62.7159 147.805C63.0376 147.409 63.4828 147.211 64.0516 147.211C64.6165 147.211 65.0598 147.411 65.3814 147.811C65.7031 148.207 65.8639 148.748 65.8639 149.435C65.8639 150.125 65.7051 150.666 65.3873 151.059C65.0696 151.451 64.6243 151.649 64.0516 151.653ZM64.0516 152.459C64.5263 152.459 64.9558 152.379 65.3402 152.218C65.7247 152.053 66.0385 151.831 66.2817 151.553C66.5249 151.274 66.7112 150.955 66.8407 150.594C66.9701 150.229 67.0349 149.843 67.0349 149.435C67.0349 148.87 66.9211 148.362 66.6936 147.911C66.47 147.456 66.1287 147.091 65.6697 146.816C65.2147 146.542 64.6753 146.404 64.0516 146.404C63.577 146.404 63.1474 146.485 62.763 146.646C62.3825 146.806 62.0687 147.026 61.8215 147.305C61.5783 147.583 61.392 147.905 61.2626 148.27C61.1331 148.631 61.0684 149.019 61.0684 149.435C61.0684 149.847 61.1331 150.233 61.2626 150.594C61.392 150.955 61.5783 151.274 61.8215 151.553C62.0648 151.831 62.3786 152.053 62.763 152.218C63.1474 152.379 63.577 152.459 64.0516 152.459ZM68.8208 152.365C68.9816 152.365 69.1229 152.316 69.2445 152.218C69.3661 152.12 69.4269 151.983 69.4269 151.806V148.929C69.4269 148.43 69.574 148.06 69.8682 147.817C70.1663 147.573 70.5762 147.452 71.0979 147.452C71.2274 147.452 71.3274 147.405 71.398 147.311C71.4686 147.216 71.504 147.105 71.504 146.975C71.504 146.834 71.4647 146.712 71.3863 146.61C71.3078 146.508 71.198 146.457 71.0568 146.457C70.6606 146.457 70.3114 146.581 70.0094 146.828C69.7113 147.075 69.5132 147.381 69.4151 147.746L69.4269 147.022C69.4269 146.956 69.4151 146.895 69.3916 146.84C69.3719 146.781 69.3425 146.732 69.3033 146.693C69.268 146.653 69.2248 146.62 69.1738 146.593C69.1268 146.561 69.0738 146.54 69.015 146.528C68.9601 146.512 68.9012 146.504 68.8385 146.504C68.6776 146.504 68.5364 146.553 68.4148 146.652C68.2971 146.746 68.2383 146.879 68.2383 147.052V151.806C68.2383 151.986 68.2952 152.126 68.4089 152.224C68.5227 152.318 68.66 152.365 68.8208 152.365ZM74.6373 152.459C75.5749 152.459 76.2378 152.098 76.6262 151.376V151.794C76.6262 151.979 76.6772 152.12 76.7792 152.218C76.8812 152.312 77.0263 152.359 77.2146 152.359C77.3754 152.359 77.5147 152.31 77.6324 152.212C77.75 152.11 77.8089 151.971 77.8089 151.794V144.492C77.8089 144.316 77.75 144.18 77.6324 144.086C77.5186 143.988 77.3813 143.939 77.2205 143.939C77.0596 143.939 76.9204 143.988 76.8027 144.086C76.685 144.18 76.6262 144.316 76.6262 144.492V147.434C76.2457 146.748 75.6121 146.404 74.7256 146.404C73.9175 146.404 73.2781 146.683 72.8074 147.24C72.3367 147.797 72.1013 148.515 72.1013 149.394C72.1013 149.805 72.1562 150.194 72.2661 150.559C72.3759 150.923 72.5328 151.249 72.7368 151.535C72.9447 151.818 73.2114 152.043 73.537 152.212C73.8626 152.377 74.2294 152.459 74.6373 152.459ZM74.8786 151.653C74.5844 151.649 74.3275 151.578 74.1078 151.441C73.892 151.3 73.7273 151.116 73.6135 150.888C73.4998 150.657 73.4154 150.419 73.3605 150.176C73.3095 149.929 73.284 149.674 73.284 149.411C73.284 149.141 73.3115 148.882 73.3664 148.634C73.4252 148.387 73.5135 148.154 73.6312 147.934C73.7528 147.715 73.9234 147.54 74.1431 147.411C74.3628 147.277 74.6217 147.211 74.9198 147.211C75.1591 147.211 75.3748 147.252 75.567 147.334C75.7632 147.416 75.924 147.528 76.0495 147.669C76.179 147.807 76.2869 147.972 76.3732 148.164C76.4634 148.352 76.5261 148.55 76.5614 148.758C76.6007 148.966 76.6203 149.184 76.6203 149.411C76.6203 149.756 76.5909 150.06 76.532 150.323C76.4732 150.586 76.379 150.819 76.2496 151.023C76.1201 151.227 75.9397 151.384 75.7083 151.494C75.4807 151.6 75.2042 151.653 74.8786 151.653Z" fill="#393333"/>
<rect x="25.6994" y="167.416" width="94.5869" height="16.5696" rx="8.28481" fill="#F3F1FF"/>
<path d="M33.437 177.26L34.0548 176.136L34.6844 177.26C34.7119 177.311 34.7433 177.354 34.7786 177.389C34.8178 177.421 34.857 177.444 34.8963 177.46C34.9355 177.475 34.9747 177.483 35.0139 177.483C35.1159 177.483 35.2062 177.444 35.2846 177.366C35.3631 177.287 35.4023 177.193 35.4023 177.083C35.4023 177.044 35.3964 177.005 35.3846 176.965C35.3729 176.922 35.3552 176.881 35.3317 176.842L34.6844 175.8L36.0201 175.842C36.1457 175.842 36.2418 175.804 36.3084 175.73C36.3791 175.655 36.4144 175.567 36.4144 175.465C36.4144 175.363 36.3791 175.275 36.3084 175.2C36.2418 175.126 36.1457 175.088 36.0201 175.088L34.6962 175.136L35.3611 174.053C35.3807 174.018 35.3944 173.982 35.4023 173.947C35.4141 173.912 35.4199 173.876 35.4199 173.841C35.4199 173.77 35.4023 173.704 35.367 173.641C35.3317 173.578 35.2846 173.529 35.2258 173.494C35.1709 173.459 35.11 173.441 35.0434 173.441C34.9806 173.441 34.9178 173.461 34.8551 173.5C34.7923 173.539 34.7374 173.598 34.6903 173.676L34.0548 174.824L33.4194 173.659C33.4115 173.643 33.4017 173.627 33.3899 173.612C33.3782 173.596 33.3664 173.582 33.3546 173.57C33.3468 173.559 33.337 173.549 33.3252 173.541C33.3134 173.529 33.3017 173.519 33.2899 173.512C33.2781 173.5 33.2644 173.492 33.2487 173.488C33.2369 173.48 33.2232 173.474 33.2075 173.47C33.1958 173.462 33.184 173.459 33.1722 173.459C33.1605 173.455 33.1467 173.453 33.131 173.453C33.1193 173.449 33.1055 173.447 33.0898 173.447C32.9879 173.447 32.8957 173.486 32.8133 173.564C32.7348 173.639 32.6956 173.731 32.6956 173.841C32.6956 173.919 32.7191 173.996 32.7662 174.071L33.4194 175.136L32.1131 175.088C32.0307 175.088 31.9581 175.108 31.8954 175.147C31.8365 175.183 31.7934 175.228 31.7659 175.283C31.7385 175.338 31.7247 175.398 31.7247 175.465C31.7247 175.567 31.7581 175.655 31.8248 175.73C31.8954 175.804 31.9915 175.842 32.1131 175.842L33.437 175.8L32.7662 176.877C32.7505 176.901 32.7368 176.926 32.725 176.954C32.7172 176.977 32.7113 177.001 32.7074 177.024C32.7035 177.044 32.7015 177.066 32.7015 177.089C32.7015 177.199 32.7407 177.293 32.8192 177.371C32.9016 177.446 32.9937 177.483 33.0957 177.483C33.1624 177.483 33.2252 177.466 33.284 177.43C33.3429 177.395 33.3939 177.338 33.437 177.26Z" fill="#FF007A"/>
<path d="M46.4117 177.26L47.0295 176.136L47.6591 177.26C47.6866 177.311 47.7179 177.354 47.7532 177.389C47.7925 177.421 47.8317 177.444 47.8709 177.46C47.9102 177.475 47.9494 177.483 47.9886 177.483C48.0906 177.483 48.1808 177.444 48.2593 177.366C48.3377 177.287 48.377 177.193 48.377 177.083C48.377 177.044 48.3711 177.005 48.3593 176.965C48.3475 176.922 48.3299 176.881 48.3064 176.842L47.6591 175.8L48.9948 175.842C49.1203 175.842 49.2164 175.804 49.2831 175.73C49.3537 175.655 49.389 175.567 49.389 175.465C49.389 175.363 49.3537 175.275 49.2831 175.2C49.2164 175.126 49.1203 175.088 48.9948 175.088L47.6709 175.136L48.3358 174.053C48.3554 174.018 48.3691 173.982 48.377 173.947C48.3887 173.912 48.3946 173.876 48.3946 173.841C48.3946 173.77 48.377 173.704 48.3417 173.641C48.3064 173.578 48.2593 173.529 48.2004 173.494C48.1455 173.459 48.0847 173.441 48.018 173.441C47.9553 173.441 47.8925 173.461 47.8297 173.5C47.767 173.539 47.7121 173.598 47.665 173.676L47.0295 174.824L46.394 173.659C46.3862 173.643 46.3764 173.627 46.3646 173.612C46.3528 173.596 46.3411 173.582 46.3293 173.57C46.3215 173.559 46.3116 173.549 46.2999 173.541C46.2881 173.529 46.2763 173.519 46.2646 173.512C46.2528 173.5 46.2391 173.492 46.2234 173.488C46.2116 173.48 46.1979 173.474 46.1822 173.47C46.1704 173.462 46.1587 173.459 46.1469 173.459C46.1351 173.455 46.1214 173.453 46.1057 173.453C46.0939 173.449 46.0802 173.447 46.0645 173.447C45.9625 173.447 45.8703 173.486 45.788 173.564C45.7095 173.639 45.6703 173.731 45.6703 173.841C45.6703 173.919 45.6938 173.996 45.7409 174.071L46.394 175.136L45.0878 175.088C45.0054 175.088 44.9328 175.108 44.87 175.147C44.8112 175.183 44.768 175.228 44.7406 175.283C44.7131 175.338 44.6994 175.398 44.6994 175.465C44.6994 175.567 44.7327 175.655 44.7994 175.73C44.87 175.804 44.9661 175.842 45.0878 175.842L46.4117 175.8L45.7409 176.877C45.7252 176.901 45.7115 176.926 45.6997 176.954C45.6919 176.977 45.686 177.001 45.682 177.024C45.6781 177.044 45.6762 177.066 45.6762 177.089C45.6762 177.199 45.7154 177.293 45.7938 177.371C45.8762 177.446 45.9684 177.483 46.0704 177.483C46.1371 177.483 46.1998 177.466 46.2587 177.43C46.3175 177.395 46.3685 177.338 46.4117 177.26Z" fill="#FF007A"/>
<path d="M59.386 177.26L60.0039 176.136L60.6335 177.26C60.6609 177.311 60.6923 177.354 60.7276 177.389C60.7668 177.421 60.8061 177.444 60.8453 177.46C60.8845 177.475 60.9238 177.483 60.963 177.483C61.065 177.483 61.1552 177.444 61.2336 177.366C61.3121 177.287 61.3513 177.193 61.3513 177.083C61.3513 177.044 61.3454 177.005 61.3337 176.965C61.3219 176.922 61.3043 176.881 61.2807 176.842L60.6335 175.8L61.9692 175.842C62.0947 175.842 62.1908 175.804 62.2575 175.73C62.3281 175.655 62.3634 175.567 62.3634 175.465C62.3634 175.363 62.3281 175.275 62.2575 175.2C62.1908 175.126 62.0947 175.088 61.9692 175.088L60.6452 175.136L61.3101 174.053C61.3298 174.018 61.3435 173.982 61.3513 173.947C61.3631 173.912 61.369 173.876 61.369 173.841C61.369 173.77 61.3513 173.704 61.316 173.641C61.2807 173.578 61.2336 173.529 61.1748 173.494C61.1199 173.459 61.0591 173.441 60.9924 173.441C60.9296 173.441 60.8669 173.461 60.8041 173.5C60.7413 173.539 60.6864 173.598 60.6394 173.676L60.0039 174.824L59.3684 173.659C59.3605 173.643 59.3507 173.627 59.339 173.612C59.3272 173.596 59.3154 173.582 59.3037 173.57C59.2958 173.559 59.286 173.549 59.2742 173.541C59.2625 173.529 59.2507 173.519 59.2389 173.512C59.2272 173.5 59.2134 173.492 59.1977 173.488C59.186 173.48 59.1723 173.474 59.1566 173.47C59.1448 173.462 59.133 173.459 59.1213 173.459C59.1095 173.455 59.0958 173.453 59.0801 173.453C59.0683 173.449 59.0546 173.447 59.0389 173.447C58.9369 173.447 58.8447 173.486 58.7623 173.564C58.6839 173.639 58.6446 173.731 58.6446 173.841C58.6446 173.919 58.6682 173.996 58.7153 174.071L59.3684 175.136L58.0621 175.088C57.9797 175.088 57.9072 175.108 57.8444 175.147C57.7856 175.183 57.7424 175.228 57.715 175.283C57.6875 175.338 57.6738 175.398 57.6738 175.465C57.6738 175.567 57.7071 175.655 57.7738 175.73C57.8444 175.804 57.9405 175.842 58.0621 175.842L59.386 175.8L58.7153 176.877C58.6996 176.901 58.6858 176.926 58.6741 176.954C58.6662 176.977 58.6603 177.001 58.6564 177.024C58.6525 177.044 58.6505 177.066 58.6505 177.089C58.6505 177.199 58.6898 177.293 58.7682 177.371C58.8506 177.446 58.9428 177.483 59.0448 177.483C59.1114 177.483 59.1742 177.466 59.2331 177.43C59.2919 177.395 59.3429 177.338 59.386 177.26Z" fill="#FF007A"/>
<path d="M72.3604 177.26L72.9782 176.136L73.6078 177.26C73.6353 177.311 73.6667 177.354 73.702 177.389C73.7412 177.421 73.7804 177.444 73.8197 177.46C73.8589 177.475 73.8981 177.483 73.9373 177.483C74.0393 177.483 74.1296 177.444 74.208 177.366C74.2865 177.287 74.3257 177.193 74.3257 177.083C74.3257 177.044 74.3198 177.005 74.308 176.965C74.2963 176.922 74.2786 176.881 74.2551 176.842L73.6078 175.8L74.9435 175.842C75.0691 175.842 75.1652 175.804 75.2318 175.73C75.3025 175.655 75.3378 175.567 75.3378 175.465C75.3378 175.363 75.3025 175.275 75.2318 175.2C75.1652 175.126 75.0691 175.088 74.9435 175.088L73.6196 175.136L74.2845 174.053C74.3041 174.018 74.3178 173.982 74.3257 173.947C74.3375 173.912 74.3433 173.876 74.3433 173.841C74.3433 173.77 74.3257 173.704 74.2904 173.641C74.2551 173.578 74.208 173.529 74.1492 173.494C74.0943 173.459 74.0335 173.441 73.9668 173.441C73.904 173.441 73.8412 173.461 73.7785 173.5C73.7157 173.539 73.6608 173.598 73.6137 173.676L72.9782 174.824L72.3428 173.659C72.3349 173.643 72.3251 173.627 72.3133 173.612C72.3016 173.596 72.2898 173.582 72.278 173.57C72.2702 173.559 72.2604 173.549 72.2486 173.541C72.2368 173.529 72.2251 173.519 72.2133 173.512C72.2015 173.5 72.1878 173.492 72.1721 173.488C72.1603 173.48 72.1466 173.474 72.1309 173.47C72.1192 173.462 72.1074 173.459 72.0956 173.459C72.0839 173.455 72.0701 173.453 72.0544 173.453C72.0427 173.449 72.0289 173.447 72.0132 173.447C71.9113 173.447 71.8191 173.486 71.7367 173.564C71.6582 173.639 71.619 173.731 71.619 173.841C71.619 173.919 71.6425 173.996 71.6896 174.071L72.3428 175.136L71.0365 175.088C70.9541 175.088 70.8815 175.108 70.8188 175.147C70.7599 175.183 70.7168 175.228 70.6893 175.283C70.6619 175.338 70.6481 175.398 70.6481 175.465C70.6481 175.567 70.6815 175.655 70.7482 175.73C70.8188 175.804 70.9149 175.842 71.0365 175.842L72.3604 175.8L71.6896 176.877C71.6739 176.901 71.6602 176.926 71.6484 176.954C71.6406 176.977 71.6347 177.001 71.6308 177.024C71.6269 177.044 71.6249 177.066 71.6249 177.089C71.6249 177.199 71.6641 177.293 71.7426 177.371C71.825 177.446 71.9171 177.483 72.0191 177.483C72.0858 177.483 72.1486 177.466 72.2074 177.43C72.2663 177.395 72.3173 177.338 72.3604 177.26Z" fill="#FF007A"/>
<path d="M85.3348 177.26L85.9527 176.136L86.5823 177.26C86.6097 177.311 86.6411 177.354 86.6764 177.389C86.7156 177.421 86.7549 177.444 86.7941 177.46C86.8333 177.475 86.8725 177.483 86.9118 177.483C87.0138 177.483 87.104 177.444 87.1824 177.366C87.2609 177.287 87.3001 177.193 87.3001 177.083C87.3001 177.044 87.2942 177.005 87.2825 176.965C87.2707 176.922 87.253 176.881 87.2295 176.842L86.5823 175.8L87.918 175.842C88.0435 175.842 88.1396 175.804 88.2063 175.73C88.2769 175.655 88.3122 175.567 88.3122 175.465C88.3122 175.363 88.2769 175.275 88.2063 175.2C88.1396 175.126 88.0435 175.088 87.918 175.088L86.594 175.136L87.2589 174.053C87.2785 174.018 87.2923 173.982 87.3001 173.947C87.3119 173.912 87.3178 173.876 87.3178 173.841C87.3178 173.77 87.3001 173.704 87.2648 173.641C87.2295 173.578 87.1824 173.529 87.1236 173.494C87.0687 173.459 87.0079 173.441 86.9412 173.441C86.8784 173.441 86.8157 173.461 86.7529 173.5C86.6901 173.539 86.6352 173.598 86.5881 173.676L85.9527 174.824L85.3172 173.659C85.3093 173.643 85.2995 173.627 85.2878 173.612C85.276 173.596 85.2642 173.582 85.2525 173.57C85.2446 173.559 85.2348 173.549 85.223 173.541C85.2113 173.529 85.1995 173.519 85.1877 173.512C85.176 173.5 85.1622 173.492 85.1465 173.488C85.1348 173.48 85.121 173.474 85.1054 173.47C85.0936 173.462 85.0818 173.459 85.07 173.459C85.0583 173.455 85.0445 173.453 85.0289 173.453C85.0171 173.449 85.0034 173.447 84.9877 173.447C84.8857 173.447 84.7935 173.486 84.7111 173.564C84.6327 173.639 84.5934 173.731 84.5934 173.841C84.5934 173.919 84.617 173.996 84.664 174.071L85.3172 175.136L84.0109 175.088C83.9285 175.088 83.856 175.108 83.7932 175.147C83.7344 175.183 83.6912 175.228 83.6637 175.283C83.6363 175.338 83.6226 175.398 83.6226 175.465C83.6226 175.567 83.6559 175.655 83.7226 175.73C83.7932 175.804 83.8893 175.842 84.0109 175.842L85.3348 175.8L84.664 176.877C84.6484 176.901 84.6346 176.926 84.6229 176.954C84.615 176.977 84.6091 177.001 84.6052 177.024C84.6013 177.044 84.5993 177.066 84.5993 177.089C84.5993 177.199 84.6385 177.293 84.717 177.371C84.7994 177.446 84.8916 177.483 84.9936 177.483C85.0602 177.483 85.123 177.466 85.1818 177.43C85.2407 177.395 85.2917 177.338 85.3348 177.26Z" fill="#FF007A"/>
<path d="M98.3092 177.26L98.927 176.136L99.5566 177.26C99.5841 177.311 99.6155 177.354 99.6508 177.389C99.69 177.421 99.7292 177.444 99.7685 177.46C99.8077 177.475 99.8469 177.483 99.8861 177.483C99.9881 177.483 100.078 177.444 100.157 177.366C100.235 177.287 100.274 177.193 100.274 177.083C100.274 177.044 100.269 177.005 100.257 176.965C100.245 176.922 100.227 176.881 100.204 176.842L99.5566 175.8L100.892 175.842C101.018 175.842 101.114 175.804 101.181 175.73C101.251 175.655 101.287 175.567 101.287 175.465C101.287 175.363 101.251 175.275 101.181 175.2C101.114 175.126 101.018 175.088 100.892 175.088L99.5684 175.136L100.233 174.053C100.253 174.018 100.267 173.982 100.274 173.947C100.286 173.912 100.292 173.876 100.292 173.841C100.292 173.77 100.274 173.704 100.239 173.641C100.204 173.578 100.157 173.529 100.098 173.494C100.043 173.459 99.9822 173.441 99.9156 173.441C99.8528 173.441 99.79 173.461 99.7273 173.5C99.6645 173.539 99.6096 173.598 99.5625 173.676L98.927 174.824L98.2915 173.659C98.2837 173.643 98.2739 173.627 98.2621 173.612C98.2504 173.596 98.2386 173.582 98.2268 173.57C98.219 173.559 98.2092 173.549 98.1974 173.541C98.1856 173.529 98.1739 173.519 98.1621 173.512C98.1503 173.5 98.1366 173.492 98.1209 173.488C98.1091 173.48 98.0954 173.474 98.0797 173.47C98.0679 173.462 98.0562 173.459 98.0444 173.459C98.0326 173.455 98.0189 173.453 98.0032 173.453C97.9915 173.449 97.9777 173.447 97.962 173.447C97.86 173.447 97.7679 173.486 97.6855 173.564C97.607 173.639 97.5678 173.731 97.5678 173.841C97.5678 173.919 97.5913 173.996 97.6384 174.071L98.2915 175.136L96.9853 175.088C96.9029 175.088 96.8303 175.108 96.7676 175.147C96.7087 175.183 96.6656 175.228 96.6381 175.283C96.6107 175.338 96.5969 175.398 96.5969 175.465C96.5969 175.567 96.6303 175.655 96.697 175.73C96.7676 175.804 96.8637 175.842 96.9853 175.842L98.3092 175.8L97.6384 176.877C97.6227 176.901 97.609 176.926 97.5972 176.954C97.5894 176.977 97.5835 177.001 97.5796 177.024C97.5756 177.044 97.5737 177.066 97.5737 177.089C97.5737 177.199 97.6129 177.293 97.6914 177.371C97.7737 177.446 97.8659 177.483 97.9679 177.483C98.0346 177.483 98.0974 177.466 98.1562 177.43C98.2151 177.395 98.266 177.338 98.3092 177.26Z" fill="#FF007A"/>
<path d="M111.284 177.26L111.901 176.136L112.531 177.26C112.559 177.311 112.59 177.354 112.625 177.389C112.664 177.421 112.704 177.444 112.743 177.46C112.782 177.475 112.821 177.483 112.861 177.483C112.963 177.483 113.053 177.444 113.131 177.366C113.21 177.287 113.249 177.193 113.249 177.083C113.249 177.044 113.243 177.005 113.231 176.965C113.219 176.922 113.202 176.881 113.178 176.842L112.531 175.8L113.867 175.842C113.992 175.842 114.088 175.804 114.155 175.73C114.226 175.655 114.261 175.567 114.261 175.465C114.261 175.363 114.226 175.275 114.155 175.2C114.088 175.126 113.992 175.088 113.867 175.088L112.543 175.136L113.208 174.053C113.227 174.018 113.241 173.982 113.249 173.947C113.261 173.912 113.267 173.876 113.267 173.841C113.267 173.77 113.249 173.704 113.214 173.641C113.178 173.578 113.131 173.529 113.072 173.494C113.017 173.459 112.957 173.441 112.89 173.441C112.827 173.441 112.764 173.461 112.702 173.5C112.639 173.539 112.584 173.598 112.537 173.676L111.901 174.824L111.266 173.659C111.258 173.643 111.248 173.627 111.237 173.612C111.225 173.596 111.213 173.582 111.201 173.57C111.193 173.559 111.184 173.549 111.172 173.541C111.16 173.529 111.148 173.519 111.137 173.512C111.125 173.5 111.111 173.492 111.095 173.488C111.084 173.48 111.07 173.474 111.054 173.47C111.042 173.462 111.031 173.459 111.019 173.459C111.007 173.455 110.993 173.453 110.978 173.453C110.966 173.449 110.952 173.447 110.936 173.447C110.834 173.447 110.742 173.486 110.66 173.564C110.581 173.639 110.542 173.731 110.542 173.841C110.542 173.919 110.566 173.996 110.613 174.071L111.266 175.136L109.96 175.088C109.877 175.088 109.805 175.108 109.742 175.147C109.683 175.183 109.64 175.228 109.613 175.283C109.585 175.338 109.571 175.398 109.571 175.465C109.571 175.567 109.605 175.655 109.671 175.73C109.742 175.804 109.838 175.842 109.96 175.842L111.284 175.8L110.613 176.877C110.597 176.901 110.583 176.926 110.572 176.954C110.564 176.977 110.558 177.001 110.554 177.024C110.55 177.044 110.548 177.066 110.548 177.089C110.548 177.199 110.587 177.293 110.666 177.371C110.748 177.446 110.84 177.483 110.942 177.483C111.009 177.483 111.072 177.466 111.131 177.43C111.189 177.395 111.24 177.338 111.284 177.26Z" fill="#FF007A"/>
<path d="M30.5601 202.646C31.4741 202.646 32.2685 202.433 32.9432 202.005C33.1433 201.875 33.2433 201.711 33.2433 201.511C33.2433 201.373 33.1962 201.254 33.1021 201.152C33.0079 201.046 32.8942 200.993 32.7608 200.993C32.6823 200.993 32.6039 201.014 32.5254 201.058C32.3214 201.167 32.1508 201.254 32.0135 201.316C31.8801 201.379 31.6997 201.44 31.4722 201.499C31.2486 201.554 31.0191 201.581 30.7837 201.581C30.3248 201.581 29.9188 201.501 29.5657 201.34C29.2127 201.175 28.9263 200.946 28.7066 200.652C28.487 200.353 28.3222 200.006 28.2124 199.61C28.1025 199.214 28.0476 198.775 28.0476 198.292C28.0476 197.81 28.1025 197.37 28.2124 196.974C28.3222 196.574 28.485 196.225 28.7008 195.927C28.9165 195.629 29.197 195.397 29.5422 195.232C29.8874 195.064 30.2836 194.979 30.7308 194.979C30.9073 194.979 31.074 194.989 31.2309 195.009C31.3878 195.028 31.531 195.06 31.6605 195.103C31.7899 195.142 31.8919 195.175 31.9664 195.203C32.041 195.23 32.1312 195.272 32.2371 195.326C32.343 195.377 32.4038 195.407 32.4195 195.415C32.4509 195.43 32.4823 195.442 32.5137 195.45C32.549 195.454 32.5823 195.456 32.6137 195.456C32.7039 195.456 32.7882 195.43 32.8667 195.379C32.9491 195.328 33.0138 195.262 33.0609 195.179C33.1079 195.093 33.1315 195.005 33.1315 194.915C33.1315 194.824 33.106 194.74 33.055 194.662C33.004 194.579 32.9255 194.511 32.8196 194.456C32.1488 194.095 31.4369 193.914 30.6837 193.914C29.8795 193.914 29.1676 194.105 28.5478 194.485C27.9319 194.862 27.4592 195.381 27.1297 196.044C26.8002 196.707 26.6354 197.462 26.6354 198.31C26.6354 199.137 26.7923 199.879 27.1062 200.534C27.42 201.189 27.877 201.705 28.4772 202.081C29.0773 202.458 29.7717 202.646 30.5601 202.646ZM37.2593 201.805C36.6944 201.805 36.2512 201.607 35.9295 201.211C35.6078 200.814 35.447 200.273 35.447 199.587C35.447 198.896 35.6059 198.353 35.9236 197.957C36.2453 197.56 36.6905 197.362 37.2593 197.362C37.8242 197.362 38.2674 197.562 38.5891 197.963C38.9108 198.359 39.0716 198.9 39.0716 199.587C39.0716 200.277 38.9127 200.818 38.595 201.211C38.2772 201.603 37.832 201.801 37.2593 201.805ZM37.2593 202.611C37.7339 202.611 38.1635 202.531 38.5479 202.37C38.9323 202.205 39.2462 201.983 39.4894 201.705C39.7326 201.426 39.9189 201.107 40.0484 200.746C40.1778 200.381 40.2425 199.995 40.2425 199.587C40.2425 199.022 40.1288 198.514 39.9013 198.063C39.6777 197.608 39.3364 197.243 38.8774 196.968C38.4224 196.694 37.883 196.556 37.2593 196.556C36.7846 196.556 36.3551 196.637 35.9707 196.798C35.5902 196.958 35.2764 197.178 35.0292 197.457C34.786 197.735 34.5997 198.057 34.4702 198.422C34.3408 198.782 34.2761 199.171 34.2761 199.587C34.2761 199.998 34.3408 200.385 34.4702 200.746C34.5997 201.107 34.786 201.426 35.0292 201.705C35.2724 201.983 35.5863 202.205 35.9707 202.37C36.3551 202.531 36.7846 202.611 37.2593 202.611ZM42.0226 202.517C42.1834 202.517 42.3227 202.468 42.4404 202.37C42.558 202.268 42.6169 202.128 42.6169 201.952V199.157C42.6326 198.608 42.7934 198.172 43.0994 197.851C43.4054 197.525 43.7761 197.362 44.2115 197.362C44.5998 197.362 44.9078 197.486 45.1353 197.733C45.3628 197.98 45.4766 198.339 45.4766 198.81V201.952C45.4766 202.128 45.5334 202.268 45.6472 202.37C45.7649 202.468 45.9041 202.517 46.065 202.517C46.2258 202.517 46.3651 202.468 46.4827 202.37C46.6043 202.268 46.6651 202.128 46.6651 201.952V198.822C46.6651 198.437 46.6102 198.098 46.5004 197.804C46.3906 197.506 46.2356 197.268 46.0355 197.092C45.8394 196.911 45.6139 196.778 45.3589 196.692C45.1078 196.601 44.8313 196.556 44.5292 196.556C44.082 196.556 43.6898 196.646 43.3524 196.827C43.019 197.007 42.7738 197.268 42.6169 197.61V197.192C42.6169 197.023 42.558 196.892 42.4404 196.798C42.3266 196.703 42.1893 196.656 42.0285 196.656C41.8676 196.656 41.7284 196.705 41.6107 196.803C41.493 196.898 41.4342 197.033 41.4342 197.209V201.952C41.4342 202.128 41.4911 202.268 41.6048 202.37C41.7225 202.468 41.8618 202.517 42.0226 202.517ZM49.2866 202.517C49.4475 202.517 49.5867 202.466 49.7044 202.364C49.8221 202.262 49.8809 202.119 49.8809 201.934V197.48H50.8165C50.9577 197.48 51.0617 197.445 51.1284 197.374C51.199 197.304 51.2343 197.211 51.2343 197.098C51.2343 196.992 51.199 196.901 51.1284 196.827C51.0577 196.748 50.9538 196.709 50.8165 196.709H49.8809V196.221C49.8809 195.931 49.8947 195.701 49.9221 195.532C49.9496 195.36 49.9986 195.228 50.0692 195.138C50.1398 195.048 50.2202 194.991 50.3105 194.968C50.4007 194.94 50.5262 194.926 50.687 194.926H51.1872C51.3166 194.926 51.4167 194.883 51.4873 194.797C51.5579 194.707 51.5932 194.601 51.5932 194.479C51.5932 194.358 51.5559 194.25 51.4814 194.156C51.4108 194.061 51.3127 194.014 51.1872 194.014H50.4634C49.2827 194.014 48.6923 194.673 48.6923 195.991V196.709H47.9804C47.8391 196.709 47.7313 196.748 47.6567 196.827C47.5861 196.901 47.5508 196.992 47.5508 197.098C47.5508 197.207 47.5861 197.3 47.6567 197.374C47.7313 197.445 47.8391 197.48 47.9804 197.48H48.6923V201.934C48.6923 202.119 48.7512 202.262 48.8689 202.364C48.9865 202.466 49.1258 202.517 49.2866 202.517ZM52.8966 202.517C53.0575 202.517 53.1967 202.464 53.3144 202.358C53.436 202.252 53.4968 202.107 53.4968 201.923V197.245C53.4968 197.06 53.438 196.915 53.3203 196.809C53.2026 196.703 53.0653 196.65 52.9084 196.65C52.7476 196.65 52.6064 196.703 52.4848 196.809C52.3671 196.915 52.3082 197.06 52.3082 197.245V201.923C52.3082 202.115 52.3651 202.262 52.4789 202.364C52.5926 202.466 52.7319 202.517 52.8966 202.517ZM52.9025 195.362C53.1222 195.362 53.2987 195.299 53.4321 195.173C53.5694 195.044 53.638 194.875 53.638 194.667C53.638 194.46 53.5713 194.291 53.438 194.161C53.3046 194.032 53.1281 193.967 52.9084 193.967C52.6848 193.967 52.5044 194.032 52.3671 194.161C52.2298 194.291 52.1611 194.46 52.1611 194.667C52.1611 194.875 52.2298 195.044 52.3671 195.173C52.5044 195.299 52.6829 195.362 52.9025 195.362ZM55.6476 202.517C55.8084 202.517 55.9496 202.468 56.0712 202.37C56.1928 202.272 56.2536 202.134 56.2536 201.958V199.081C56.2536 198.582 56.4007 198.212 56.6949 197.968C56.9931 197.725 57.403 197.604 57.9247 197.604C58.0542 197.604 58.1542 197.557 58.2248 197.462C58.2954 197.368 58.3307 197.256 58.3307 197.127C58.3307 196.986 58.2915 196.864 58.213 196.762C58.1346 196.66 58.0247 196.609 57.8835 196.609C57.4873 196.609 57.1382 196.733 56.8362 196.98C56.538 197.227 56.3399 197.533 56.2419 197.898L56.2536 197.174C56.2536 197.107 56.2419 197.047 56.2183 196.992C56.1987 196.933 56.1693 196.884 56.1301 196.845C56.0948 196.805 56.0516 196.772 56.0006 196.745C55.9535 196.713 55.9006 196.692 55.8417 196.68C55.7868 196.664 55.728 196.656 55.6652 196.656C55.5044 196.656 55.3632 196.705 55.2416 196.803C55.1239 196.898 55.065 197.031 55.065 197.204V201.958C55.065 202.138 55.1219 202.278 55.2357 202.376C55.3494 202.47 55.4867 202.517 55.6476 202.517ZM59.8813 202.517C60.0461 202.517 60.1873 202.468 60.305 202.37C60.4266 202.272 60.4874 202.132 60.4874 201.952V199.169C60.4874 198.604 60.6325 198.161 60.9228 197.839C61.217 197.517 61.6073 197.356 62.0937 197.356C62.486 197.356 62.788 197.48 62.9999 197.727C63.2156 197.974 63.3235 198.353 63.3235 198.863V201.946C63.3235 202.127 63.3804 202.268 63.4941 202.37C63.6118 202.468 63.7511 202.517 63.9119 202.517C64.0767 202.517 64.2179 202.468 64.3356 202.37C64.4532 202.268 64.5121 202.127 64.5121 201.946V199.245C64.5121 198.641 64.6631 198.176 64.9652 197.851C65.2672 197.521 65.6536 197.356 66.1243 197.356C66.5205 197.356 66.8245 197.474 67.0364 197.71C67.2482 197.945 67.3541 198.298 67.3541 198.769V201.952C67.3541 202.132 67.411 202.272 67.5247 202.37C67.6424 202.468 67.7817 202.517 67.9425 202.517C68.1073 202.517 68.2485 202.468 68.3662 202.37C68.4839 202.272 68.5427 202.132 68.5427 201.952V198.798C68.5427 198.414 68.4858 198.076 68.3721 197.786C68.2622 197.492 68.1073 197.256 67.9072 197.08C67.7111 196.903 67.4855 196.772 67.2305 196.686C66.9756 196.599 66.697 196.556 66.395 196.556C65.8929 196.556 65.4614 196.668 65.1005 196.892C64.7435 197.115 64.4807 197.451 64.312 197.898C64.1904 197.486 63.959 197.16 63.6177 196.921C63.2803 196.678 62.8665 196.556 62.3762 196.556C61.9564 196.556 61.5818 196.646 61.2523 196.827C60.9267 197.007 60.6717 197.28 60.4874 197.645V197.174C60.4874 197.009 60.4266 196.882 60.305 196.792C60.1873 196.697 60.05 196.65 59.8931 196.65C59.7322 196.65 59.593 196.699 59.4753 196.798C59.3576 196.896 59.2988 197.031 59.2988 197.204V201.952C59.2988 202.132 59.3557 202.272 59.4694 202.37C59.5832 202.468 59.7205 202.517 59.8813 202.517ZM74.2093 202.523C74.3898 202.523 74.5447 202.466 74.6742 202.352C74.8075 202.238 74.8742 202.079 74.8742 201.875V198.975H76.6277C77.1102 198.975 77.5358 198.933 77.9045 198.851C78.2733 198.765 78.5988 198.629 78.8813 198.445C79.1637 198.257 79.3775 198.002 79.5227 197.68C79.6717 197.358 79.7462 196.974 79.7462 196.527C79.7462 195.664 79.4893 195.042 78.9754 194.662C78.4616 194.277 77.7182 194.085 76.7454 194.085H74.2152C74.0269 194.085 73.8661 194.15 73.7327 194.279C73.6033 194.409 73.5385 194.565 73.5385 194.75V201.875C73.5385 202.079 73.6052 202.238 73.7386 202.352C73.872 202.466 74.0289 202.523 74.2093 202.523ZM74.8742 197.957V195.144H76.6512C77.271 195.144 77.7221 195.244 78.0046 195.444C78.287 195.644 78.4282 196.005 78.4282 196.527C78.4282 197.06 78.2811 197.433 77.9869 197.645C77.6927 197.853 77.2298 197.957 76.5983 197.957H74.8742ZM82.2795 202.611C83.1032 202.611 83.6897 202.252 84.0388 201.534V201.97C84.0388 202.087 84.0663 202.189 84.1212 202.276C84.18 202.358 84.2506 202.421 84.333 202.464C84.4193 202.503 84.5135 202.523 84.6155 202.523C84.7724 202.523 84.9097 202.474 85.0273 202.376C85.145 202.274 85.2039 202.134 85.2039 201.958V198.639C85.2039 197.925 84.996 197.4 84.5802 197.062C84.1643 196.725 83.5955 196.556 82.8738 196.556C82.0382 196.556 81.3164 196.721 80.7084 197.051C80.6417 197.086 80.5927 197.131 80.5613 197.186C80.5299 197.237 80.5142 197.296 80.5142 197.362C80.5142 197.398 80.5182 197.433 80.526 197.468C80.5378 197.504 80.5515 197.539 80.5672 197.574C80.5868 197.606 80.6084 197.637 80.6319 197.668C80.6594 197.696 80.6888 197.721 80.7202 197.745C80.7516 197.764 80.7849 197.78 80.8202 197.792C80.8555 197.804 80.8928 197.81 80.932 197.81C80.983 197.81 81.032 197.8 81.0791 197.78C81.2831 197.694 81.4459 197.627 81.5675 197.58C81.693 197.533 81.8774 197.484 82.1206 197.433C82.3638 197.378 82.6011 197.351 82.8326 197.351C83.625 197.351 84.0212 197.747 84.0212 198.539V199.116C83.5975 199.116 83.2386 199.122 82.9444 199.133C82.6541 199.141 82.3638 199.161 82.0735 199.192C81.7872 199.22 81.5518 199.261 81.3674 199.316C81.187 199.371 81.0164 199.443 80.8555 199.534C80.6947 199.62 80.5711 199.728 80.4848 199.857C80.3985 199.983 80.3299 200.134 80.2789 200.31C80.2318 200.483 80.2083 200.685 80.2083 200.916C80.2083 201.458 80.4005 201.875 80.7849 202.17C81.1693 202.464 81.6675 202.611 82.2795 202.611ZM82.3972 201.834C82.0716 201.834 81.8127 201.756 81.6205 201.599C81.4282 201.442 81.3321 201.199 81.3321 200.869C81.3321 200.712 81.3478 200.579 81.3792 200.469C81.4106 200.355 81.4694 200.257 81.5557 200.175C81.6459 200.093 81.7519 200.028 81.8735 199.981C81.9951 199.934 82.1618 199.896 82.3736 199.869C82.5894 199.838 82.8228 199.818 83.0738 199.81C83.3249 199.798 83.6387 199.793 84.0153 199.793V199.957C84.0153 200.503 83.8525 200.952 83.5269 201.305C83.2013 201.658 82.8247 201.834 82.3972 201.834ZM86.725 201.97C87.1448 202.268 87.6626 202.468 88.2784 202.57C88.5059 202.605 88.7295 202.623 88.9492 202.623C89.2866 202.623 89.5945 202.585 89.873 202.511C90.1555 202.436 90.4026 202.327 90.6144 202.181C90.8262 202.032 90.991 201.84 91.1087 201.605C91.2264 201.369 91.2852 201.101 91.2852 200.799C91.2852 200.367 91.1518 200.016 90.8851 199.745C90.6183 199.475 90.1849 199.263 89.5847 199.11L88.5962 198.869C88.2 198.771 87.9391 198.675 87.8136 198.58C87.692 198.486 87.6312 198.327 87.6312 198.104C87.6312 197.927 87.69 197.78 87.8077 197.662C87.9293 197.541 88.0843 197.457 88.2725 197.409C88.4648 197.358 88.6844 197.333 88.9316 197.333C89.0139 197.333 89.0983 197.337 89.1846 197.345C89.2709 197.353 89.3493 197.362 89.4199 197.374C89.4906 197.386 89.5651 197.402 89.6435 197.421C89.722 197.437 89.7887 197.455 89.8436 197.474C89.9024 197.49 89.9652 197.509 90.0319 197.533C90.1025 197.553 90.1574 197.57 90.1966 197.586C90.2359 197.602 90.2829 197.621 90.3379 197.645C90.3967 197.664 90.4359 197.678 90.4555 197.686C90.5262 197.71 90.5909 197.721 90.6497 197.721C90.7046 197.721 90.7556 197.711 90.8027 197.692C90.8498 197.672 90.889 197.647 90.9204 197.615C90.9518 197.58 90.9753 197.541 90.991 197.498C91.0067 197.451 91.0145 197.404 91.0145 197.356C91.0145 197.188 90.9302 197.062 90.7615 196.98C90.534 196.862 90.2535 196.76 89.9201 196.674C89.5867 196.584 89.2277 196.539 88.8433 196.539C87.9881 196.539 87.3566 196.735 86.9486 197.127C86.6701 197.398 86.5308 197.741 86.5308 198.157C86.5308 198.31 86.5446 198.449 86.572 198.575C86.6034 198.7 86.6426 198.81 86.6897 198.904C86.7368 198.998 86.8035 199.084 86.8898 199.163C86.9761 199.241 87.0624 199.308 87.1487 199.363C87.2389 199.418 87.3546 199.473 87.4958 199.528C87.6371 199.579 87.7685 199.624 87.8901 199.663C88.0156 199.698 88.1706 199.74 88.3549 199.787L89.3552 200.04C89.6769 200.122 89.9103 200.23 90.0554 200.363C90.2006 200.497 90.2731 200.671 90.2731 200.887C90.2731 201.201 90.1437 201.436 89.8848 201.593C89.6298 201.75 89.3003 201.828 88.8963 201.828C88.3196 201.828 87.7587 201.662 87.2134 201.328C87.1193 201.273 87.0271 201.246 86.9369 201.246C86.8231 201.246 86.7289 201.285 86.6544 201.364C86.5799 201.442 86.5426 201.532 86.5426 201.634C86.5426 201.772 86.6034 201.883 86.725 201.97ZM92.5122 201.97C92.9319 202.268 93.4497 202.468 94.0656 202.57C94.2931 202.605 94.5167 202.623 94.7363 202.623C95.0737 202.623 95.3816 202.585 95.6601 202.511C95.9426 202.436 96.1897 202.327 96.4015 202.181C96.6134 202.032 96.7781 201.84 96.8958 201.605C97.0135 201.369 97.0723 201.101 97.0723 200.799C97.0723 200.367 96.939 200.016 96.6722 199.745C96.4055 199.475 95.972 199.263 95.3718 199.11L94.3833 198.869C93.9871 198.771 93.7262 198.675 93.6007 198.58C93.4791 198.486 93.4183 198.327 93.4183 198.104C93.4183 197.927 93.4771 197.78 93.5948 197.662C93.7164 197.541 93.8714 197.457 94.0597 197.409C94.2519 197.358 94.4716 197.333 94.7187 197.333C94.8011 197.333 94.8854 197.337 94.9717 197.345C95.058 197.353 95.1365 197.362 95.2071 197.374C95.2777 197.386 95.3522 197.402 95.4307 197.421C95.5091 197.437 95.5758 197.455 95.6307 197.474C95.6896 197.49 95.7523 197.509 95.819 197.533C95.8896 197.553 95.9445 197.57 95.9838 197.586C96.023 197.602 96.0701 197.621 96.125 197.645C96.1838 197.664 96.2231 197.678 96.2427 197.686C96.3133 197.71 96.378 197.721 96.4368 197.721C96.4918 197.721 96.5428 197.711 96.5898 197.692C96.6369 197.672 96.6761 197.647 96.7075 197.615C96.7389 197.58 96.7624 197.541 96.7781 197.498C96.7938 197.451 96.8017 197.404 96.8017 197.356C96.8017 197.188 96.7173 197.062 96.5486 196.98C96.3211 196.862 96.0407 196.76 95.7072 196.674C95.3738 196.584 95.0149 196.539 94.6304 196.539C93.7753 196.539 93.1437 196.735 92.7357 197.127C92.4572 197.398 92.318 197.741 92.318 198.157C92.318 198.31 92.3317 198.449 92.3592 198.575C92.3905 198.7 92.4298 198.81 92.4768 198.904C92.5239 198.998 92.5906 199.084 92.6769 199.163C92.7632 199.241 92.8495 199.308 92.9358 199.363C93.026 199.418 93.1418 199.473 93.283 199.528C93.4242 199.579 93.5556 199.624 93.6772 199.663C93.8027 199.698 93.9577 199.74 94.142 199.787L95.1423 200.04C95.464 200.122 95.6974 200.23 95.8426 200.363C95.9877 200.497 96.0603 200.671 96.0603 200.887C96.0603 201.201 95.9308 201.436 95.6719 201.593C95.4169 201.75 95.0874 201.828 94.6834 201.828C94.1067 201.828 93.5458 201.662 93.0005 201.328C92.9064 201.273 92.8142 201.246 92.724 201.246C92.6102 201.246 92.5161 201.285 92.4415 201.364C92.367 201.442 92.3297 201.532 92.3297 201.634C92.3297 201.772 92.3905 201.883 92.5122 201.97ZM104.772 202.517C105.141 202.517 105.397 202.297 105.543 201.858L107.061 197.368C107.084 197.302 107.096 197.235 107.096 197.168C107.096 197.125 107.09 197.084 107.078 197.045C107.067 197.001 107.051 196.964 107.031 196.933C107.012 196.898 106.988 196.866 106.961 196.839C106.937 196.811 106.908 196.788 106.872 196.768C106.841 196.745 106.806 196.725 106.766 196.709C106.731 196.694 106.694 196.682 106.655 196.674C106.615 196.666 106.576 196.662 106.537 196.662C106.423 196.662 106.319 196.694 106.225 196.756C106.135 196.819 106.07 196.913 106.031 197.039L104.672 201.275L103.289 197.286C103.144 196.862 102.887 196.65 102.518 196.65C102.146 196.65 101.887 196.862 101.741 197.286L100.359 201.275L99.0054 197.039C98.9661 196.913 98.8995 196.819 98.8053 196.756C98.7112 196.694 98.6072 196.662 98.4935 196.662C98.4542 196.662 98.415 196.666 98.3758 196.674C98.3365 196.682 98.2993 196.694 98.264 196.709C98.2287 196.725 98.1934 196.745 98.1581 196.768C98.1267 196.788 98.0973 196.811 98.0698 196.839C98.0463 196.866 98.0247 196.898 98.0051 196.933C97.9855 196.964 97.9698 197.001 97.958 197.045C97.9462 197.084 97.9403 197.125 97.9403 197.168C97.9403 197.235 97.9521 197.302 97.9757 197.368L99.4937 201.858C99.635 202.297 99.8919 202.517 100.265 202.517C100.665 202.517 100.947 202.276 101.112 201.793L102.518 197.78L103.919 201.793C104.087 202.276 104.372 202.517 104.772 202.517ZM110.835 201.805C110.271 201.805 109.827 201.607 109.506 201.211C109.184 200.814 109.023 200.273 109.023 199.587C109.023 198.896 109.182 198.353 109.5 197.957C109.821 197.56 110.267 197.362 110.835 197.362C111.4 197.362 111.844 197.562 112.165 197.963C112.487 198.359 112.648 198.9 112.648 199.587C112.648 200.277 112.489 200.818 112.171 201.211C111.853 201.603 111.408 201.801 110.835 201.805ZM110.835 202.611C111.31 202.611 111.74 202.531 112.124 202.37C112.509 202.205 112.822 201.983 113.066 201.705C113.309 201.426 113.495 201.107 113.625 200.746C113.754 200.381 113.819 199.995 113.819 199.587C113.819 199.022 113.705 198.514 113.477 198.063C113.254 197.608 112.913 197.243 112.454 196.968C111.999 196.694 111.459 196.556 110.835 196.556C110.361 196.556 109.931 196.637 109.547 196.798C109.166 196.958 108.853 197.178 108.605 197.457C108.362 197.735 108.176 198.057 108.046 198.422C107.917 198.782 107.852 199.171 107.852 199.587C107.852 199.998 107.917 200.385 108.046 200.746C108.176 201.107 108.362 201.426 108.605 201.705C108.849 201.983 109.162 202.205 109.547 202.37C109.931 202.531 110.361 202.611 110.835 202.611ZM115.605 202.517C115.765 202.517 115.907 202.468 116.028 202.37C116.15 202.272 116.211 202.134 116.211 201.958V199.081C116.211 198.582 116.358 198.212 116.652 197.968C116.95 197.725 117.36 197.604 117.882 197.604C118.011 197.604 118.111 197.557 118.182 197.462C118.252 197.368 118.288 197.256 118.288 197.127C118.288 196.986 118.249 196.864 118.17 196.762C118.092 196.66 117.982 196.609 117.841 196.609C117.444 196.609 117.095 196.733 116.793 196.98C116.495 197.227 116.297 197.533 116.199 197.898L116.211 197.174C116.211 197.107 116.199 197.047 116.175 196.992C116.156 196.933 116.126 196.884 116.087 196.845C116.052 196.805 116.009 196.772 115.958 196.745C115.911 196.713 115.858 196.692 115.799 196.68C115.744 196.664 115.685 196.656 115.622 196.656C115.461 196.656 115.32 196.705 115.199 196.803C115.081 196.898 115.022 197.031 115.022 197.204V201.958C115.022 202.138 115.079 202.278 115.193 202.376C115.307 202.47 115.444 202.517 115.605 202.517ZM121.421 202.611C122.359 202.611 123.022 202.25 123.41 201.528V201.946C123.41 202.13 123.461 202.272 123.563 202.37C123.665 202.464 123.81 202.511 123.998 202.511C124.159 202.511 124.299 202.462 124.416 202.364C124.534 202.262 124.593 202.123 124.593 201.946V194.644C124.593 194.467 124.534 194.332 124.416 194.238C124.302 194.14 124.165 194.091 124.004 194.091C123.843 194.091 123.704 194.14 123.587 194.238C123.469 194.332 123.41 194.467 123.41 194.644V197.586C123.03 196.899 122.396 196.556 121.509 196.556C120.701 196.556 120.062 196.835 119.591 197.392C119.121 197.949 118.885 198.667 118.885 199.545C118.885 199.957 118.94 200.346 119.05 200.71C119.16 201.075 119.317 201.401 119.521 201.687C119.729 201.97 119.995 202.195 120.321 202.364C120.646 202.529 121.013 202.611 121.421 202.611ZM121.662 201.805C121.368 201.801 121.111 201.73 120.892 201.593C120.676 201.452 120.511 201.267 120.397 201.04C120.284 200.808 120.199 200.571 120.144 200.328C120.093 200.081 120.068 199.826 120.068 199.563C120.068 199.292 120.095 199.033 120.15 198.786C120.209 198.539 120.297 198.306 120.415 198.086C120.537 197.866 120.707 197.692 120.927 197.562C121.147 197.429 121.406 197.362 121.704 197.362C121.943 197.362 122.159 197.404 122.351 197.486C122.547 197.568 122.708 197.68 122.833 197.821C122.963 197.959 123.071 198.123 123.157 198.316C123.247 198.504 123.31 198.702 123.345 198.91C123.385 199.118 123.404 199.336 123.404 199.563C123.404 199.908 123.375 200.212 123.316 200.475C123.257 200.738 123.163 200.971 123.033 201.175C122.904 201.379 122.724 201.536 122.492 201.646C122.265 201.752 121.988 201.805 121.662 201.805Z" fill="#393333"/>
<rect x="25.6994" y="217.567" width="94.5869" height="16.5696" rx="8.28481" fill="#F3F1FF"/>
<path d="M33.437 227.412L34.0548 226.288L34.6844 227.412C34.7119 227.463 34.7433 227.506 34.7786 227.541C34.8178 227.572 34.857 227.596 34.8963 227.612C34.9355 227.627 34.9747 227.635 35.0139 227.635C35.1159 227.635 35.2062 227.596 35.2846 227.517C35.3631 227.439 35.4023 227.345 35.4023 227.235C35.4023 227.196 35.3964 227.157 35.3846 227.117C35.3729 227.074 35.3552 227.033 35.3317 226.994L34.6844 225.952L36.0201 225.993C36.1457 225.993 36.2418 225.956 36.3084 225.882C36.3791 225.807 36.4144 225.719 36.4144 225.617C36.4144 225.515 36.3791 225.427 36.3084 225.352C36.2418 225.278 36.1457 225.24 36.0201 225.24L34.6962 225.287L35.3611 224.205C35.3807 224.169 35.3944 224.134 35.4023 224.099C35.4141 224.064 35.4199 224.028 35.4199 223.993C35.4199 223.922 35.4023 223.856 35.367 223.793C35.3317 223.73 35.2846 223.681 35.2258 223.646C35.1709 223.61 35.11 223.593 35.0434 223.593C34.9806 223.593 34.9178 223.612 34.8551 223.652C34.7923 223.691 34.7374 223.75 34.6903 223.828L34.0548 224.976L33.4194 223.81C33.4115 223.795 33.4017 223.779 33.3899 223.763C33.3782 223.748 33.3664 223.734 33.3546 223.722C33.3468 223.71 33.337 223.701 33.3252 223.693C33.3134 223.681 33.3017 223.671 33.2899 223.663C33.2781 223.652 33.2644 223.644 33.2487 223.64C33.2369 223.632 33.2232 223.626 33.2075 223.622C33.1958 223.614 33.184 223.61 33.1722 223.61C33.1605 223.607 33.1467 223.605 33.131 223.605C33.1193 223.601 33.1055 223.599 33.0898 223.599C32.9879 223.599 32.8957 223.638 32.8133 223.716C32.7348 223.791 32.6956 223.883 32.6956 223.993C32.6956 224.071 32.7191 224.148 32.7662 224.222L33.4194 225.287L32.1131 225.24C32.0307 225.24 31.9581 225.26 31.8954 225.299C31.8365 225.334 31.7934 225.38 31.7659 225.434C31.7385 225.489 31.7247 225.55 31.7247 225.617C31.7247 225.719 31.7581 225.807 31.8248 225.882C31.8954 225.956 31.9915 225.993 32.1131 225.993L33.437 225.952L32.7662 227.029C32.7505 227.053 32.7368 227.078 32.725 227.106C32.7172 227.129 32.7113 227.153 32.7074 227.176C32.7035 227.196 32.7015 227.217 32.7015 227.241C32.7015 227.351 32.7407 227.445 32.8192 227.523C32.9016 227.598 32.9937 227.635 33.0957 227.635C33.1624 227.635 33.2252 227.617 33.284 227.582C33.3429 227.547 33.3939 227.49 33.437 227.412Z" fill="#FF007A"/>
<path d="M46.4117 227.412L47.0295 226.288L47.6591 227.412C47.6866 227.463 47.7179 227.506 47.7532 227.541C47.7925 227.572 47.8317 227.596 47.8709 227.612C47.9102 227.627 47.9494 227.635 47.9886 227.635C48.0906 227.635 48.1808 227.596 48.2593 227.517C48.3377 227.439 48.377 227.345 48.377 227.235C48.377 227.196 48.3711 227.157 48.3593 227.117C48.3475 227.074 48.3299 227.033 48.3064 226.994L47.6591 225.952L48.9948 225.993C49.1203 225.993 49.2164 225.956 49.2831 225.882C49.3537 225.807 49.389 225.719 49.389 225.617C49.389 225.515 49.3537 225.427 49.2831 225.352C49.2164 225.278 49.1203 225.24 48.9948 225.24L47.6709 225.287L48.3358 224.205C48.3554 224.169 48.3691 224.134 48.377 224.099C48.3887 224.064 48.3946 224.028 48.3946 223.993C48.3946 223.922 48.377 223.856 48.3417 223.793C48.3064 223.73 48.2593 223.681 48.2004 223.646C48.1455 223.61 48.0847 223.593 48.018 223.593C47.9553 223.593 47.8925 223.612 47.8297 223.652C47.767 223.691 47.7121 223.75 47.665 223.828L47.0295 224.976L46.394 223.81C46.3862 223.795 46.3764 223.779 46.3646 223.763C46.3528 223.748 46.3411 223.734 46.3293 223.722C46.3215 223.71 46.3116 223.701 46.2999 223.693C46.2881 223.681 46.2763 223.671 46.2646 223.663C46.2528 223.652 46.2391 223.644 46.2234 223.64C46.2116 223.632 46.1979 223.626 46.1822 223.622C46.1704 223.614 46.1587 223.61 46.1469 223.61C46.1351 223.607 46.1214 223.605 46.1057 223.605C46.0939 223.601 46.0802 223.599 46.0645 223.599C45.9625 223.599 45.8703 223.638 45.788 223.716C45.7095 223.791 45.6703 223.883 45.6703 223.993C45.6703 224.071 45.6938 224.148 45.7409 224.222L46.394 225.287L45.0878 225.24C45.0054 225.24 44.9328 225.26 44.87 225.299C44.8112 225.334 44.768 225.38 44.7406 225.434C44.7131 225.489 44.6994 225.55 44.6994 225.617C44.6994 225.719 44.7327 225.807 44.7994 225.882C44.87 225.956 44.9661 225.993 45.0878 225.993L46.4117 225.952L45.7409 227.029C45.7252 227.053 45.7115 227.078 45.6997 227.106C45.6919 227.129 45.686 227.153 45.682 227.176C45.6781 227.196 45.6762 227.217 45.6762 227.241C45.6762 227.351 45.7154 227.445 45.7938 227.523C45.8762 227.598 45.9684 227.635 46.0704 227.635C46.1371 227.635 46.1998 227.617 46.2587 227.582C46.3175 227.547 46.3685 227.49 46.4117 227.412Z" fill="#FF007A"/>
<path d="M59.386 227.412L60.0039 226.288L60.6335 227.412C60.6609 227.463 60.6923 227.506 60.7276 227.541C60.7668 227.572 60.8061 227.596 60.8453 227.612C60.8845 227.627 60.9238 227.635 60.963 227.635C61.065 227.635 61.1552 227.596 61.2336 227.517C61.3121 227.439 61.3513 227.345 61.3513 227.235C61.3513 227.196 61.3454 227.157 61.3337 227.117C61.3219 227.074 61.3043 227.033 61.2807 226.994L60.6335 225.952L61.9692 225.993C62.0947 225.993 62.1908 225.956 62.2575 225.882C62.3281 225.807 62.3634 225.719 62.3634 225.617C62.3634 225.515 62.3281 225.427 62.2575 225.352C62.1908 225.278 62.0947 225.24 61.9692 225.24L60.6452 225.287L61.3101 224.205C61.3298 224.169 61.3435 224.134 61.3513 224.099C61.3631 224.064 61.369 224.028 61.369 223.993C61.369 223.922 61.3513 223.856 61.316 223.793C61.2807 223.73 61.2336 223.681 61.1748 223.646C61.1199 223.61 61.0591 223.593 60.9924 223.593C60.9296 223.593 60.8669 223.612 60.8041 223.652C60.7413 223.691 60.6864 223.75 60.6394 223.828L60.0039 224.976L59.3684 223.81C59.3605 223.795 59.3507 223.779 59.339 223.763C59.3272 223.748 59.3154 223.734 59.3037 223.722C59.2958 223.71 59.286 223.701 59.2742 223.693C59.2625 223.681 59.2507 223.671 59.2389 223.663C59.2272 223.652 59.2134 223.644 59.1977 223.64C59.186 223.632 59.1723 223.626 59.1566 223.622C59.1448 223.614 59.133 223.61 59.1213 223.61C59.1095 223.607 59.0958 223.605 59.0801 223.605C59.0683 223.601 59.0546 223.599 59.0389 223.599C58.9369 223.599 58.8447 223.638 58.7623 223.716C58.6839 223.791 58.6446 223.883 58.6446 223.993C58.6446 224.071 58.6682 224.148 58.7153 224.222L59.3684 225.287L58.0621 225.24C57.9797 225.24 57.9072 225.26 57.8444 225.299C57.7856 225.334 57.7424 225.38 57.715 225.434C57.6875 225.489 57.6738 225.55 57.6738 225.617C57.6738 225.719 57.7071 225.807 57.7738 225.882C57.8444 225.956 57.9405 225.993 58.0621 225.993L59.386 225.952L58.7153 227.029C58.6996 227.053 58.6858 227.078 58.6741 227.106C58.6662 227.129 58.6603 227.153 58.6564 227.176C58.6525 227.196 58.6505 227.217 58.6505 227.241C58.6505 227.351 58.6898 227.445 58.7682 227.523C58.8506 227.598 58.9428 227.635 59.0448 227.635C59.1114 227.635 59.1742 227.617 59.2331 227.582C59.2919 227.547 59.3429 227.49 59.386 227.412Z" fill="#FF007A"/>
<path d="M72.3604 227.412L72.9782 226.288L73.6078 227.412C73.6353 227.463 73.6667 227.506 73.702 227.541C73.7412 227.572 73.7804 227.596 73.8197 227.612C73.8589 227.627 73.8981 227.635 73.9373 227.635C74.0393 227.635 74.1296 227.596 74.208 227.517C74.2865 227.439 74.3257 227.345 74.3257 227.235C74.3257 227.196 74.3198 227.157 74.308 227.117C74.2963 227.074 74.2786 227.033 74.2551 226.994L73.6078 225.952L74.9435 225.993C75.0691 225.993 75.1652 225.956 75.2318 225.882C75.3025 225.807 75.3378 225.719 75.3378 225.617C75.3378 225.515 75.3025 225.427 75.2318 225.352C75.1652 225.278 75.0691 225.24 74.9435 225.24L73.6196 225.287L74.2845 224.205C74.3041 224.169 74.3178 224.134 74.3257 224.099C74.3375 224.064 74.3433 224.028 74.3433 223.993C74.3433 223.922 74.3257 223.856 74.2904 223.793C74.2551 223.73 74.208 223.681 74.1492 223.646C74.0943 223.61 74.0335 223.593 73.9668 223.593C73.904 223.593 73.8412 223.612 73.7785 223.652C73.7157 223.691 73.6608 223.75 73.6137 223.828L72.9782 224.976L72.3428 223.81C72.3349 223.795 72.3251 223.779 72.3133 223.763C72.3016 223.748 72.2898 223.734 72.278 223.722C72.2702 223.71 72.2604 223.701 72.2486 223.693C72.2368 223.681 72.2251 223.671 72.2133 223.663C72.2015 223.652 72.1878 223.644 72.1721 223.64C72.1603 223.632 72.1466 223.626 72.1309 223.622C72.1192 223.614 72.1074 223.61 72.0956 223.61C72.0839 223.607 72.0701 223.605 72.0544 223.605C72.0427 223.601 72.0289 223.599 72.0132 223.599C71.9113 223.599 71.8191 223.638 71.7367 223.716C71.6582 223.791 71.619 223.883 71.619 223.993C71.619 224.071 71.6425 224.148 71.6896 224.222L72.3428 225.287L71.0365 225.24C70.9541 225.24 70.8815 225.26 70.8188 225.299C70.7599 225.334 70.7168 225.38 70.6893 225.434C70.6619 225.489 70.6481 225.55 70.6481 225.617C70.6481 225.719 70.6815 225.807 70.7482 225.882C70.8188 225.956 70.9149 225.993 71.0365 225.993L72.3604 225.952L71.6896 227.029C71.6739 227.053 71.6602 227.078 71.6484 227.106C71.6406 227.129 71.6347 227.153 71.6308 227.176C71.6269 227.196 71.6249 227.217 71.6249 227.241C71.6249 227.351 71.6641 227.445 71.7426 227.523C71.825 227.598 71.9171 227.635 72.0191 227.635C72.0858 227.635 72.1486 227.617 72.2074 227.582C72.2663 227.547 72.3173 227.49 72.3604 227.412Z" fill="#FF007A"/>
<path d="M85.3348 227.412L85.9527 226.288L86.5823 227.412C86.6097 227.463 86.6411 227.506 86.6764 227.541C86.7156 227.572 86.7549 227.596 86.7941 227.612C86.8333 227.627 86.8725 227.635 86.9118 227.635C87.0138 227.635 87.104 227.596 87.1824 227.517C87.2609 227.439 87.3001 227.345 87.3001 227.235C87.3001 227.196 87.2942 227.157 87.2825 227.117C87.2707 227.074 87.253 227.033 87.2295 226.994L86.5823 225.952L87.918 225.993C88.0435 225.993 88.1396 225.956 88.2063 225.882C88.2769 225.807 88.3122 225.719 88.3122 225.617C88.3122 225.515 88.2769 225.427 88.2063 225.352C88.1396 225.278 88.0435 225.24 87.918 225.24L86.594 225.287L87.2589 224.205C87.2785 224.169 87.2923 224.134 87.3001 224.099C87.3119 224.064 87.3178 224.028 87.3178 223.993C87.3178 223.922 87.3001 223.856 87.2648 223.793C87.2295 223.73 87.1824 223.681 87.1236 223.646C87.0687 223.61 87.0079 223.593 86.9412 223.593C86.8784 223.593 86.8157 223.612 86.7529 223.652C86.6901 223.691 86.6352 223.75 86.5881 223.828L85.9527 224.976L85.3172 223.81C85.3093 223.795 85.2995 223.779 85.2878 223.763C85.276 223.748 85.2642 223.734 85.2525 223.722C85.2446 223.71 85.2348 223.701 85.223 223.693C85.2113 223.681 85.1995 223.671 85.1877 223.663C85.176 223.652 85.1622 223.644 85.1465 223.64C85.1348 223.632 85.121 223.626 85.1054 223.622C85.0936 223.614 85.0818 223.61 85.07 223.61C85.0583 223.607 85.0445 223.605 85.0289 223.605C85.0171 223.601 85.0034 223.599 84.9877 223.599C84.8857 223.599 84.7935 223.638 84.7111 223.716C84.6327 223.791 84.5934 223.883 84.5934 223.993C84.5934 224.071 84.617 224.148 84.664 224.222L85.3172 225.287L84.0109 225.24C83.9285 225.24 83.856 225.26 83.7932 225.299C83.7344 225.334 83.6912 225.38 83.6637 225.434C83.6363 225.489 83.6226 225.55 83.6226 225.617C83.6226 225.719 83.6559 225.807 83.7226 225.882C83.7932 225.956 83.8893 225.993 84.0109 225.993L85.3348 225.952L84.664 227.029C84.6484 227.053 84.6346 227.078 84.6229 227.106C84.615 227.129 84.6091 227.153 84.6052 227.176C84.6013 227.196 84.5993 227.217 84.5993 227.241C84.5993 227.351 84.6385 227.445 84.717 227.523C84.7994 227.598 84.8916 227.635 84.9936 227.635C85.0602 227.635 85.123 227.617 85.1818 227.582C85.2407 227.547 85.2917 227.49 85.3348 227.412Z" fill="#FF007A"/>
<path d="M98.3092 227.412L98.927 226.288L99.5566 227.412C99.5841 227.463 99.6155 227.506 99.6508 227.541C99.69 227.572 99.7292 227.596 99.7685 227.612C99.8077 227.627 99.8469 227.635 99.8861 227.635C99.9881 227.635 100.078 227.596 100.157 227.517C100.235 227.439 100.274 227.345 100.274 227.235C100.274 227.196 100.269 227.157 100.257 227.117C100.245 227.074 100.227 227.033 100.204 226.994L99.5566 225.952L100.892 225.993C101.018 225.993 101.114 225.956 101.181 225.882C101.251 225.807 101.287 225.719 101.287 225.617C101.287 225.515 101.251 225.427 101.181 225.352C101.114 225.278 101.018 225.24 100.892 225.24L99.5684 225.287L100.233 224.205C100.253 224.169 100.267 224.134 100.274 224.099C100.286 224.064 100.292 224.028 100.292 223.993C100.292 223.922 100.274 223.856 100.239 223.793C100.204 223.73 100.157 223.681 100.098 223.646C100.043 223.61 99.9822 223.593 99.9156 223.593C99.8528 223.593 99.79 223.612 99.7273 223.652C99.6645 223.691 99.6096 223.75 99.5625 223.828L98.927 224.976L98.2915 223.81C98.2837 223.795 98.2739 223.779 98.2621 223.763C98.2504 223.748 98.2386 223.734 98.2268 223.722C98.219 223.71 98.2092 223.701 98.1974 223.693C98.1856 223.681 98.1739 223.671 98.1621 223.663C98.1503 223.652 98.1366 223.644 98.1209 223.64C98.1091 223.632 98.0954 223.626 98.0797 223.622C98.0679 223.614 98.0562 223.61 98.0444 223.61C98.0326 223.607 98.0189 223.605 98.0032 223.605C97.9915 223.601 97.9777 223.599 97.962 223.599C97.86 223.599 97.7679 223.638 97.6855 223.716C97.607 223.791 97.5678 223.883 97.5678 223.993C97.5678 224.071 97.5913 224.148 97.6384 224.222L98.2915 225.287L96.9853 225.24C96.9029 225.24 96.8303 225.26 96.7676 225.299C96.7087 225.334 96.6656 225.38 96.6381 225.434C96.6107 225.489 96.5969 225.55 96.5969 225.617C96.5969 225.719 96.6303 225.807 96.697 225.882C96.7676 225.956 96.8637 225.993 96.9853 225.993L98.3092 225.952L97.6384 227.029C97.6227 227.053 97.609 227.078 97.5972 227.106C97.5894 227.129 97.5835 227.153 97.5796 227.176C97.5756 227.196 97.5737 227.217 97.5737 227.241C97.5737 227.351 97.6129 227.445 97.6914 227.523C97.7737 227.598 97.8659 227.635 97.9679 227.635C98.0346 227.635 98.0974 227.617 98.1562 227.582C98.2151 227.547 98.266 227.49 98.3092 227.412Z" fill="#FF007A"/>
<path d="M111.284 227.412L111.901 226.288L112.531 227.412C112.559 227.463 112.59 227.506 112.625 227.541C112.664 227.572 112.704 227.596 112.743 227.612C112.782 227.627 112.821 227.635 112.861 227.635C112.963 227.635 113.053 227.596 113.131 227.517C113.21 227.439 113.249 227.345 113.249 227.235C113.249 227.196 113.243 227.157 113.231 227.117C113.219 227.074 113.202 227.033 113.178 226.994L112.531 225.952L113.867 225.993C113.992 225.993 114.088 225.956 114.155 225.882C114.226 225.807 114.261 225.719 114.261 225.617C114.261 225.515 114.226 225.427 114.155 225.352C114.088 225.278 113.992 225.24 113.867 225.24L112.543 225.287L113.208 224.205C113.227 224.169 113.241 224.134 113.249 224.099C113.261 224.064 113.267 224.028 113.267 223.993C113.267 223.922 113.249 223.856 113.214 223.793C113.178 223.73 113.131 223.681 113.072 223.646C113.017 223.61 112.957 223.593 112.89 223.593C112.827 223.593 112.764 223.612 112.702 223.652C112.639 223.691 112.584 223.75 112.537 223.828L111.901 224.976L111.266 223.81C111.258 223.795 111.248 223.779 111.237 223.763C111.225 223.748 111.213 223.734 111.201 223.722C111.193 223.71 111.184 223.701 111.172 223.693C111.16 223.681 111.148 223.671 111.137 223.663C111.125 223.652 111.111 223.644 111.095 223.64C111.084 223.632 111.07 223.626 111.054 223.622C111.042 223.614 111.031 223.61 111.019 223.61C111.007 223.607 110.993 223.605 110.978 223.605C110.966 223.601 110.952 223.599 110.936 223.599C110.834 223.599 110.742 223.638 110.66 223.716C110.581 223.791 110.542 223.883 110.542 223.993C110.542 224.071 110.566 224.148 110.613 224.222L111.266 225.287L109.96 225.24C109.877 225.24 109.805 225.26 109.742 225.299C109.683 225.334 109.64 225.38 109.613 225.434C109.585 225.489 109.571 225.55 109.571 225.617C109.571 225.719 109.605 225.807 109.671 225.882C109.742 225.956 109.838 225.993 109.96 225.993L111.284 225.952L110.613 227.029C110.597 227.053 110.583 227.078 110.572 227.106C110.564 227.129 110.558 227.153 110.554 227.176C110.55 227.196 110.548 227.217 110.548 227.241C110.548 227.351 110.587 227.445 110.666 227.523C110.748 227.598 110.84 227.635 110.942 227.635C111.009 227.635 111.072 227.617 111.131 227.582C111.189 227.547 111.24 227.49 111.284 227.412Z" fill="#FF007A"/>
<g filter="url(#filter1_d_50_1483)">
<rect x="36.6108" y="246.188" width="78.1772" height="24.1013" rx="12.0506" fill="#FF007A"/>
<path d="M59.4646 262.738H63.6835C63.8601 262.738 63.9973 262.681 64.0954 262.568C64.1935 262.45 64.2425 262.315 64.2425 262.162C64.2425 262.009 64.1915 261.873 64.0895 261.756C63.9915 261.638 63.8561 261.579 63.6835 261.579H60.1825V255.007C60.1825 254.783 60.1119 254.61 59.9707 254.489C59.8294 254.363 59.6588 254.3 59.4587 254.3C59.2587 254.3 59.0861 254.363 58.9409 254.489C58.7958 254.61 58.7232 254.783 58.7232 255.007V262.009C58.7232 262.209 58.7958 262.381 58.9409 262.526C59.09 262.668 59.2646 262.738 59.4646 262.738ZM67.917 261.944C67.3718 261.944 66.9442 261.756 66.6343 261.379C66.3283 261.002 66.1753 260.479 66.1753 259.808C66.1753 259.129 66.3283 258.6 66.6343 258.219C66.9442 257.839 67.3718 257.649 67.917 257.649C68.4623 257.649 68.8879 257.841 69.1939 258.225C69.5038 258.606 69.6587 259.133 69.6587 259.808C69.6587 260.479 69.5057 261.002 69.1998 261.379C68.8938 261.756 68.4662 261.944 67.917 261.944ZM67.917 262.821C68.3171 262.821 68.6839 262.766 69.0173 262.656C69.3508 262.542 69.6332 262.391 69.8647 262.203C70.1 262.011 70.2981 261.785 70.459 261.526C70.6237 261.267 70.7433 260.995 70.8179 260.708C70.8963 260.418 70.9356 260.118 70.9356 259.808C70.9356 259.4 70.8708 259.016 70.7414 258.655C70.6119 258.294 70.4236 257.972 70.1765 257.69C69.9333 257.407 69.6175 257.186 69.2292 257.025C68.8408 256.86 68.4034 256.778 67.917 256.778C67.4267 256.778 66.9854 256.862 66.5931 257.031C66.2008 257.195 65.8831 257.421 65.6399 257.707C65.4006 257.99 65.2162 258.311 65.0868 258.672C64.9612 259.029 64.8985 259.408 64.8985 259.808C64.8985 260.2 64.9612 260.575 65.0868 260.932C65.2123 261.285 65.3947 261.605 65.634 261.891C65.8772 262.173 66.1949 262.399 66.5872 262.568C66.9795 262.736 67.4228 262.821 67.917 262.821ZM74.8807 265.31C75.7712 265.31 76.4792 265.088 77.0049 264.645C77.5345 264.201 77.7992 263.535 77.7992 262.644V257.472C77.7992 257.28 77.7384 257.131 77.6168 257.025C77.4952 256.915 77.354 256.86 77.1932 256.86C77.0441 256.86 76.9107 256.905 76.7931 256.995C76.6793 257.082 76.6126 257.203 76.593 257.36V257.754C76.4596 257.547 76.3204 257.376 76.1752 257.243C76.034 257.109 75.8398 256.999 75.5927 256.913C75.3456 256.823 75.0553 256.778 74.7219 256.778C74.1648 256.778 73.6784 256.911 73.2626 257.178C72.8468 257.445 72.531 257.807 72.3153 258.266C72.1034 258.725 71.9975 259.249 71.9975 259.837C71.9975 260.712 72.2466 261.414 72.7448 261.944C73.243 262.473 73.9138 262.738 74.7572 262.738C75.6045 262.738 76.2066 262.411 76.5636 261.756V262.738C76.5636 263.276 76.4047 263.693 76.087 263.992C75.7732 264.29 75.3397 264.439 74.7866 264.439C74.614 264.439 74.4394 264.423 74.2629 264.392C74.0903 264.364 73.9569 264.335 73.8628 264.303C73.7686 264.276 73.6372 264.231 73.4685 264.168C73.3038 264.105 73.1979 264.066 73.1508 264.05C73.1312 264.043 73.1096 264.035 73.0861 264.027C73.0665 264.023 73.0469 264.019 73.0272 264.015C73.0116 264.015 72.9939 264.015 72.9743 264.015C72.8958 264.015 72.8252 264.035 72.7625 264.074C72.6997 264.117 72.6507 264.17 72.6154 264.233C72.584 264.3 72.5683 264.368 72.5683 264.439C72.5683 264.513 72.5859 264.584 72.6212 264.651C72.6605 264.721 72.7173 264.78 72.7919 264.827C73.0076 264.961 73.3018 265.074 73.6745 265.168C74.0511 265.263 74.4532 265.31 74.8807 265.31ZM74.9513 261.897C74.4806 261.885 74.0844 261.705 73.7628 261.356C73.445 261.002 73.2861 260.485 73.2861 259.802C73.2861 259.508 73.3175 259.235 73.3803 258.984C73.447 258.733 73.545 258.506 73.6745 258.302C73.8039 258.098 73.9785 257.939 74.1982 257.825C74.4218 257.707 74.6787 257.649 74.969 257.649C75.2593 257.649 75.5084 257.703 75.7163 257.813C75.9281 257.923 76.0929 258.08 76.2105 258.284C76.3321 258.484 76.4204 258.71 76.4753 258.961C76.5302 259.212 76.5577 259.496 76.5577 259.814C76.5538 260.516 76.4047 261.038 76.1105 261.379C75.8163 261.72 75.4299 261.893 74.9513 261.897ZM84.0479 262.727C84.248 262.727 84.4206 262.666 84.5657 262.544C84.7109 262.423 84.7834 262.25 84.7834 262.026V254.989C84.7834 254.765 84.7109 254.593 84.5657 254.471C84.4206 254.346 84.2499 254.283 84.0538 254.283C83.8537 254.283 83.6811 254.346 83.536 254.471C83.3909 254.593 83.3183 254.765 83.3183 254.989V262.026C83.3183 262.246 83.3889 262.419 83.5301 262.544C83.6753 262.666 83.8479 262.727 84.0479 262.727ZM87.4871 262.738C87.6636 262.738 87.8146 262.683 87.9401 262.574C88.0696 262.464 88.1343 262.313 88.1343 262.12V259.443C88.1382 258.906 88.2912 258.472 88.5933 258.143C88.8953 257.813 89.2562 257.649 89.6759 257.649C90.0368 257.649 90.3291 257.766 90.5527 258.002C90.7763 258.237 90.8881 258.576 90.8881 259.02V262.12C90.8881 262.317 90.9508 262.47 91.0764 262.579C91.2019 262.685 91.3509 262.738 91.5235 262.738C91.7001 262.738 91.8531 262.685 91.9825 262.579C92.112 262.47 92.1767 262.317 92.1767 262.12V259.031C92.1767 258.647 92.1198 258.308 92.006 258.013C91.8923 257.719 91.7354 257.484 91.5353 257.307C91.3353 257.131 91.1077 256.999 90.8528 256.913C90.6017 256.823 90.331 256.778 90.0408 256.778C89.5936 256.778 89.2052 256.864 88.8757 257.037C88.5462 257.205 88.2991 257.452 88.1343 257.778V257.448C88.1343 257.264 88.0715 257.121 87.946 257.019C87.8205 256.913 87.6695 256.86 87.4929 256.86C87.3164 256.86 87.1634 256.915 87.034 257.025C86.9045 257.131 86.8398 257.278 86.8398 257.466V262.12C86.8398 262.317 86.9026 262.47 87.0281 262.579C87.1575 262.685 87.3105 262.738 87.4871 262.738Z" fill="white"/>
</g>
</g>
<defs>
<filter id="filter0_d_50_1483" x="-26.1772" y="87.1372" width="203.753" height="225.329" filterUnits="userSpaceOnUse" color-interpolation-filters="sRGB">
<feFlood flood-opacity="0" result="BackgroundImageFix"/>
<feColorMatrix in="SourceAlpha" type="matrix" values="0 0 0 0 0 0 0 0 0 0 0 0 0 0 0 0 0 0 127 0" result="hardAlpha"/>
<feOffset/>
<feGaussianBlur stdDeviation="21.0886"/>
<feComposite in2="hardAlpha" operator="out"/>
<feColorMatrix type="matrix" values="0 0 0 0 0 0 0 0 0 0 0 0 0 0 0 0 0 0 0.1 0"/>
<feBlend mode="normal" in2="BackgroundImageFix" result="effect1_dropShadow_50_1483"/>
<feBlend mode="normal" in="SourceGraphic" in2="effect1_dropShadow_50_1483" result="shape"/>
</filter>
<filter id="filter1_d_50_1483" x="35.1044" y="245.435" width="81.1898" height="27.114" filterUnits="userSpaceOnUse" color-interpolation-filters="sRGB">
<feFlood flood-opacity="0" result="BackgroundImageFix"/>
<feColorMatrix in="SourceAlpha" type="matrix" values="0 0 0 0 0 0 0 0 0 0 0 0 0 0 0 0 0 0 127 0" result="hardAlpha"/>
<feOffset dy="0.753165"/>
<feGaussianBlur stdDeviation="0.753165"/>
<feColorMatrix type="matrix" values="0 0 0 0 0.0627451 0 0 0 0 0.0941176 0 0 0 0 0.156863 0 0 0 0.05 0"/>
<feBlend mode="normal" in2="BackgroundImageFix" result="effect1_dropShadow_50_1483"/>
<feBlend mode="normal" in="SourceGraphic" in2="effect1_dropShadow_50_1483" result="shape"/>
</filter>
</defs>
</svg>
